G75*
G70*
%OFA0B0*%
%FSLAX24Y24*%
%IPPOS*%
%LPD*%
%AMOC8*
5,1,8,0,0,1.08239X$1,22.5*
%
%ADD10C,0.0000*%
%ADD11C,0.0520*%
%ADD12R,0.0515X0.0515*%
%ADD13C,0.0515*%
%ADD14C,0.0594*%
%ADD15OC8,0.0520*%
%ADD16OC8,0.0630*%
%ADD17C,0.0630*%
%ADD18C,0.0520*%
%ADD19R,0.0630X0.0460*%
%ADD20R,0.0700X0.0700*%
%ADD21C,0.0700*%
%ADD22C,0.0660*%
%ADD23C,0.0120*%
%ADD24C,0.0357*%
%ADD25C,0.0240*%
%ADD26C,0.0100*%
D10*
X000665Y002415D02*
X000665Y018415D01*
X001785Y018415D02*
X001787Y018465D01*
X001793Y018515D01*
X001803Y018564D01*
X001817Y018612D01*
X001834Y018659D01*
X001855Y018704D01*
X001880Y018748D01*
X001908Y018789D01*
X001940Y018828D01*
X001974Y018865D01*
X002011Y018899D01*
X002051Y018929D01*
X002093Y018956D01*
X002137Y018980D01*
X002183Y019001D01*
X002230Y019017D01*
X002278Y019030D01*
X002328Y019039D01*
X002377Y019044D01*
X002428Y019045D01*
X002478Y019042D01*
X002527Y019035D01*
X002576Y019024D01*
X002624Y019009D01*
X002670Y018991D01*
X002715Y018969D01*
X002758Y018943D01*
X002799Y018914D01*
X002838Y018882D01*
X002874Y018847D01*
X002906Y018809D01*
X002936Y018769D01*
X002963Y018726D01*
X002986Y018682D01*
X003005Y018636D01*
X003021Y018588D01*
X003033Y018539D01*
X003041Y018490D01*
X003045Y018440D01*
X003045Y018390D01*
X003041Y018340D01*
X003033Y018291D01*
X003021Y018242D01*
X003005Y018194D01*
X002986Y018148D01*
X002963Y018104D01*
X002936Y018061D01*
X002906Y018021D01*
X002874Y017983D01*
X002838Y017948D01*
X002799Y017916D01*
X002758Y017887D01*
X002715Y017861D01*
X002670Y017839D01*
X002624Y017821D01*
X002576Y017806D01*
X002527Y017795D01*
X002478Y017788D01*
X002428Y017785D01*
X002377Y017786D01*
X002328Y017791D01*
X002278Y017800D01*
X002230Y017813D01*
X002183Y017829D01*
X002137Y017850D01*
X002093Y017874D01*
X002051Y017901D01*
X002011Y017931D01*
X001974Y017965D01*
X001940Y018002D01*
X001908Y018041D01*
X001880Y018082D01*
X001855Y018126D01*
X001834Y018171D01*
X001817Y018218D01*
X001803Y018266D01*
X001793Y018315D01*
X001787Y018365D01*
X001785Y018415D01*
X000665Y018415D02*
X000667Y018498D01*
X000673Y018581D01*
X000683Y018664D01*
X000697Y018746D01*
X000714Y018828D01*
X000736Y018908D01*
X000761Y018987D01*
X000790Y019065D01*
X000823Y019142D01*
X000860Y019217D01*
X000899Y019290D01*
X000943Y019361D01*
X000989Y019430D01*
X001039Y019497D01*
X001092Y019561D01*
X001148Y019623D01*
X001207Y019682D01*
X001269Y019738D01*
X001333Y019791D01*
X001400Y019841D01*
X001469Y019887D01*
X001540Y019931D01*
X001613Y019970D01*
X001688Y020007D01*
X001765Y020040D01*
X001843Y020069D01*
X001922Y020094D01*
X002002Y020116D01*
X002084Y020133D01*
X002166Y020147D01*
X002249Y020157D01*
X002332Y020163D01*
X002415Y020165D01*
X018415Y020165D01*
X017785Y018415D02*
X017787Y018465D01*
X017793Y018515D01*
X017803Y018564D01*
X017817Y018612D01*
X017834Y018659D01*
X017855Y018704D01*
X017880Y018748D01*
X017908Y018789D01*
X017940Y018828D01*
X017974Y018865D01*
X018011Y018899D01*
X018051Y018929D01*
X018093Y018956D01*
X018137Y018980D01*
X018183Y019001D01*
X018230Y019017D01*
X018278Y019030D01*
X018328Y019039D01*
X018377Y019044D01*
X018428Y019045D01*
X018478Y019042D01*
X018527Y019035D01*
X018576Y019024D01*
X018624Y019009D01*
X018670Y018991D01*
X018715Y018969D01*
X018758Y018943D01*
X018799Y018914D01*
X018838Y018882D01*
X018874Y018847D01*
X018906Y018809D01*
X018936Y018769D01*
X018963Y018726D01*
X018986Y018682D01*
X019005Y018636D01*
X019021Y018588D01*
X019033Y018539D01*
X019041Y018490D01*
X019045Y018440D01*
X019045Y018390D01*
X019041Y018340D01*
X019033Y018291D01*
X019021Y018242D01*
X019005Y018194D01*
X018986Y018148D01*
X018963Y018104D01*
X018936Y018061D01*
X018906Y018021D01*
X018874Y017983D01*
X018838Y017948D01*
X018799Y017916D01*
X018758Y017887D01*
X018715Y017861D01*
X018670Y017839D01*
X018624Y017821D01*
X018576Y017806D01*
X018527Y017795D01*
X018478Y017788D01*
X018428Y017785D01*
X018377Y017786D01*
X018328Y017791D01*
X018278Y017800D01*
X018230Y017813D01*
X018183Y017829D01*
X018137Y017850D01*
X018093Y017874D01*
X018051Y017901D01*
X018011Y017931D01*
X017974Y017965D01*
X017940Y018002D01*
X017908Y018041D01*
X017880Y018082D01*
X017855Y018126D01*
X017834Y018171D01*
X017817Y018218D01*
X017803Y018266D01*
X017793Y018315D01*
X017787Y018365D01*
X017785Y018415D01*
X018415Y020165D02*
X018498Y020163D01*
X018581Y020157D01*
X018664Y020147D01*
X018746Y020133D01*
X018828Y020116D01*
X018908Y020094D01*
X018987Y020069D01*
X019065Y020040D01*
X019142Y020007D01*
X019217Y019970D01*
X019290Y019931D01*
X019361Y019887D01*
X019430Y019841D01*
X019497Y019791D01*
X019561Y019738D01*
X019623Y019682D01*
X019682Y019623D01*
X019738Y019561D01*
X019791Y019497D01*
X019841Y019430D01*
X019887Y019361D01*
X019931Y019290D01*
X019970Y019217D01*
X020007Y019142D01*
X020040Y019065D01*
X020069Y018987D01*
X020094Y018908D01*
X020116Y018828D01*
X020133Y018746D01*
X020147Y018664D01*
X020157Y018581D01*
X020163Y018498D01*
X020165Y018415D01*
X020165Y002415D01*
X017785Y002415D02*
X017787Y002465D01*
X017793Y002515D01*
X017803Y002564D01*
X017817Y002612D01*
X017834Y002659D01*
X017855Y002704D01*
X017880Y002748D01*
X017908Y002789D01*
X017940Y002828D01*
X017974Y002865D01*
X018011Y002899D01*
X018051Y002929D01*
X018093Y002956D01*
X018137Y002980D01*
X018183Y003001D01*
X018230Y003017D01*
X018278Y003030D01*
X018328Y003039D01*
X018377Y003044D01*
X018428Y003045D01*
X018478Y003042D01*
X018527Y003035D01*
X018576Y003024D01*
X018624Y003009D01*
X018670Y002991D01*
X018715Y002969D01*
X018758Y002943D01*
X018799Y002914D01*
X018838Y002882D01*
X018874Y002847D01*
X018906Y002809D01*
X018936Y002769D01*
X018963Y002726D01*
X018986Y002682D01*
X019005Y002636D01*
X019021Y002588D01*
X019033Y002539D01*
X019041Y002490D01*
X019045Y002440D01*
X019045Y002390D01*
X019041Y002340D01*
X019033Y002291D01*
X019021Y002242D01*
X019005Y002194D01*
X018986Y002148D01*
X018963Y002104D01*
X018936Y002061D01*
X018906Y002021D01*
X018874Y001983D01*
X018838Y001948D01*
X018799Y001916D01*
X018758Y001887D01*
X018715Y001861D01*
X018670Y001839D01*
X018624Y001821D01*
X018576Y001806D01*
X018527Y001795D01*
X018478Y001788D01*
X018428Y001785D01*
X018377Y001786D01*
X018328Y001791D01*
X018278Y001800D01*
X018230Y001813D01*
X018183Y001829D01*
X018137Y001850D01*
X018093Y001874D01*
X018051Y001901D01*
X018011Y001931D01*
X017974Y001965D01*
X017940Y002002D01*
X017908Y002041D01*
X017880Y002082D01*
X017855Y002126D01*
X017834Y002171D01*
X017817Y002218D01*
X017803Y002266D01*
X017793Y002315D01*
X017787Y002365D01*
X017785Y002415D01*
X018415Y000665D02*
X018498Y000667D01*
X018581Y000673D01*
X018664Y000683D01*
X018746Y000697D01*
X018828Y000714D01*
X018908Y000736D01*
X018987Y000761D01*
X019065Y000790D01*
X019142Y000823D01*
X019217Y000860D01*
X019290Y000899D01*
X019361Y000943D01*
X019430Y000989D01*
X019497Y001039D01*
X019561Y001092D01*
X019623Y001148D01*
X019682Y001207D01*
X019738Y001269D01*
X019791Y001333D01*
X019841Y001400D01*
X019887Y001469D01*
X019931Y001540D01*
X019970Y001613D01*
X020007Y001688D01*
X020040Y001765D01*
X020069Y001843D01*
X020094Y001922D01*
X020116Y002002D01*
X020133Y002084D01*
X020147Y002166D01*
X020157Y002249D01*
X020163Y002332D01*
X020165Y002415D01*
X018415Y000665D02*
X002415Y000665D01*
X001785Y002415D02*
X001787Y002465D01*
X001793Y002515D01*
X001803Y002564D01*
X001817Y002612D01*
X001834Y002659D01*
X001855Y002704D01*
X001880Y002748D01*
X001908Y002789D01*
X001940Y002828D01*
X001974Y002865D01*
X002011Y002899D01*
X002051Y002929D01*
X002093Y002956D01*
X002137Y002980D01*
X002183Y003001D01*
X002230Y003017D01*
X002278Y003030D01*
X002328Y003039D01*
X002377Y003044D01*
X002428Y003045D01*
X002478Y003042D01*
X002527Y003035D01*
X002576Y003024D01*
X002624Y003009D01*
X002670Y002991D01*
X002715Y002969D01*
X002758Y002943D01*
X002799Y002914D01*
X002838Y002882D01*
X002874Y002847D01*
X002906Y002809D01*
X002936Y002769D01*
X002963Y002726D01*
X002986Y002682D01*
X003005Y002636D01*
X003021Y002588D01*
X003033Y002539D01*
X003041Y002490D01*
X003045Y002440D01*
X003045Y002390D01*
X003041Y002340D01*
X003033Y002291D01*
X003021Y002242D01*
X003005Y002194D01*
X002986Y002148D01*
X002963Y002104D01*
X002936Y002061D01*
X002906Y002021D01*
X002874Y001983D01*
X002838Y001948D01*
X002799Y001916D01*
X002758Y001887D01*
X002715Y001861D01*
X002670Y001839D01*
X002624Y001821D01*
X002576Y001806D01*
X002527Y001795D01*
X002478Y001788D01*
X002428Y001785D01*
X002377Y001786D01*
X002328Y001791D01*
X002278Y001800D01*
X002230Y001813D01*
X002183Y001829D01*
X002137Y001850D01*
X002093Y001874D01*
X002051Y001901D01*
X002011Y001931D01*
X001974Y001965D01*
X001940Y002002D01*
X001908Y002041D01*
X001880Y002082D01*
X001855Y002126D01*
X001834Y002171D01*
X001817Y002218D01*
X001803Y002266D01*
X001793Y002315D01*
X001787Y002365D01*
X001785Y002415D01*
X000665Y002415D02*
X000667Y002332D01*
X000673Y002249D01*
X000683Y002166D01*
X000697Y002084D01*
X000714Y002002D01*
X000736Y001922D01*
X000761Y001843D01*
X000790Y001765D01*
X000823Y001688D01*
X000860Y001613D01*
X000899Y001540D01*
X000943Y001469D01*
X000989Y001400D01*
X001039Y001333D01*
X001092Y001269D01*
X001148Y001207D01*
X001207Y001148D01*
X001269Y001092D01*
X001333Y001039D01*
X001400Y000989D01*
X001469Y000943D01*
X001540Y000899D01*
X001613Y000860D01*
X001688Y000823D01*
X001765Y000790D01*
X001843Y000761D01*
X001922Y000736D01*
X002002Y000714D01*
X002084Y000697D01*
X002166Y000683D01*
X002249Y000673D01*
X002332Y000667D01*
X002415Y000665D01*
D11*
X005665Y004905D02*
X005665Y005425D01*
X006665Y005425D02*
X006665Y004905D01*
X007665Y004905D02*
X007665Y005425D01*
X008665Y005425D02*
X008665Y004905D01*
X009665Y004905D02*
X009665Y005425D01*
X010665Y005425D02*
X010665Y004905D01*
X011665Y004905D02*
X011665Y005425D01*
X012665Y005425D02*
X012665Y004905D01*
X013665Y004905D02*
X013665Y005425D01*
X014665Y005425D02*
X014665Y004905D01*
X015665Y004905D02*
X015665Y005425D01*
X016665Y005425D02*
X016665Y004905D01*
X017665Y004905D02*
X017665Y005425D01*
X018665Y005425D02*
X018665Y004905D01*
X018665Y007905D02*
X018665Y008425D01*
X017665Y008425D02*
X017665Y007905D01*
X016665Y007905D02*
X016665Y008425D01*
X015665Y008425D02*
X015665Y007905D01*
X014665Y007905D02*
X014665Y008425D01*
X013665Y008425D02*
X013665Y007905D01*
X012665Y007905D02*
X012665Y008425D01*
X011665Y008425D02*
X011665Y007905D01*
X010665Y007905D02*
X010665Y008425D01*
X009665Y008425D02*
X009665Y007905D01*
X008665Y007905D02*
X008665Y008425D01*
X007665Y008425D02*
X007665Y007905D01*
X006665Y007905D02*
X006665Y008425D01*
X005665Y008425D02*
X005665Y007905D01*
D12*
X003165Y011165D03*
X011665Y011165D03*
D13*
X012665Y011165D03*
X013665Y011165D03*
X014665Y011165D03*
X015665Y011165D03*
X016665Y011165D03*
X017665Y011165D03*
X018665Y011165D03*
X018665Y016165D03*
X017665Y016165D03*
X016665Y016165D03*
X015665Y016165D03*
X014665Y016165D03*
X013665Y016165D03*
X012665Y016165D03*
X011665Y016165D03*
X010165Y016165D03*
X009165Y016165D03*
X008165Y016165D03*
X007165Y016165D03*
X006165Y016165D03*
X005165Y016165D03*
X004165Y016165D03*
X003165Y016165D03*
X004165Y011165D03*
X005165Y011165D03*
X006165Y011165D03*
X007165Y011165D03*
X008165Y011165D03*
X009165Y011165D03*
X010165Y011165D03*
D14*
X010415Y018368D02*
X010415Y018962D01*
X009415Y018962D02*
X009415Y018368D01*
X007665Y018368D02*
X007665Y018962D01*
X006665Y018962D02*
X006665Y018368D01*
X005665Y018368D02*
X005665Y018962D01*
X004665Y018962D02*
X004665Y018368D01*
X011415Y018368D02*
X011415Y018962D01*
X013165Y018962D02*
X013165Y018368D01*
X014165Y018368D02*
X014165Y018962D01*
X015165Y018962D02*
X015165Y018368D01*
X016165Y018368D02*
X016165Y018962D01*
D15*
X018665Y014665D03*
X018665Y012665D03*
X015665Y009665D03*
X013665Y009665D03*
X012665Y009665D03*
X010665Y009665D03*
X010165Y012665D03*
X010165Y014665D03*
X003665Y008665D03*
X002165Y008665D03*
X002165Y004665D03*
X003665Y004665D03*
X004165Y003665D03*
X006165Y003665D03*
X009165Y003665D03*
X011165Y003665D03*
X012665Y001665D03*
X013665Y001665D03*
X014665Y001665D03*
X015665Y001665D03*
D16*
X012665Y013165D03*
X004165Y013165D03*
D17*
X004165Y014165D03*
X012665Y014165D03*
D18*
X013215Y003165D03*
X015115Y003165D03*
D19*
X007915Y003115D03*
X007915Y003715D03*
X007165Y012065D03*
X007165Y012665D03*
X007165Y013265D03*
X006165Y013265D03*
X006165Y012665D03*
X006165Y012065D03*
X005165Y012065D03*
X005165Y012665D03*
X005165Y013265D03*
X013665Y013265D03*
X013665Y012665D03*
X013665Y012065D03*
X014665Y012065D03*
X014665Y012665D03*
X014665Y013265D03*
X015665Y013265D03*
X015665Y012665D03*
X015665Y012065D03*
D20*
X009915Y002165D03*
D21*
X008915Y002165D03*
X007915Y002165D03*
X006915Y002165D03*
X005915Y002165D03*
X004915Y002165D03*
D22*
X001665Y012665D03*
X001665Y013665D03*
X001665Y014665D03*
D23*
X001626Y014653D02*
X000825Y014653D01*
X000825Y014535D02*
X001192Y014535D01*
X001187Y014550D02*
X001211Y014477D01*
X001246Y014408D01*
X001291Y014346D01*
X001346Y014291D01*
X001408Y014246D01*
X001477Y014211D01*
X001550Y014187D01*
X001627Y014175D01*
X001627Y014626D01*
X001704Y014626D01*
X001704Y014175D01*
X001780Y014187D01*
X001853Y014211D01*
X001922Y014246D01*
X001984Y014291D01*
X002039Y014346D01*
X002084Y014408D01*
X002119Y014477D01*
X002143Y014550D01*
X002155Y014627D01*
X001704Y014627D01*
X001704Y014704D01*
X001627Y014704D01*
X001627Y015155D01*
X001627Y015155D01*
X001550Y015143D01*
X001477Y015119D01*
X001408Y015084D01*
X001346Y015039D01*
X001291Y014984D01*
X001246Y014922D01*
X001211Y014853D01*
X001187Y014780D01*
X001175Y014704D01*
X001175Y014704D01*
X001626Y014704D01*
X001626Y014627D01*
X001175Y014627D01*
X001175Y014627D01*
X001187Y014550D01*
X001242Y014416D02*
X000825Y014416D01*
X000825Y014298D02*
X001340Y014298D01*
X001388Y014081D02*
X001250Y013943D01*
X001175Y013763D01*
X001175Y013568D01*
X001250Y013388D01*
X001388Y013250D01*
X001568Y013175D01*
X001763Y013175D01*
X001943Y013250D01*
X002081Y013388D01*
X002104Y013445D01*
X003445Y013445D01*
X003445Y011583D01*
X002841Y011583D01*
X002748Y011489D01*
X002748Y010841D01*
X002841Y010748D01*
X002945Y010748D01*
X002945Y007574D01*
X003074Y007445D01*
X003327Y007192D01*
X003327Y007098D01*
X003378Y006973D01*
X003473Y006878D01*
X003598Y006827D01*
X003733Y006827D01*
X003857Y006878D01*
X003952Y006973D01*
X003979Y007040D01*
X004574Y006445D01*
X004756Y006445D01*
X008945Y006445D01*
X008945Y005739D01*
X008903Y005781D01*
X008830Y005811D01*
X008635Y006006D01*
X008506Y006135D01*
X002506Y006135D01*
X002324Y006135D01*
X002074Y005885D01*
X001945Y005756D01*
X001945Y005039D01*
X001745Y004839D01*
X001745Y004491D01*
X001991Y004245D01*
X002339Y004245D01*
X002585Y004491D01*
X002585Y004839D01*
X002385Y005039D01*
X002385Y005574D01*
X002506Y005695D01*
X005341Y005695D01*
X005309Y005663D01*
X005245Y005509D01*
X005245Y005385D01*
X004256Y005385D01*
X004074Y005385D01*
X003774Y005085D01*
X003491Y005085D01*
X003245Y004839D01*
X003245Y004491D01*
X003491Y004245D01*
X003839Y004245D01*
X004085Y004491D01*
X004085Y004774D01*
X004256Y004945D01*
X005245Y004945D01*
X005245Y004822D01*
X005309Y004667D01*
X005427Y004549D01*
X005445Y004542D01*
X005445Y004256D01*
X005445Y004074D01*
X005745Y003774D01*
X005745Y003491D01*
X005991Y003245D01*
X006339Y003245D01*
X006585Y003491D01*
X006585Y003839D01*
X006339Y004085D01*
X006056Y004085D01*
X005885Y004256D01*
X005885Y004542D01*
X005903Y004549D01*
X006021Y004667D01*
X006085Y004822D01*
X006085Y005509D01*
X006021Y005663D01*
X005989Y005695D01*
X006341Y005695D01*
X006309Y005663D01*
X006245Y005509D01*
X006245Y004822D01*
X006309Y004667D01*
X006427Y004549D01*
X006500Y004519D01*
X006574Y004445D01*
X006695Y004324D01*
X006695Y002626D01*
X006626Y002598D01*
X006483Y002454D01*
X006415Y002291D01*
X006348Y002454D01*
X006204Y002598D01*
X006017Y002675D01*
X005814Y002675D01*
X005626Y002598D01*
X005483Y002454D01*
X005415Y002291D01*
X005348Y002454D01*
X005204Y002598D01*
X005135Y002626D01*
X005135Y002824D01*
X005135Y003006D01*
X004585Y003556D01*
X004585Y003839D01*
X004339Y004085D01*
X003991Y004085D01*
X003745Y003839D01*
X003745Y003491D01*
X003991Y003245D01*
X004274Y003245D01*
X004695Y002824D01*
X004695Y002626D01*
X004626Y002598D01*
X004483Y002454D01*
X004405Y002267D01*
X004405Y002064D01*
X004483Y001876D01*
X004626Y001733D01*
X004814Y001655D01*
X005017Y001655D01*
X005204Y001733D01*
X005348Y001876D01*
X005415Y002040D01*
X005483Y001876D01*
X005626Y001733D01*
X005695Y001704D01*
X005695Y001574D01*
X005824Y001445D01*
X006074Y001195D01*
X006256Y001195D01*
X007256Y001195D01*
X007385Y001324D01*
X007635Y001574D01*
X007635Y001729D01*
X007814Y001655D01*
X008017Y001655D01*
X008204Y001733D01*
X008348Y001876D01*
X008415Y002040D01*
X008483Y001876D01*
X008626Y001733D01*
X008814Y001655D01*
X009017Y001655D01*
X009204Y001733D01*
X009348Y001876D01*
X009405Y002016D01*
X009405Y001794D01*
X009416Y001753D01*
X009437Y001717D01*
X009467Y001687D01*
X009503Y001666D01*
X009544Y001655D01*
X009877Y001655D01*
X009877Y002126D01*
X009954Y002126D01*
X009954Y001655D01*
X010286Y001655D01*
X010327Y001666D01*
X010363Y001687D01*
X010393Y001717D01*
X010414Y001753D01*
X010425Y001794D01*
X010425Y002127D01*
X009954Y002127D01*
X009954Y002204D01*
X009877Y002204D01*
X009877Y002675D01*
X009544Y002675D01*
X009503Y002664D01*
X009467Y002643D01*
X009437Y002613D01*
X009416Y002577D01*
X009405Y002536D01*
X009405Y002315D01*
X009348Y002454D01*
X009204Y002598D01*
X009017Y002675D01*
X008814Y002675D01*
X008626Y002598D01*
X008483Y002454D01*
X008415Y002291D01*
X008348Y002454D01*
X008204Y002598D01*
X008135Y002626D01*
X008135Y002725D01*
X008296Y002725D01*
X008390Y002819D01*
X008390Y003411D01*
X008386Y003415D01*
X008390Y003419D01*
X008390Y004011D01*
X008296Y004105D01*
X008166Y004105D01*
X008256Y004195D01*
X008824Y004195D01*
X009006Y004195D01*
X009256Y004445D01*
X009385Y004574D01*
X009385Y004591D01*
X009427Y004549D01*
X009582Y004485D01*
X009749Y004485D01*
X009903Y004549D01*
X010021Y004667D01*
X010085Y004822D01*
X010085Y005509D01*
X010021Y005663D01*
X009903Y005781D01*
X009749Y005845D01*
X009582Y005845D01*
X009427Y005781D01*
X009385Y005739D01*
X009385Y006445D01*
X011445Y006445D01*
X011445Y005789D01*
X011427Y005781D01*
X011309Y005663D01*
X011245Y005509D01*
X011245Y004822D01*
X011309Y004667D01*
X011427Y004549D01*
X011445Y004542D01*
X011445Y004256D01*
X011274Y004085D01*
X010991Y004085D01*
X010745Y003839D01*
X010745Y003491D01*
X010991Y003245D01*
X011339Y003245D01*
X011585Y003491D01*
X011585Y003774D01*
X011756Y003945D01*
X011885Y004074D01*
X011885Y004542D01*
X011903Y004549D01*
X012021Y004667D01*
X012085Y004822D01*
X012085Y005509D01*
X012021Y005663D01*
X011903Y005781D01*
X011885Y005789D01*
X011885Y006445D01*
X013074Y006445D01*
X013256Y006445D01*
X013756Y006945D01*
X013885Y007074D01*
X013885Y007542D01*
X013903Y007549D01*
X014021Y007667D01*
X014085Y007822D01*
X014085Y008509D01*
X014021Y008663D01*
X013903Y008781D01*
X013885Y008789D01*
X013885Y009291D01*
X014085Y009491D01*
X014085Y009839D01*
X013979Y009945D01*
X015351Y009945D01*
X015245Y009839D01*
X015245Y009685D01*
X015645Y009685D01*
X015645Y009645D01*
X015685Y009645D01*
X015685Y009245D01*
X015839Y009245D01*
X016085Y009491D01*
X016085Y009645D01*
X015685Y009645D01*
X015685Y009685D01*
X016085Y009685D01*
X016085Y009839D01*
X015979Y009945D01*
X016074Y009945D01*
X016445Y009574D01*
X016445Y008789D01*
X016427Y008781D01*
X016309Y008663D01*
X016245Y008509D01*
X016245Y007822D01*
X016309Y007667D01*
X016427Y007549D01*
X016582Y007485D01*
X016749Y007485D01*
X016903Y007549D01*
X016945Y007591D01*
X016945Y006756D01*
X016445Y006256D01*
X016445Y006074D01*
X016445Y005789D01*
X016427Y005781D01*
X016309Y005663D01*
X016245Y005509D01*
X016245Y004822D01*
X016309Y004667D01*
X016427Y004549D01*
X016582Y004485D01*
X016749Y004485D01*
X016903Y004549D01*
X017021Y004667D01*
X017085Y004822D01*
X017085Y005509D01*
X017021Y005663D01*
X016903Y005781D01*
X016885Y005789D01*
X016885Y006074D01*
X017256Y006445D01*
X017385Y006574D01*
X017385Y007591D01*
X017427Y007549D01*
X017582Y007485D01*
X017749Y007485D01*
X017903Y007549D01*
X017945Y007591D01*
X017945Y006756D01*
X017445Y006256D01*
X017445Y006074D01*
X017445Y005789D01*
X017427Y005781D01*
X017309Y005663D01*
X017245Y005509D01*
X017245Y004822D01*
X017309Y004667D01*
X017427Y004549D01*
X017582Y004485D01*
X017749Y004485D01*
X017903Y004549D01*
X018021Y004667D01*
X018085Y004822D01*
X018085Y005509D01*
X018021Y005663D01*
X017903Y005781D01*
X017885Y005789D01*
X017885Y006074D01*
X018256Y006445D01*
X018385Y006574D01*
X018385Y006967D01*
X018473Y006878D01*
X018598Y006827D01*
X018733Y006827D01*
X018857Y006878D01*
X018945Y006967D01*
X018945Y006756D01*
X018574Y006385D01*
X018445Y006256D01*
X018445Y005789D01*
X018427Y005781D01*
X018309Y005663D01*
X018245Y005509D01*
X018245Y004822D01*
X018309Y004667D01*
X018427Y004549D01*
X018582Y004485D01*
X018749Y004485D01*
X018903Y004549D01*
X019021Y004667D01*
X019085Y004822D01*
X019085Y005509D01*
X019021Y005663D01*
X018903Y005781D01*
X018885Y005789D01*
X018885Y006074D01*
X019385Y006574D01*
X019385Y006756D01*
X019385Y011506D01*
X019256Y011635D01*
X019006Y011885D01*
X018824Y011885D01*
X018074Y011885D01*
X017945Y011756D01*
X017765Y011576D01*
X017748Y011583D01*
X017582Y011583D01*
X017480Y011540D01*
X017504Y011598D01*
X017504Y011733D01*
X017452Y011857D01*
X017357Y011952D01*
X017233Y012004D01*
X017098Y012004D01*
X016973Y011952D01*
X016878Y011857D01*
X016827Y011733D01*
X016827Y011598D01*
X016851Y011540D01*
X016748Y011583D01*
X016582Y011583D01*
X016429Y011519D01*
X016311Y011402D01*
X016304Y011385D01*
X016026Y011385D01*
X016019Y011402D01*
X015902Y011519D01*
X015748Y011583D01*
X015582Y011583D01*
X015429Y011519D01*
X015311Y011402D01*
X015248Y011248D01*
X015248Y011082D01*
X015311Y010929D01*
X015429Y010811D01*
X015582Y010748D01*
X015748Y010748D01*
X015902Y010811D01*
X016019Y010929D01*
X016026Y010945D01*
X016304Y010945D01*
X016311Y010929D01*
X016429Y010811D01*
X016582Y010748D01*
X016748Y010748D01*
X016902Y010811D01*
X016945Y010855D01*
X016945Y010256D01*
X016945Y010196D01*
X016635Y010506D01*
X016506Y010635D01*
X012506Y010635D01*
X012083Y011059D01*
X012083Y011489D01*
X011989Y011583D01*
X011341Y011583D01*
X011248Y011489D01*
X011248Y010841D01*
X011341Y010748D01*
X011772Y010748D01*
X012134Y010385D01*
X010256Y010385D01*
X009576Y011066D01*
X009583Y011082D01*
X009583Y011248D01*
X009519Y011402D01*
X009402Y011519D01*
X009248Y011583D01*
X009082Y011583D01*
X008929Y011519D01*
X008811Y011402D01*
X008748Y011248D01*
X008748Y011082D01*
X008811Y010929D01*
X008929Y010811D01*
X009082Y010748D01*
X009248Y010748D01*
X009265Y010755D01*
X010074Y009945D01*
X010256Y009945D01*
X010351Y009945D01*
X010245Y009839D01*
X010245Y009685D01*
X010645Y009685D01*
X010645Y009645D01*
X010685Y009645D01*
X010685Y009245D01*
X010839Y009245D01*
X011085Y009491D01*
X011085Y009645D01*
X010685Y009645D01*
X010685Y009685D01*
X011085Y009685D01*
X011085Y009839D01*
X010979Y009945D01*
X012351Y009945D01*
X012245Y009839D01*
X012245Y009491D01*
X012445Y009291D01*
X012445Y008789D01*
X012427Y008781D01*
X012309Y008663D01*
X012245Y008509D01*
X012245Y007822D01*
X012309Y007667D01*
X012427Y007549D01*
X012582Y007485D01*
X012749Y007485D01*
X012903Y007549D01*
X013021Y007667D01*
X013085Y007822D01*
X013085Y008509D01*
X013021Y008663D01*
X012903Y008781D01*
X012885Y008789D01*
X012885Y009291D01*
X013085Y009491D01*
X013085Y009839D01*
X012979Y009945D01*
X013351Y009945D01*
X013245Y009839D01*
X013245Y009491D01*
X013445Y009291D01*
X013445Y008789D01*
X013427Y008781D01*
X013309Y008663D01*
X013245Y008509D01*
X013245Y007822D01*
X013309Y007667D01*
X013427Y007549D01*
X013445Y007542D01*
X013445Y007256D01*
X013074Y006885D01*
X011574Y006885D01*
X009074Y006885D01*
X004756Y006885D01*
X003885Y007756D01*
X003885Y008291D01*
X004085Y008491D01*
X004085Y008839D01*
X003885Y009039D01*
X003885Y010855D01*
X003929Y010811D01*
X004082Y010748D01*
X004248Y010748D01*
X004402Y010811D01*
X004519Y010929D01*
X004583Y011082D01*
X004583Y011248D01*
X004576Y011265D01*
X004885Y011574D01*
X004885Y011675D01*
X005110Y011675D01*
X005110Y012010D01*
X005220Y012010D01*
X005220Y011675D01*
X005364Y011675D01*
X005265Y011576D01*
X005248Y011583D01*
X005082Y011583D01*
X004929Y011519D01*
X004811Y011402D01*
X004748Y011248D01*
X004748Y011082D01*
X004811Y010929D01*
X004929Y010811D01*
X005082Y010748D01*
X005248Y010748D01*
X005402Y010811D01*
X005519Y010929D01*
X005583Y011082D01*
X005583Y011248D01*
X005576Y011265D01*
X005885Y011574D01*
X005885Y011675D01*
X006110Y011675D01*
X006110Y012010D01*
X006220Y012010D01*
X006220Y011675D01*
X006364Y011675D01*
X006265Y011576D01*
X006248Y011583D01*
X006082Y011583D01*
X005929Y011519D01*
X005811Y011402D01*
X005748Y011248D01*
X005748Y011082D01*
X005811Y010929D01*
X005929Y010811D01*
X006082Y010748D01*
X006248Y010748D01*
X006402Y010811D01*
X006519Y010929D01*
X006583Y011082D01*
X006583Y011248D01*
X006576Y011265D01*
X006885Y011574D01*
X006885Y011675D01*
X007110Y011675D01*
X007110Y012010D01*
X007220Y012010D01*
X007220Y011675D01*
X007501Y011675D01*
X007542Y011686D01*
X007578Y011707D01*
X007608Y011737D01*
X007629Y011773D01*
X007640Y011814D01*
X007640Y012010D01*
X007220Y012010D01*
X007220Y012120D01*
X007640Y012120D01*
X007640Y012316D01*
X007629Y012357D01*
X007629Y012358D01*
X007640Y012369D01*
X007640Y012961D01*
X007636Y012965D01*
X007640Y012969D01*
X007640Y013445D01*
X010256Y013445D01*
X011074Y013445D01*
X012274Y013445D01*
X012190Y013362D01*
X012190Y013185D01*
X012645Y013185D01*
X012645Y013145D01*
X012685Y013145D01*
X012685Y012690D01*
X012862Y012690D01*
X013140Y012968D01*
X013140Y013145D01*
X012685Y013145D01*
X012685Y013185D01*
X013140Y013185D01*
X013140Y013362D01*
X013057Y013445D01*
X013190Y013445D01*
X013190Y012969D01*
X013194Y012965D01*
X013190Y012961D01*
X013190Y012885D01*
X013074Y012885D01*
X012945Y012756D01*
X012945Y011756D01*
X012765Y011576D01*
X012748Y011583D01*
X012582Y011583D01*
X012429Y011519D01*
X012311Y011402D01*
X012248Y011248D01*
X012248Y011082D01*
X012311Y010929D01*
X012429Y010811D01*
X012582Y010748D01*
X012748Y010748D01*
X012902Y010811D01*
X013019Y010929D01*
X013083Y011082D01*
X013083Y011248D01*
X013076Y011265D01*
X013385Y011574D01*
X013385Y011675D01*
X013610Y011675D01*
X013610Y012010D01*
X013720Y012010D01*
X013720Y011675D01*
X013864Y011675D01*
X013765Y011576D01*
X013748Y011583D01*
X013582Y011583D01*
X013429Y011519D01*
X013311Y011402D01*
X013248Y011248D01*
X013248Y011082D01*
X013311Y010929D01*
X013429Y010811D01*
X013582Y010748D01*
X013748Y010748D01*
X013902Y010811D01*
X014019Y010929D01*
X014083Y011082D01*
X014083Y011248D01*
X014076Y011265D01*
X014385Y011574D01*
X014385Y011675D01*
X014610Y011675D01*
X014610Y012010D01*
X014720Y012010D01*
X014720Y011675D01*
X014864Y011675D01*
X014765Y011576D01*
X014748Y011583D01*
X014582Y011583D01*
X014429Y011519D01*
X014311Y011402D01*
X014248Y011248D01*
X014248Y011082D01*
X014311Y010929D01*
X014429Y010811D01*
X014582Y010748D01*
X014748Y010748D01*
X014902Y010811D01*
X015019Y010929D01*
X015083Y011082D01*
X015083Y011248D01*
X015076Y011265D01*
X015385Y011574D01*
X015385Y011675D01*
X015610Y011675D01*
X015610Y012010D01*
X015720Y012010D01*
X015720Y011675D01*
X016001Y011675D01*
X016042Y011686D01*
X016078Y011707D01*
X016108Y011737D01*
X016129Y011773D01*
X016140Y011814D01*
X016140Y012010D01*
X015720Y012010D01*
X015720Y012120D01*
X016140Y012120D01*
X016140Y012316D01*
X016129Y012357D01*
X016129Y012358D01*
X016140Y012369D01*
X016140Y012961D01*
X016136Y012965D01*
X016140Y012969D01*
X016140Y013445D01*
X017574Y013445D01*
X017756Y013445D01*
X018556Y014245D01*
X018839Y014245D01*
X019085Y014491D01*
X019085Y014839D01*
X018885Y015039D01*
X018885Y015074D01*
X018885Y015256D01*
X018076Y016066D01*
X018083Y016082D01*
X018083Y016248D01*
X018019Y016402D01*
X017902Y016519D01*
X017748Y016583D01*
X017582Y016583D01*
X017429Y016519D01*
X017311Y016402D01*
X017248Y016248D01*
X017248Y016082D01*
X017311Y015929D01*
X017429Y015811D01*
X017582Y015748D01*
X017748Y015748D01*
X017765Y015755D01*
X018445Y015074D01*
X018445Y015039D01*
X018245Y014839D01*
X018245Y014556D01*
X017574Y013885D01*
X015756Y013885D01*
X015574Y013885D01*
X014756Y013885D01*
X014574Y013885D01*
X013756Y013885D01*
X013574Y013885D01*
X013057Y013885D01*
X013068Y013896D01*
X013140Y014071D01*
X013140Y014260D01*
X013068Y014434D01*
X012934Y014568D01*
X012760Y014640D01*
X012571Y014640D01*
X012396Y014568D01*
X012263Y014434D01*
X012190Y014260D01*
X012190Y014071D01*
X012263Y013896D01*
X012274Y013885D01*
X011385Y013885D01*
X011385Y015855D01*
X011429Y015811D01*
X011582Y015748D01*
X011748Y015748D01*
X011902Y015811D01*
X012019Y015929D01*
X012083Y016082D01*
X012083Y016248D01*
X012019Y016402D01*
X011902Y016519D01*
X011748Y016583D01*
X011582Y016583D01*
X011429Y016519D01*
X011385Y016476D01*
X011385Y016574D01*
X011635Y016824D01*
X011635Y017006D01*
X011635Y017965D01*
X011674Y017981D01*
X011802Y018110D01*
X011872Y018277D01*
X011872Y019053D01*
X011802Y019221D01*
X011674Y019349D01*
X011506Y019419D01*
X011324Y019419D01*
X011156Y019349D01*
X011028Y019221D01*
X010958Y019053D01*
X010958Y018277D01*
X011028Y018110D01*
X011156Y017981D01*
X011195Y017965D01*
X011195Y017006D01*
X011074Y016885D01*
X010945Y016756D01*
X010945Y013885D01*
X010385Y013885D01*
X010385Y014291D01*
X010585Y014491D01*
X010585Y014839D01*
X010339Y015085D01*
X010056Y015085D01*
X009385Y015756D01*
X009385Y015804D01*
X009402Y015811D01*
X009519Y015929D01*
X009583Y016082D01*
X009583Y016248D01*
X009519Y016402D01*
X009402Y016519D01*
X009248Y016583D01*
X009082Y016583D01*
X008929Y016519D01*
X008811Y016402D01*
X008748Y016248D01*
X008748Y016082D01*
X008811Y015929D01*
X008929Y015811D01*
X008945Y015804D01*
X008945Y015756D01*
X008945Y015574D01*
X009745Y014774D01*
X009745Y014491D01*
X009945Y014291D01*
X009945Y013885D01*
X007256Y013885D01*
X007074Y013885D01*
X006256Y013885D01*
X006074Y013885D01*
X005256Y013885D01*
X005074Y013885D01*
X004557Y013885D01*
X004568Y013896D01*
X004640Y014071D01*
X004640Y014260D01*
X004568Y014434D01*
X004434Y014568D01*
X004260Y014640D01*
X004071Y014640D01*
X003896Y014568D01*
X003763Y014434D01*
X003690Y014260D01*
X003690Y014071D01*
X003763Y013896D01*
X003774Y013885D01*
X003756Y013885D01*
X002104Y013885D01*
X002081Y013943D01*
X001943Y014081D01*
X001763Y014155D01*
X001568Y014155D01*
X001388Y014081D01*
X001368Y014061D02*
X000825Y014061D01*
X000825Y014179D02*
X001602Y014179D01*
X001627Y014179D02*
X001704Y014179D01*
X001704Y014175D02*
X001704Y014175D01*
X001729Y014179D02*
X003690Y014179D01*
X003694Y014061D02*
X001963Y014061D01*
X002081Y013942D02*
X003743Y013942D01*
X003665Y013665D02*
X001665Y013665D01*
X001288Y013349D02*
X000825Y013349D01*
X000825Y013231D02*
X001434Y013231D01*
X001464Y013112D02*
X000825Y013112D01*
X000825Y012994D02*
X001301Y012994D01*
X001250Y012943D02*
X001388Y013081D01*
X001568Y013155D01*
X001763Y013155D01*
X001943Y013081D01*
X002081Y012943D01*
X002155Y012763D01*
X002155Y012568D01*
X002081Y012388D01*
X001943Y012250D01*
X001885Y012226D01*
X001885Y010756D01*
X002256Y010385D01*
X002385Y010256D01*
X002385Y009039D01*
X002585Y008839D01*
X002585Y008491D01*
X002339Y008245D01*
X001991Y008245D01*
X001745Y008491D01*
X001745Y008839D01*
X001945Y009039D01*
X001945Y010074D01*
X001445Y010574D01*
X001445Y010756D01*
X001445Y012226D01*
X001388Y012250D01*
X001250Y012388D01*
X001175Y012568D01*
X001175Y012763D01*
X001250Y012943D01*
X001222Y012875D02*
X000825Y012875D01*
X000825Y012757D02*
X001175Y012757D01*
X001175Y012638D02*
X000825Y012638D01*
X000825Y012520D02*
X001195Y012520D01*
X001244Y012401D02*
X000825Y012401D01*
X000825Y012282D02*
X001355Y012282D01*
X001445Y012164D02*
X000825Y012164D01*
X000825Y012045D02*
X001445Y012045D01*
X001445Y011927D02*
X000825Y011927D01*
X000825Y011808D02*
X001445Y011808D01*
X001445Y011690D02*
X000825Y011690D01*
X000825Y011571D02*
X001445Y011571D01*
X001445Y011453D02*
X000825Y011453D01*
X000825Y011334D02*
X001445Y011334D01*
X001445Y011216D02*
X000825Y011216D01*
X000825Y011097D02*
X001445Y011097D01*
X001445Y010978D02*
X000825Y010978D01*
X000825Y010860D02*
X001445Y010860D01*
X001445Y010741D02*
X000825Y010741D01*
X000825Y010623D02*
X001445Y010623D01*
X001515Y010504D02*
X000825Y010504D01*
X000825Y010386D02*
X001634Y010386D01*
X001752Y010267D02*
X000825Y010267D01*
X000825Y010149D02*
X001871Y010149D01*
X001945Y010030D02*
X000825Y010030D01*
X000825Y009912D02*
X001945Y009912D01*
X001945Y009793D02*
X000825Y009793D01*
X000825Y009674D02*
X001945Y009674D01*
X001945Y009556D02*
X000825Y009556D01*
X000825Y009437D02*
X001945Y009437D01*
X001945Y009319D02*
X000825Y009319D01*
X000825Y009200D02*
X001945Y009200D01*
X001945Y009082D02*
X000825Y009082D01*
X000825Y008963D02*
X001869Y008963D01*
X001751Y008845D02*
X000825Y008845D01*
X000825Y008726D02*
X001745Y008726D01*
X001745Y008608D02*
X000825Y008608D01*
X000825Y008489D02*
X001747Y008489D01*
X001866Y008371D02*
X000825Y008371D01*
X000825Y008252D02*
X001984Y008252D01*
X002346Y008252D02*
X002945Y008252D01*
X002945Y008371D02*
X002464Y008371D01*
X002583Y008489D02*
X002945Y008489D01*
X002945Y008608D02*
X002585Y008608D01*
X002585Y008726D02*
X002945Y008726D01*
X002945Y008845D02*
X002580Y008845D01*
X002461Y008963D02*
X002945Y008963D01*
X002945Y009082D02*
X002385Y009082D01*
X002385Y009200D02*
X002945Y009200D01*
X002945Y009319D02*
X002385Y009319D01*
X002385Y009437D02*
X002945Y009437D01*
X002945Y009556D02*
X002385Y009556D01*
X002385Y009674D02*
X002945Y009674D01*
X002945Y009793D02*
X002385Y009793D01*
X002385Y009912D02*
X002945Y009912D01*
X002945Y010030D02*
X002385Y010030D01*
X002385Y010149D02*
X002945Y010149D01*
X002945Y010267D02*
X002374Y010267D01*
X002256Y010386D02*
X002945Y010386D01*
X002945Y010504D02*
X002137Y010504D01*
X002019Y010623D02*
X002945Y010623D01*
X002945Y010741D02*
X001900Y010741D01*
X001885Y010860D02*
X002748Y010860D01*
X002748Y010978D02*
X001885Y010978D01*
X001885Y011097D02*
X002748Y011097D01*
X002748Y011216D02*
X001885Y011216D01*
X001885Y011334D02*
X002748Y011334D01*
X002748Y011453D02*
X001885Y011453D01*
X001885Y011571D02*
X002830Y011571D01*
X003165Y011165D02*
X003165Y007665D01*
X003665Y007165D01*
X003404Y006948D02*
X000825Y006948D01*
X000825Y007067D02*
X003340Y007067D01*
X003327Y007185D02*
X000825Y007185D01*
X000825Y007304D02*
X003216Y007304D01*
X003097Y007422D02*
X000825Y007422D01*
X000825Y007541D02*
X002979Y007541D01*
X002945Y007659D02*
X000825Y007659D01*
X000825Y007778D02*
X002945Y007778D01*
X002945Y007896D02*
X000825Y007896D01*
X000825Y008015D02*
X002945Y008015D01*
X002945Y008133D02*
X000825Y008133D01*
X000825Y006829D02*
X003591Y006829D01*
X003739Y006829D02*
X004190Y006829D01*
X004308Y006711D02*
X000825Y006711D01*
X000825Y006592D02*
X004427Y006592D01*
X004545Y006474D02*
X000825Y006474D01*
X000825Y006355D02*
X008945Y006355D01*
X008945Y006237D02*
X000825Y006237D01*
X000825Y006118D02*
X002307Y006118D01*
X002189Y006000D02*
X000825Y006000D01*
X000825Y005881D02*
X002070Y005881D01*
X001951Y005763D02*
X000825Y005763D01*
X000825Y005644D02*
X001945Y005644D01*
X001945Y005525D02*
X000825Y005525D01*
X000825Y005407D02*
X001945Y005407D01*
X001945Y005288D02*
X000825Y005288D01*
X000825Y005170D02*
X001945Y005170D01*
X001945Y005051D02*
X000825Y005051D01*
X000825Y004933D02*
X001839Y004933D01*
X001745Y004814D02*
X000825Y004814D01*
X000825Y004696D02*
X001745Y004696D01*
X001745Y004577D02*
X000825Y004577D01*
X000825Y004459D02*
X001778Y004459D01*
X001896Y004340D02*
X000825Y004340D01*
X000825Y004221D02*
X005445Y004221D01*
X005445Y004103D02*
X000825Y004103D01*
X000825Y003984D02*
X001921Y003984D01*
X002046Y004034D02*
X001585Y003853D01*
X001198Y003544D01*
X000920Y003135D01*
X000825Y002829D01*
X000825Y018001D01*
X000920Y017695D01*
X001198Y017286D01*
X001198Y017286D01*
X001198Y017286D01*
X001585Y016978D01*
X001585Y016978D01*
X002046Y016797D01*
X002539Y016760D01*
X002539Y016760D01*
X003022Y016870D01*
X003450Y017117D01*
X003450Y017117D01*
X003450Y017117D01*
X003787Y017480D01*
X004001Y017926D01*
X004075Y018415D01*
X004001Y018904D01*
X004001Y018904D01*
X003787Y019350D01*
X003450Y019713D01*
X003022Y019960D01*
X003022Y019960D01*
X002825Y020005D01*
X017974Y020005D01*
X017585Y019853D01*
X017198Y019544D01*
X016920Y019135D01*
X016774Y018663D01*
X016774Y018663D01*
X016774Y018168D01*
X016774Y018168D01*
X016920Y017695D01*
X017198Y017286D01*
X017198Y017286D01*
X017585Y016978D01*
X018046Y016797D01*
X018539Y016760D01*
X018539Y016760D01*
X019022Y016870D01*
X019450Y017117D01*
X019787Y017480D01*
X020001Y017926D01*
X020005Y017951D01*
X020005Y002879D01*
X020001Y002904D01*
X020001Y002904D01*
X019787Y003350D01*
X019450Y003713D01*
X019022Y003960D01*
X019022Y003960D01*
X018539Y004071D01*
X018046Y004034D01*
X018046Y004034D01*
X017585Y003853D01*
X017198Y003544D01*
X016920Y003135D01*
X016774Y002663D01*
X016774Y002663D01*
X016774Y002168D01*
X016774Y002168D01*
X016920Y001695D01*
X017198Y001286D01*
X017198Y001286D01*
X017198Y001286D01*
X017585Y000978D01*
X017585Y000978D01*
X017974Y000825D01*
X002825Y000825D01*
X003022Y000870D01*
X003450Y001117D01*
X003787Y001480D01*
X004001Y001926D01*
X004075Y002415D01*
X004001Y002904D01*
X003787Y003350D01*
X003450Y003713D01*
X003022Y003960D01*
X003022Y003960D01*
X002539Y004071D01*
X002046Y004034D01*
X002046Y004034D01*
X001619Y003866D02*
X000825Y003866D01*
X000825Y003747D02*
X001453Y003747D01*
X001585Y003853D02*
X001585Y003853D01*
X001304Y003629D02*
X000825Y003629D01*
X000825Y003510D02*
X001175Y003510D01*
X001198Y003544D02*
X001198Y003544D01*
X001198Y003544D01*
X001094Y003392D02*
X000825Y003392D01*
X000825Y003273D02*
X001014Y003273D01*
X000933Y003155D02*
X000825Y003155D01*
X000920Y003135D02*
X000920Y003135D01*
X000889Y003036D02*
X000825Y003036D01*
X000825Y002918D02*
X000852Y002918D01*
X002434Y004340D02*
X003396Y004340D01*
X003278Y004459D02*
X002553Y004459D01*
X002585Y004577D02*
X003245Y004577D01*
X003245Y004696D02*
X002585Y004696D01*
X002585Y004814D02*
X003245Y004814D01*
X003339Y004933D02*
X002492Y004933D01*
X002385Y005051D02*
X003457Y005051D01*
X003859Y005170D02*
X002385Y005170D01*
X002385Y005288D02*
X003977Y005288D01*
X004165Y005165D02*
X003665Y004665D01*
X004085Y004696D02*
X005297Y004696D01*
X005248Y004814D02*
X004125Y004814D01*
X004244Y004933D02*
X005245Y004933D01*
X005399Y004577D02*
X004085Y004577D01*
X004053Y004459D02*
X005445Y004459D01*
X005445Y004340D02*
X003934Y004340D01*
X003890Y003984D02*
X002916Y003984D01*
X002539Y004071D02*
X002539Y004071D01*
X003185Y003866D02*
X003772Y003866D01*
X003745Y003747D02*
X003391Y003747D01*
X003450Y003713D02*
X003450Y003713D01*
X003528Y003629D02*
X003745Y003629D01*
X003745Y003510D02*
X003638Y003510D01*
X003748Y003392D02*
X003845Y003392D01*
X003824Y003273D02*
X003963Y003273D01*
X003881Y003155D02*
X004365Y003155D01*
X004483Y003036D02*
X003938Y003036D01*
X003995Y002918D02*
X004602Y002918D01*
X004695Y002799D02*
X004017Y002799D01*
X004035Y002680D02*
X004695Y002680D01*
X004591Y002562D02*
X004053Y002562D01*
X004071Y002443D02*
X004478Y002443D01*
X004429Y002325D02*
X004061Y002325D01*
X004075Y002415D02*
X004075Y002415D01*
X004044Y002206D02*
X004405Y002206D01*
X004405Y002088D02*
X004026Y002088D01*
X004008Y001969D02*
X004444Y001969D01*
X004509Y001851D02*
X003965Y001851D01*
X004001Y001926D02*
X004001Y001926D01*
X003908Y001732D02*
X004628Y001732D01*
X004915Y002165D02*
X004915Y002915D01*
X004165Y003665D01*
X004440Y003984D02*
X005535Y003984D01*
X005653Y003866D02*
X004558Y003866D01*
X004585Y003747D02*
X005745Y003747D01*
X005745Y003629D02*
X004585Y003629D01*
X004631Y003510D02*
X005745Y003510D01*
X005845Y003392D02*
X004750Y003392D01*
X004868Y003273D02*
X005963Y003273D01*
X006367Y003273D02*
X006695Y003273D01*
X006695Y003155D02*
X004987Y003155D01*
X005105Y003036D02*
X006695Y003036D01*
X006695Y002918D02*
X005135Y002918D01*
X005135Y002799D02*
X006695Y002799D01*
X006695Y002680D02*
X005135Y002680D01*
X005240Y002562D02*
X005591Y002562D01*
X005478Y002443D02*
X005352Y002443D01*
X005401Y002325D02*
X005429Y002325D01*
X005444Y001969D02*
X005386Y001969D01*
X005322Y001851D02*
X005509Y001851D01*
X005628Y001732D02*
X005202Y001732D01*
X005695Y001614D02*
X003851Y001614D01*
X003794Y001495D02*
X005774Y001495D01*
X005893Y001376D02*
X003691Y001376D01*
X003787Y001480D02*
X003787Y001480D01*
X003581Y001258D02*
X006011Y001258D01*
X006165Y001415D02*
X005915Y001665D01*
X005915Y002165D01*
X006401Y002325D02*
X006429Y002325D01*
X006478Y002443D02*
X006352Y002443D01*
X006240Y002562D02*
X006591Y002562D01*
X006915Y002165D02*
X006915Y004415D01*
X006665Y004665D01*
X006665Y005165D01*
X006245Y005170D02*
X006085Y005170D01*
X006085Y005288D02*
X006245Y005288D01*
X006245Y005407D02*
X006085Y005407D01*
X006078Y005525D02*
X006252Y005525D01*
X006301Y005644D02*
X006029Y005644D01*
X006085Y005051D02*
X006245Y005051D01*
X006245Y004933D02*
X006085Y004933D01*
X006082Y004814D02*
X006248Y004814D01*
X006297Y004696D02*
X006033Y004696D01*
X005931Y004577D02*
X006399Y004577D01*
X006561Y004459D02*
X005885Y004459D01*
X005885Y004340D02*
X006679Y004340D01*
X006695Y004221D02*
X005920Y004221D01*
X006039Y004103D02*
X006695Y004103D01*
X006695Y003984D02*
X006440Y003984D01*
X006558Y003866D02*
X006695Y003866D01*
X006695Y003747D02*
X006585Y003747D01*
X006585Y003629D02*
X006695Y003629D01*
X006695Y003510D02*
X006585Y003510D01*
X006486Y003392D02*
X006695Y003392D01*
X006165Y003665D02*
X005665Y004165D01*
X005665Y005165D01*
X004165Y005165D01*
X005245Y005407D02*
X002385Y005407D01*
X002385Y005525D02*
X005252Y005525D01*
X005301Y005644D02*
X002455Y005644D01*
X002415Y005915D02*
X002165Y005665D01*
X002165Y004665D01*
X002415Y005915D02*
X008415Y005915D01*
X008665Y005665D01*
X008665Y005165D01*
X009165Y004665D02*
X009165Y006665D01*
X011665Y006665D01*
X013165Y006665D01*
X013665Y007165D01*
X013665Y008165D01*
X013665Y009665D01*
X013245Y009674D02*
X013085Y009674D01*
X013085Y009556D02*
X013245Y009556D01*
X013299Y009437D02*
X013031Y009437D01*
X012913Y009319D02*
X013418Y009319D01*
X013445Y009200D02*
X012885Y009200D01*
X012885Y009082D02*
X013445Y009082D01*
X013445Y008963D02*
X012885Y008963D01*
X012885Y008845D02*
X013445Y008845D01*
X013372Y008726D02*
X012958Y008726D01*
X013044Y008608D02*
X013286Y008608D01*
X013245Y008489D02*
X013085Y008489D01*
X013085Y008371D02*
X013245Y008371D01*
X013245Y008252D02*
X013085Y008252D01*
X013085Y008133D02*
X013245Y008133D01*
X013245Y008015D02*
X013085Y008015D01*
X013085Y007896D02*
X013245Y007896D01*
X013263Y007778D02*
X013067Y007778D01*
X013013Y007659D02*
X013317Y007659D01*
X013445Y007541D02*
X012883Y007541D01*
X012448Y007541D02*
X011875Y007541D01*
X011885Y007546D02*
X011939Y007585D01*
X011986Y007632D01*
X012024Y007685D01*
X012054Y007744D01*
X012075Y007807D01*
X012085Y007872D01*
X012085Y008145D01*
X011685Y008145D01*
X011685Y007485D01*
X011698Y007485D01*
X011764Y007496D01*
X011826Y007516D01*
X011885Y007546D01*
X012006Y007659D02*
X012317Y007659D01*
X012263Y007778D02*
X012065Y007778D01*
X012085Y007896D02*
X012245Y007896D01*
X012245Y008015D02*
X012085Y008015D01*
X012085Y008133D02*
X012245Y008133D01*
X012245Y008252D02*
X012085Y008252D01*
X012085Y008185D02*
X012085Y008458D01*
X012075Y008524D01*
X012054Y008586D01*
X012024Y008645D01*
X011986Y008699D01*
X011939Y008746D01*
X011885Y008784D01*
X011826Y008814D01*
X011764Y008835D01*
X011698Y008845D01*
X011685Y008845D01*
X011685Y008185D01*
X012085Y008185D01*
X012085Y008371D02*
X012245Y008371D01*
X012245Y008489D02*
X012080Y008489D01*
X012044Y008608D02*
X012286Y008608D01*
X012372Y008726D02*
X011958Y008726D01*
X011685Y008726D02*
X011645Y008726D01*
X011645Y008608D02*
X011685Y008608D01*
X011685Y008489D02*
X011645Y008489D01*
X011645Y008371D02*
X011685Y008371D01*
X011685Y008252D02*
X011645Y008252D01*
X011645Y008185D02*
X011645Y008845D01*
X011632Y008845D01*
X011567Y008835D01*
X011504Y008814D01*
X011445Y008784D01*
X011392Y008746D01*
X011345Y008699D01*
X011306Y008645D01*
X011276Y008586D01*
X011256Y008524D01*
X011245Y008458D01*
X011245Y008185D01*
X011645Y008185D01*
X011645Y008145D01*
X011685Y008145D01*
X011685Y008185D01*
X011645Y008185D01*
X011645Y008145D02*
X011245Y008145D01*
X011245Y007872D01*
X011256Y007807D01*
X011276Y007744D01*
X011306Y007685D01*
X011345Y007632D01*
X011392Y007585D01*
X011445Y007546D01*
X011504Y007516D01*
X011567Y007496D01*
X011632Y007485D01*
X011645Y007485D01*
X011645Y008145D01*
X011645Y008133D02*
X011685Y008133D01*
X011685Y008015D02*
X011645Y008015D01*
X011645Y007896D02*
X011685Y007896D01*
X011685Y007778D02*
X011645Y007778D01*
X011645Y007659D02*
X011685Y007659D01*
X011685Y007541D02*
X011645Y007541D01*
X011455Y007541D02*
X010883Y007541D01*
X010903Y007549D02*
X011021Y007667D01*
X011085Y007822D01*
X011085Y008509D01*
X011021Y008663D01*
X010903Y008781D01*
X010749Y008845D01*
X010582Y008845D01*
X010427Y008781D01*
X010309Y008663D01*
X010245Y008509D01*
X010245Y007822D01*
X010309Y007667D01*
X010427Y007549D01*
X010582Y007485D01*
X010749Y007485D01*
X010903Y007549D01*
X011013Y007659D02*
X011325Y007659D01*
X011265Y007778D02*
X011067Y007778D01*
X011085Y007896D02*
X011245Y007896D01*
X011245Y008015D02*
X011085Y008015D01*
X011085Y008133D02*
X011245Y008133D01*
X011245Y008252D02*
X011085Y008252D01*
X011085Y008371D02*
X011245Y008371D01*
X011250Y008489D02*
X011085Y008489D01*
X011044Y008608D02*
X011287Y008608D01*
X011372Y008726D02*
X010958Y008726D01*
X010750Y008845D02*
X011629Y008845D01*
X011645Y008845D02*
X011685Y008845D01*
X011701Y008845D02*
X012445Y008845D01*
X012445Y008963D02*
X003961Y008963D01*
X003885Y009082D02*
X012445Y009082D01*
X012445Y009200D02*
X003885Y009200D01*
X003885Y009319D02*
X010418Y009319D01*
X010491Y009245D02*
X010645Y009245D01*
X010645Y009645D01*
X010245Y009645D01*
X010245Y009491D01*
X010491Y009245D01*
X010645Y009319D02*
X010685Y009319D01*
X010685Y009437D02*
X010645Y009437D01*
X010645Y009556D02*
X010685Y009556D01*
X010685Y009674D02*
X012245Y009674D01*
X012245Y009556D02*
X011085Y009556D01*
X011031Y009437D02*
X012299Y009437D01*
X012418Y009319D02*
X010913Y009319D01*
X010645Y009674D02*
X003885Y009674D01*
X003885Y009556D02*
X010245Y009556D01*
X010299Y009437D02*
X003885Y009437D01*
X003885Y009793D02*
X010245Y009793D01*
X010318Y009912D02*
X003885Y009912D01*
X003885Y010030D02*
X009989Y010030D01*
X009871Y010149D02*
X003885Y010149D01*
X003885Y010267D02*
X009752Y010267D01*
X009634Y010386D02*
X003885Y010386D01*
X003885Y010504D02*
X009515Y010504D01*
X009396Y010623D02*
X003885Y010623D01*
X003885Y010741D02*
X009278Y010741D01*
X008880Y010860D02*
X008450Y010860D01*
X008402Y010811D02*
X008519Y010929D01*
X008583Y011082D01*
X008583Y011248D01*
X008519Y011402D01*
X008402Y011519D01*
X008248Y011583D01*
X008082Y011583D01*
X007929Y011519D01*
X007811Y011402D01*
X007804Y011385D01*
X007526Y011385D01*
X007519Y011402D01*
X007402Y011519D01*
X007248Y011583D01*
X007082Y011583D01*
X006929Y011519D01*
X006811Y011402D01*
X006748Y011248D01*
X006748Y011082D01*
X006811Y010929D01*
X006929Y010811D01*
X007082Y010748D01*
X007248Y010748D01*
X007402Y010811D01*
X007519Y010929D01*
X007526Y010945D01*
X007804Y010945D01*
X007811Y010929D01*
X007929Y010811D01*
X008082Y010748D01*
X008248Y010748D01*
X008402Y010811D01*
X008540Y010978D02*
X008791Y010978D01*
X008748Y011097D02*
X008583Y011097D01*
X008583Y011216D02*
X008748Y011216D01*
X008783Y011334D02*
X008547Y011334D01*
X008468Y011453D02*
X008862Y011453D01*
X009054Y011571D02*
X008276Y011571D01*
X008054Y011571D02*
X007276Y011571D01*
X007220Y011690D02*
X007110Y011690D01*
X007110Y011808D02*
X007220Y011808D01*
X007220Y011927D02*
X007110Y011927D01*
X007220Y012045D02*
X012945Y012045D01*
X012945Y011927D02*
X007640Y011927D01*
X007639Y011808D02*
X012945Y011808D01*
X012879Y011690D02*
X007548Y011690D01*
X007468Y011453D02*
X007862Y011453D01*
X008165Y011165D02*
X007165Y011165D01*
X006880Y010860D02*
X006450Y010860D01*
X006540Y010978D02*
X006791Y010978D01*
X006748Y011097D02*
X006583Y011097D01*
X006583Y011216D02*
X006748Y011216D01*
X006783Y011334D02*
X006645Y011334D01*
X006764Y011453D02*
X006862Y011453D01*
X006882Y011571D02*
X007054Y011571D01*
X006665Y011665D02*
X006165Y011165D01*
X005880Y010860D02*
X005450Y010860D01*
X005540Y010978D02*
X005791Y010978D01*
X005748Y011097D02*
X005583Y011097D01*
X005583Y011216D02*
X005748Y011216D01*
X005783Y011334D02*
X005645Y011334D01*
X005764Y011453D02*
X005862Y011453D01*
X005882Y011571D02*
X006054Y011571D01*
X006110Y011690D02*
X006220Y011690D01*
X006220Y011808D02*
X006110Y011808D01*
X006110Y011927D02*
X006220Y011927D01*
X006665Y011665D02*
X006665Y012665D01*
X007165Y012665D01*
X007640Y012638D02*
X009745Y012638D01*
X009745Y012645D02*
X009745Y012491D01*
X009991Y012245D01*
X010145Y012245D01*
X010145Y012645D01*
X009745Y012645D01*
X009745Y012685D02*
X010145Y012685D01*
X010145Y012645D01*
X010185Y012645D01*
X010185Y012245D01*
X010339Y012245D01*
X010585Y012491D01*
X010585Y012645D01*
X010185Y012645D01*
X010185Y012685D01*
X010145Y012685D01*
X010145Y013085D01*
X009991Y013085D01*
X009745Y012839D01*
X009745Y012685D01*
X009745Y012757D02*
X007640Y012757D01*
X007640Y012875D02*
X009781Y012875D01*
X009900Y012994D02*
X007640Y012994D01*
X007640Y013112D02*
X012190Y013112D01*
X012190Y013145D02*
X012190Y012968D01*
X012468Y012690D01*
X012645Y012690D01*
X012645Y013145D01*
X012190Y013145D01*
X012190Y013231D02*
X007640Y013231D01*
X007640Y013349D02*
X012190Y013349D01*
X012190Y012994D02*
X010431Y012994D01*
X010339Y013085D02*
X010585Y012839D01*
X010585Y012685D01*
X010185Y012685D01*
X010185Y013085D01*
X010339Y013085D01*
X010185Y012994D02*
X010145Y012994D01*
X010145Y012875D02*
X010185Y012875D01*
X010185Y012757D02*
X010145Y012757D01*
X010145Y012638D02*
X010185Y012638D01*
X010185Y012520D02*
X010145Y012520D01*
X010145Y012401D02*
X010185Y012401D01*
X010185Y012282D02*
X010145Y012282D01*
X009954Y012282D02*
X007640Y012282D01*
X007640Y012164D02*
X012945Y012164D01*
X012945Y012282D02*
X010376Y012282D01*
X010495Y012401D02*
X012945Y012401D01*
X012945Y012520D02*
X010585Y012520D01*
X010585Y012638D02*
X012945Y012638D01*
X012946Y012757D02*
X012928Y012757D01*
X013047Y012875D02*
X013064Y012875D01*
X013140Y012994D02*
X013190Y012994D01*
X013190Y013112D02*
X013140Y013112D01*
X013140Y013231D02*
X013190Y013231D01*
X013190Y013349D02*
X013140Y013349D01*
X013665Y013265D02*
X013665Y013665D01*
X014665Y013665D01*
X014665Y013265D01*
X014665Y013665D02*
X015665Y013665D01*
X015665Y013265D01*
X015665Y013665D02*
X017665Y013665D01*
X018665Y014665D01*
X018665Y015165D01*
X017665Y016165D01*
X017341Y016431D02*
X016989Y016431D01*
X017019Y016402D02*
X016945Y016476D01*
X016945Y017109D01*
X016945Y017221D01*
X016903Y017324D01*
X016445Y017781D01*
X016445Y018002D01*
X016552Y018110D01*
X016622Y018277D01*
X016622Y019053D01*
X016552Y019221D01*
X016424Y019349D01*
X016256Y019419D01*
X016074Y019419D01*
X015906Y019349D01*
X015778Y019221D01*
X015708Y019053D01*
X015708Y018277D01*
X015778Y018110D01*
X015885Y018002D01*
X015885Y017609D01*
X015928Y017507D01*
X016007Y017428D01*
X016385Y017049D01*
X016385Y016476D01*
X016311Y016402D01*
X016248Y016248D01*
X016248Y016082D01*
X016311Y015929D01*
X016429Y015811D01*
X016582Y015748D01*
X016748Y015748D01*
X016902Y015811D01*
X017019Y015929D01*
X017083Y016082D01*
X017083Y016248D01*
X017019Y016402D01*
X017056Y016313D02*
X017275Y016313D01*
X017248Y016194D02*
X017083Y016194D01*
X017080Y016076D02*
X017250Y016076D01*
X017299Y015957D02*
X017031Y015957D01*
X016929Y015839D02*
X017401Y015839D01*
X017799Y015720D02*
X011385Y015720D01*
X011385Y015602D02*
X017918Y015602D01*
X018036Y015483D02*
X011385Y015483D01*
X011385Y015365D02*
X018155Y015365D01*
X018273Y015246D02*
X011385Y015246D01*
X011385Y015127D02*
X018392Y015127D01*
X018415Y015009D02*
X011385Y015009D01*
X011385Y014890D02*
X018296Y014890D01*
X018245Y014772D02*
X011385Y014772D01*
X011385Y014653D02*
X018245Y014653D01*
X018224Y014535D02*
X012967Y014535D01*
X013075Y014416D02*
X018105Y014416D01*
X017987Y014298D02*
X013124Y014298D01*
X013140Y014179D02*
X017868Y014179D01*
X017749Y014061D02*
X013136Y014061D01*
X013087Y013942D02*
X017631Y013942D01*
X017898Y013586D02*
X020005Y013586D01*
X020005Y013468D02*
X017779Y013468D01*
X018016Y013705D02*
X020005Y013705D01*
X020005Y013824D02*
X018135Y013824D01*
X018253Y013942D02*
X020005Y013942D01*
X020005Y014061D02*
X018372Y014061D01*
X018490Y014179D02*
X020005Y014179D01*
X020005Y014298D02*
X018892Y014298D01*
X019010Y014416D02*
X020005Y014416D01*
X020005Y014535D02*
X019085Y014535D01*
X019085Y014653D02*
X020005Y014653D01*
X020005Y014772D02*
X019085Y014772D01*
X019034Y014890D02*
X020005Y014890D01*
X020005Y015009D02*
X018915Y015009D01*
X018885Y015127D02*
X020005Y015127D01*
X020005Y015246D02*
X018885Y015246D01*
X018777Y015365D02*
X020005Y015365D01*
X020005Y015483D02*
X018658Y015483D01*
X018540Y015602D02*
X020005Y015602D01*
X020005Y015720D02*
X018421Y015720D01*
X018446Y015808D02*
X018505Y015778D01*
X018567Y015758D01*
X018632Y015748D01*
X018646Y015748D01*
X018646Y016146D01*
X018248Y016146D01*
X018248Y016132D01*
X018258Y016067D01*
X018278Y016005D01*
X018308Y015946D01*
X018347Y015893D01*
X018393Y015847D01*
X018446Y015808D01*
X018404Y015839D02*
X018303Y015839D01*
X018303Y015957D02*
X018184Y015957D01*
X018257Y016076D02*
X018080Y016076D01*
X018083Y016194D02*
X018248Y016194D01*
X018248Y016198D02*
X018248Y016184D01*
X018646Y016184D01*
X018646Y016146D01*
X018684Y016146D01*
X018684Y015748D01*
X018698Y015748D01*
X018763Y015758D01*
X018825Y015778D01*
X018884Y015808D01*
X018937Y015847D01*
X018984Y015893D01*
X019022Y015946D01*
X019052Y016005D01*
X019072Y016067D01*
X019083Y016132D01*
X019083Y016146D01*
X018684Y016146D01*
X018684Y016184D01*
X018646Y016184D01*
X018646Y016583D01*
X018632Y016583D01*
X018567Y016572D01*
X018505Y016552D01*
X018446Y016522D01*
X018393Y016484D01*
X018347Y016437D01*
X018308Y016384D01*
X018278Y016325D01*
X018258Y016263D01*
X018248Y016198D01*
X018274Y016313D02*
X018056Y016313D01*
X017989Y016431D02*
X018343Y016431D01*
X018501Y016550D02*
X017827Y016550D01*
X017503Y016550D02*
X016945Y016550D01*
X016945Y016669D02*
X020005Y016669D01*
X020005Y016787D02*
X018659Y016787D01*
X018684Y016583D02*
X018684Y016184D01*
X019083Y016184D01*
X019083Y016198D01*
X019072Y016263D01*
X019052Y016325D01*
X019022Y016384D01*
X018984Y016437D01*
X018937Y016484D01*
X018884Y016522D01*
X018825Y016552D01*
X018763Y016572D01*
X018698Y016583D01*
X018684Y016583D01*
X018684Y016550D02*
X018646Y016550D01*
X018646Y016431D02*
X018684Y016431D01*
X018684Y016313D02*
X018646Y016313D01*
X018646Y016194D02*
X018684Y016194D01*
X018684Y016076D02*
X018646Y016076D01*
X018646Y015957D02*
X018684Y015957D01*
X018684Y015839D02*
X018646Y015839D01*
X018926Y015839D02*
X020005Y015839D01*
X020005Y015957D02*
X019028Y015957D01*
X019074Y016076D02*
X020005Y016076D01*
X020005Y016194D02*
X019083Y016194D01*
X019056Y016313D02*
X020005Y016313D01*
X020005Y016431D02*
X018988Y016431D01*
X018829Y016550D02*
X020005Y016550D01*
X020005Y016906D02*
X019083Y016906D01*
X019022Y016870D02*
X019022Y016870D01*
X019289Y017024D02*
X020005Y017024D01*
X020005Y017143D02*
X019474Y017143D01*
X019450Y017117D02*
X019450Y017117D01*
X019584Y017261D02*
X020005Y017261D01*
X020005Y017380D02*
X019694Y017380D01*
X019787Y017480D02*
X019787Y017480D01*
X019795Y017498D02*
X020005Y017498D01*
X020005Y017617D02*
X019853Y017617D01*
X019910Y017735D02*
X020005Y017735D01*
X020005Y017854D02*
X019967Y017854D01*
X020001Y017926D02*
X020001Y017926D01*
X018176Y016787D02*
X016945Y016787D01*
X016945Y016906D02*
X017769Y016906D01*
X017527Y017024D02*
X016945Y017024D01*
X016945Y017143D02*
X017378Y017143D01*
X017229Y017261D02*
X016928Y017261D01*
X016846Y017380D02*
X017134Y017380D01*
X017054Y017498D02*
X016728Y017498D01*
X016609Y017617D02*
X016973Y017617D01*
X016920Y017695D02*
X016920Y017695D01*
X016907Y017735D02*
X016491Y017735D01*
X016445Y017854D02*
X016871Y017854D01*
X016834Y017973D02*
X016445Y017973D01*
X016534Y018091D02*
X016797Y018091D01*
X016774Y018210D02*
X016594Y018210D01*
X016622Y018328D02*
X016774Y018328D01*
X016774Y018447D02*
X016622Y018447D01*
X016622Y018565D02*
X016774Y018565D01*
X016780Y018684D02*
X016622Y018684D01*
X016622Y018802D02*
X016817Y018802D01*
X016853Y018921D02*
X016622Y018921D01*
X016622Y019039D02*
X016890Y019039D01*
X016920Y019135D02*
X016920Y019135D01*
X016935Y019158D02*
X016579Y019158D01*
X016497Y019276D02*
X017016Y019276D01*
X017097Y019395D02*
X016314Y019395D01*
X016017Y019395D02*
X015314Y019395D01*
X015256Y019419D02*
X015074Y019419D01*
X014906Y019349D01*
X014778Y019221D01*
X014708Y019053D01*
X014708Y018277D01*
X014778Y018110D01*
X014885Y018002D01*
X014885Y017609D01*
X014928Y017507D01*
X015007Y017428D01*
X015385Y017049D01*
X015385Y016476D01*
X015311Y016402D01*
X015248Y016248D01*
X015248Y016082D01*
X015311Y015929D01*
X015429Y015811D01*
X015582Y015748D01*
X015748Y015748D01*
X015902Y015811D01*
X016019Y015929D01*
X016083Y016082D01*
X016083Y016248D01*
X016019Y016402D01*
X015945Y016476D01*
X015945Y017109D01*
X015945Y017221D01*
X015903Y017324D01*
X015445Y017781D01*
X015445Y018002D01*
X015552Y018110D01*
X015622Y018277D01*
X015622Y019053D01*
X015552Y019221D01*
X015424Y019349D01*
X015256Y019419D01*
X015017Y019395D02*
X014314Y019395D01*
X014256Y019419D02*
X014074Y019419D01*
X013906Y019349D01*
X013778Y019221D01*
X013708Y019053D01*
X013708Y018277D01*
X013778Y018110D01*
X013885Y018002D01*
X013885Y017609D01*
X013928Y017507D01*
X014007Y017428D01*
X014385Y017049D01*
X014385Y016476D01*
X014311Y016402D01*
X014248Y016248D01*
X014248Y016082D01*
X014311Y015929D01*
X014429Y015811D01*
X014582Y015748D01*
X014748Y015748D01*
X014902Y015811D01*
X015019Y015929D01*
X015083Y016082D01*
X015083Y016248D01*
X015019Y016402D01*
X014945Y016476D01*
X014945Y017109D01*
X014945Y017221D01*
X014903Y017324D01*
X014445Y017781D01*
X014445Y018002D01*
X014552Y018110D01*
X014622Y018277D01*
X014622Y019053D01*
X014552Y019221D01*
X014424Y019349D01*
X014256Y019419D01*
X014017Y019395D02*
X013314Y019395D01*
X013256Y019419D02*
X013074Y019419D01*
X012906Y019349D01*
X012778Y019221D01*
X012708Y019053D01*
X012708Y018277D01*
X012778Y018110D01*
X012885Y018002D01*
X012885Y017609D01*
X012928Y017507D01*
X013007Y017428D01*
X013385Y017049D01*
X013385Y016476D01*
X013311Y016402D01*
X013248Y016248D01*
X013248Y016082D01*
X013311Y015929D01*
X013429Y015811D01*
X013582Y015748D01*
X013748Y015748D01*
X013902Y015811D01*
X014019Y015929D01*
X014083Y016082D01*
X014083Y016248D01*
X014019Y016402D01*
X013945Y016476D01*
X013945Y017109D01*
X013945Y017221D01*
X013903Y017324D01*
X013445Y017781D01*
X013445Y018002D01*
X013552Y018110D01*
X013622Y018277D01*
X013622Y019053D01*
X013552Y019221D01*
X013424Y019349D01*
X013256Y019419D01*
X013017Y019395D02*
X011564Y019395D01*
X011747Y019276D02*
X012834Y019276D01*
X012752Y019158D02*
X011829Y019158D01*
X011872Y019039D02*
X012708Y019039D01*
X012708Y018921D02*
X011872Y018921D01*
X011872Y018802D02*
X012708Y018802D01*
X012708Y018684D02*
X011872Y018684D01*
X011872Y018565D02*
X012708Y018565D01*
X012708Y018447D02*
X011872Y018447D01*
X011872Y018328D02*
X012708Y018328D01*
X012736Y018210D02*
X011844Y018210D01*
X011784Y018091D02*
X012796Y018091D01*
X012885Y017973D02*
X011653Y017973D01*
X011635Y017854D02*
X012885Y017854D01*
X012885Y017735D02*
X011635Y017735D01*
X011635Y017617D02*
X012885Y017617D01*
X012936Y017498D02*
X011635Y017498D01*
X011635Y017380D02*
X013055Y017380D01*
X013173Y017261D02*
X011635Y017261D01*
X011635Y017143D02*
X013292Y017143D01*
X013385Y017024D02*
X011635Y017024D01*
X011635Y016906D02*
X013385Y016906D01*
X013385Y016787D02*
X011598Y016787D01*
X011480Y016669D02*
X013385Y016669D01*
X013385Y016550D02*
X012829Y016550D01*
X012825Y016552D02*
X012763Y016572D01*
X012698Y016583D01*
X012684Y016583D01*
X012684Y016184D01*
X012646Y016184D01*
X012646Y016146D01*
X012248Y016146D01*
X012248Y016132D01*
X012258Y016067D01*
X012278Y016005D01*
X012308Y015946D01*
X012347Y015893D01*
X012393Y015847D01*
X012446Y015808D01*
X012505Y015778D01*
X012567Y015758D01*
X012632Y015748D01*
X012646Y015748D01*
X012646Y016146D01*
X012684Y016146D01*
X012684Y015748D01*
X012698Y015748D01*
X012763Y015758D01*
X012825Y015778D01*
X012884Y015808D01*
X012937Y015847D01*
X012984Y015893D01*
X013022Y015946D01*
X013052Y016005D01*
X013072Y016067D01*
X013083Y016132D01*
X013083Y016146D01*
X012684Y016146D01*
X012684Y016184D01*
X013083Y016184D01*
X013083Y016198D01*
X013072Y016263D01*
X013052Y016325D01*
X013022Y016384D01*
X012984Y016437D01*
X012937Y016484D01*
X012884Y016522D01*
X012825Y016552D01*
X012684Y016550D02*
X012646Y016550D01*
X012646Y016583D02*
X012632Y016583D01*
X012567Y016572D01*
X012505Y016552D01*
X012446Y016522D01*
X012393Y016484D01*
X012347Y016437D01*
X012308Y016384D01*
X012278Y016325D01*
X012258Y016263D01*
X012248Y016198D01*
X012248Y016184D01*
X012646Y016184D01*
X012646Y016583D01*
X012501Y016550D02*
X011827Y016550D01*
X011989Y016431D02*
X012343Y016431D01*
X012274Y016313D02*
X012056Y016313D01*
X012083Y016194D02*
X012248Y016194D01*
X012257Y016076D02*
X012080Y016076D01*
X012031Y015957D02*
X012303Y015957D01*
X012404Y015839D02*
X011929Y015839D01*
X011401Y015839D02*
X011385Y015839D01*
X010945Y015839D02*
X010426Y015839D01*
X010437Y015847D02*
X010484Y015893D01*
X010522Y015946D01*
X010552Y016005D01*
X010572Y016067D01*
X010583Y016132D01*
X010583Y016146D01*
X010184Y016146D01*
X010184Y015748D01*
X010198Y015748D01*
X010263Y015758D01*
X010325Y015778D01*
X010384Y015808D01*
X010437Y015847D01*
X010528Y015957D02*
X010945Y015957D01*
X010945Y016076D02*
X010574Y016076D01*
X010583Y016184D02*
X010583Y016198D01*
X010572Y016263D01*
X010552Y016325D01*
X010522Y016384D01*
X010484Y016437D01*
X010437Y016484D01*
X010384Y016522D01*
X010325Y016552D01*
X010263Y016572D01*
X010198Y016583D01*
X010184Y016583D01*
X010184Y016184D01*
X010146Y016184D01*
X010146Y016146D01*
X009748Y016146D01*
X009748Y016132D01*
X009758Y016067D01*
X009778Y016005D01*
X009808Y015946D01*
X009847Y015893D01*
X009893Y015847D01*
X009946Y015808D01*
X010005Y015778D01*
X010067Y015758D01*
X010132Y015748D01*
X010146Y015748D01*
X010146Y016146D01*
X010184Y016146D01*
X010184Y016184D01*
X010583Y016184D01*
X010583Y016194D02*
X010945Y016194D01*
X010945Y016313D02*
X010556Y016313D01*
X010488Y016431D02*
X010945Y016431D01*
X010945Y016550D02*
X010329Y016550D01*
X010184Y016550D02*
X010146Y016550D01*
X010146Y016583D02*
X010132Y016583D01*
X010067Y016572D01*
X010005Y016552D01*
X009946Y016522D01*
X009893Y016484D01*
X009847Y016437D01*
X009808Y016384D01*
X009778Y016325D01*
X009758Y016263D01*
X009748Y016198D01*
X009748Y016184D01*
X010146Y016184D01*
X010146Y016583D01*
X010001Y016550D02*
X009327Y016550D01*
X009489Y016431D02*
X009843Y016431D01*
X009774Y016313D02*
X009556Y016313D01*
X009583Y016194D02*
X009748Y016194D01*
X009757Y016076D02*
X009580Y016076D01*
X009531Y015957D02*
X009803Y015957D01*
X009904Y015839D02*
X009429Y015839D01*
X009421Y015720D02*
X010945Y015720D01*
X010945Y015602D02*
X009540Y015602D01*
X009658Y015483D02*
X010945Y015483D01*
X010945Y015365D02*
X009777Y015365D01*
X009895Y015246D02*
X010945Y015246D01*
X010945Y015127D02*
X010014Y015127D01*
X010415Y015009D02*
X010945Y015009D01*
X010945Y014890D02*
X010534Y014890D01*
X010585Y014772D02*
X010945Y014772D01*
X010945Y014653D02*
X010585Y014653D01*
X010585Y014535D02*
X010945Y014535D01*
X010945Y014416D02*
X010510Y014416D01*
X010392Y014298D02*
X010945Y014298D01*
X010945Y014179D02*
X010385Y014179D01*
X010385Y014061D02*
X010945Y014061D01*
X010945Y013942D02*
X010385Y013942D01*
X010165Y013665D02*
X007165Y013665D01*
X007165Y013265D01*
X007165Y013665D02*
X006165Y013665D01*
X006165Y013265D01*
X006165Y013665D02*
X005165Y013665D01*
X005165Y013265D01*
X005165Y013665D02*
X003665Y013665D01*
X003665Y008665D01*
X003665Y007665D01*
X004665Y006665D01*
X009165Y006665D01*
X009385Y006355D02*
X011445Y006355D01*
X011445Y006237D02*
X009385Y006237D01*
X009385Y006118D02*
X011445Y006118D01*
X011445Y006000D02*
X009385Y006000D01*
X009385Y005881D02*
X011445Y005881D01*
X011409Y005763D02*
X010922Y005763D01*
X010903Y005781D02*
X010749Y005845D01*
X010582Y005845D01*
X010427Y005781D01*
X010309Y005663D01*
X010245Y005509D01*
X010245Y004822D01*
X010309Y004667D01*
X010427Y004549D01*
X010582Y004485D01*
X010749Y004485D01*
X010903Y004549D01*
X011021Y004667D01*
X011085Y004822D01*
X011085Y005509D01*
X011021Y005663D01*
X010903Y005781D01*
X011029Y005644D02*
X011301Y005644D01*
X011252Y005525D02*
X011078Y005525D01*
X011085Y005407D02*
X011245Y005407D01*
X011245Y005288D02*
X011085Y005288D01*
X011085Y005170D02*
X011245Y005170D01*
X011245Y005051D02*
X011085Y005051D01*
X011085Y004933D02*
X011245Y004933D01*
X011248Y004814D02*
X011082Y004814D01*
X011033Y004696D02*
X011297Y004696D01*
X011399Y004577D02*
X010931Y004577D01*
X011445Y004459D02*
X009270Y004459D01*
X009385Y004577D02*
X009399Y004577D01*
X009165Y004665D02*
X008915Y004415D01*
X008165Y004415D01*
X007915Y004165D01*
X007915Y003715D01*
X008299Y004103D02*
X011292Y004103D01*
X011410Y004221D02*
X009033Y004221D01*
X008991Y004085D02*
X008745Y003839D01*
X008745Y003685D01*
X009145Y003685D01*
X009145Y003645D01*
X009185Y003645D01*
X009185Y003245D01*
X009339Y003245D01*
X009585Y003491D01*
X009585Y003645D01*
X009185Y003645D01*
X009185Y003685D01*
X009585Y003685D01*
X009585Y003839D01*
X009339Y004085D01*
X009185Y004085D01*
X009185Y003685D01*
X009145Y003685D01*
X009145Y004085D01*
X008991Y004085D01*
X008890Y003984D02*
X008390Y003984D01*
X008390Y003866D02*
X008772Y003866D01*
X008745Y003747D02*
X008390Y003747D01*
X008390Y003629D02*
X008745Y003629D01*
X008745Y003645D02*
X008745Y003491D01*
X008991Y003245D01*
X009145Y003245D01*
X009145Y003645D01*
X008745Y003645D01*
X008745Y003510D02*
X008390Y003510D01*
X008390Y003392D02*
X008845Y003392D01*
X008963Y003273D02*
X008390Y003273D01*
X008390Y003155D02*
X012795Y003155D01*
X012795Y003082D02*
X012795Y003249D01*
X012859Y003403D01*
X012977Y003521D01*
X013132Y003585D01*
X013299Y003585D01*
X013317Y003578D01*
X013445Y003706D01*
X013445Y004542D01*
X013427Y004549D01*
X013309Y004667D01*
X013245Y004822D01*
X013245Y005509D01*
X013309Y005663D01*
X013427Y005781D01*
X013582Y005845D01*
X013749Y005845D01*
X013903Y005781D01*
X014021Y005663D01*
X014085Y005509D01*
X014085Y004822D01*
X014021Y004667D01*
X013903Y004549D01*
X013885Y004542D01*
X013885Y003706D01*
X013885Y003524D01*
X013628Y003267D01*
X013635Y003249D01*
X013635Y003082D01*
X013571Y002927D01*
X013453Y002809D01*
X013299Y002745D01*
X013132Y002745D01*
X013114Y002753D01*
X012885Y002524D01*
X012885Y002039D01*
X013085Y001839D01*
X013085Y001491D01*
X012839Y001245D01*
X012491Y001245D01*
X012245Y001491D01*
X012245Y001839D01*
X012445Y002039D01*
X012445Y002524D01*
X012445Y002706D01*
X012803Y003064D01*
X012795Y003082D01*
X012775Y003036D02*
X008390Y003036D01*
X008390Y002918D02*
X012656Y002918D01*
X012538Y002799D02*
X008370Y002799D01*
X008135Y002680D02*
X012445Y002680D01*
X012445Y002562D02*
X010418Y002562D01*
X010414Y002577D02*
X010425Y002536D01*
X010425Y002204D01*
X009954Y002204D01*
X009954Y002675D01*
X010286Y002675D01*
X010327Y002664D01*
X010363Y002643D01*
X010393Y002613D01*
X010414Y002577D01*
X010425Y002443D02*
X012445Y002443D01*
X012445Y002325D02*
X010425Y002325D01*
X010425Y002206D02*
X012445Y002206D01*
X012445Y002088D02*
X010425Y002088D01*
X010425Y001969D02*
X012375Y001969D01*
X012257Y001851D02*
X010425Y001851D01*
X010402Y001732D02*
X012245Y001732D01*
X012245Y001614D02*
X007635Y001614D01*
X007556Y001495D02*
X012245Y001495D01*
X012360Y001376D02*
X007438Y001376D01*
X007319Y001258D02*
X012479Y001258D01*
X012665Y001665D02*
X012665Y002615D01*
X013215Y003165D01*
X013665Y003615D01*
X013665Y005165D01*
X013245Y005170D02*
X012685Y005170D01*
X012685Y005185D02*
X013085Y005185D01*
X013085Y005458D01*
X013075Y005524D01*
X013054Y005586D01*
X013024Y005645D01*
X012986Y005699D01*
X012939Y005746D01*
X012885Y005784D01*
X012826Y005814D01*
X012764Y005835D01*
X012698Y005845D01*
X012685Y005845D01*
X012685Y005185D01*
X012685Y005145D01*
X012685Y004485D01*
X012698Y004485D01*
X012764Y004496D01*
X012826Y004516D01*
X012885Y004546D01*
X012939Y004585D01*
X012986Y004632D01*
X013024Y004685D01*
X013054Y004744D01*
X013075Y004807D01*
X013085Y004872D01*
X013085Y005145D01*
X012685Y005145D01*
X012645Y005145D01*
X012645Y004485D01*
X012632Y004485D01*
X012567Y004496D01*
X012504Y004516D01*
X012445Y004546D01*
X012392Y004585D01*
X012345Y004632D01*
X012306Y004685D01*
X012276Y004744D01*
X012256Y004807D01*
X012245Y004872D01*
X012245Y005145D01*
X012645Y005145D01*
X012645Y005185D01*
X012245Y005185D01*
X012245Y005458D01*
X012256Y005524D01*
X012276Y005586D01*
X012306Y005645D01*
X012345Y005699D01*
X012392Y005746D01*
X012445Y005784D01*
X012504Y005814D01*
X012567Y005835D01*
X012632Y005845D01*
X012645Y005845D01*
X012645Y005185D01*
X012685Y005185D01*
X012645Y005170D02*
X012085Y005170D01*
X012085Y005288D02*
X012245Y005288D01*
X012245Y005407D02*
X012085Y005407D01*
X012078Y005525D02*
X012256Y005525D01*
X012305Y005644D02*
X012029Y005644D01*
X011922Y005763D02*
X012415Y005763D01*
X012645Y005763D02*
X012685Y005763D01*
X012685Y005644D02*
X012645Y005644D01*
X012645Y005525D02*
X012685Y005525D01*
X012685Y005407D02*
X012645Y005407D01*
X012645Y005288D02*
X012685Y005288D01*
X012685Y005051D02*
X012645Y005051D01*
X012645Y004933D02*
X012685Y004933D01*
X012685Y004814D02*
X012645Y004814D01*
X012645Y004696D02*
X012685Y004696D01*
X012685Y004577D02*
X012645Y004577D01*
X012402Y004577D02*
X011931Y004577D01*
X011885Y004459D02*
X013445Y004459D01*
X013445Y004340D02*
X011885Y004340D01*
X011885Y004221D02*
X013445Y004221D01*
X013445Y004103D02*
X011885Y004103D01*
X011796Y003984D02*
X013445Y003984D01*
X013445Y003866D02*
X011677Y003866D01*
X011585Y003747D02*
X013445Y003747D01*
X013368Y003629D02*
X011585Y003629D01*
X011585Y003510D02*
X012966Y003510D01*
X012854Y003392D02*
X011486Y003392D01*
X011367Y003273D02*
X012805Y003273D01*
X013041Y002680D02*
X015289Y002680D01*
X015217Y002753D02*
X015199Y002745D01*
X015032Y002745D01*
X014877Y002809D01*
X014759Y002927D01*
X014695Y003082D01*
X014695Y003249D01*
X014703Y003267D01*
X014445Y003524D01*
X014445Y003706D01*
X014445Y004542D01*
X014427Y004549D01*
X014309Y004667D01*
X014245Y004822D01*
X014245Y005509D01*
X014309Y005663D01*
X014427Y005781D01*
X014582Y005845D01*
X014749Y005845D01*
X014903Y005781D01*
X015021Y005663D01*
X015085Y005509D01*
X015085Y004822D01*
X015021Y004667D01*
X014903Y004549D01*
X014885Y004542D01*
X014885Y003706D01*
X015014Y003578D01*
X015032Y003585D01*
X015199Y003585D01*
X015353Y003521D01*
X015471Y003403D01*
X015535Y003249D01*
X015535Y003082D01*
X015528Y003064D01*
X015885Y002706D01*
X015885Y002524D01*
X015885Y002039D01*
X016085Y001839D01*
X016085Y001491D01*
X015839Y001245D01*
X015491Y001245D01*
X015245Y001491D01*
X015245Y001839D01*
X015445Y002039D01*
X015445Y002524D01*
X015217Y002753D01*
X015407Y002562D02*
X012923Y002562D01*
X012885Y002443D02*
X015445Y002443D01*
X015445Y002325D02*
X012885Y002325D01*
X012885Y002206D02*
X015445Y002206D01*
X015445Y002088D02*
X012885Y002088D01*
X012955Y001969D02*
X013375Y001969D01*
X013491Y002085D02*
X013245Y001839D01*
X013245Y001685D01*
X013645Y001685D01*
X013645Y001645D01*
X013685Y001645D01*
X013685Y001245D01*
X013839Y001245D01*
X014085Y001491D01*
X014085Y001645D01*
X013685Y001645D01*
X013685Y001685D01*
X014085Y001685D01*
X014085Y001839D01*
X013839Y002085D01*
X013685Y002085D01*
X013685Y001685D01*
X013645Y001685D01*
X013645Y002085D01*
X013491Y002085D01*
X013645Y001969D02*
X013685Y001969D01*
X013685Y001851D02*
X013645Y001851D01*
X013645Y001732D02*
X013685Y001732D01*
X013645Y001645D02*
X013245Y001645D01*
X013245Y001491D01*
X013491Y001245D01*
X013645Y001245D01*
X013645Y001645D01*
X013645Y001614D02*
X013685Y001614D01*
X013685Y001495D02*
X013645Y001495D01*
X013645Y001376D02*
X013685Y001376D01*
X013685Y001258D02*
X013645Y001258D01*
X013479Y001258D02*
X012852Y001258D01*
X012970Y001376D02*
X013360Y001376D01*
X013245Y001495D02*
X013085Y001495D01*
X013085Y001614D02*
X013245Y001614D01*
X013245Y001732D02*
X013085Y001732D01*
X013074Y001851D02*
X013257Y001851D01*
X013955Y001969D02*
X014375Y001969D01*
X014491Y002085D02*
X014245Y001839D01*
X014245Y001685D01*
X014645Y001685D01*
X014645Y001645D01*
X014685Y001645D01*
X014685Y001245D01*
X014839Y001245D01*
X015085Y001491D01*
X015085Y001645D01*
X014685Y001645D01*
X014685Y001685D01*
X015085Y001685D01*
X015085Y001839D01*
X014839Y002085D01*
X014685Y002085D01*
X014685Y001685D01*
X014645Y001685D01*
X014645Y002085D01*
X014491Y002085D01*
X014645Y001969D02*
X014685Y001969D01*
X014685Y001851D02*
X014645Y001851D01*
X014645Y001732D02*
X014685Y001732D01*
X014645Y001645D02*
X014245Y001645D01*
X014245Y001491D01*
X014491Y001245D01*
X014645Y001245D01*
X014645Y001645D01*
X014645Y001614D02*
X014685Y001614D01*
X014685Y001495D02*
X014645Y001495D01*
X014645Y001376D02*
X014685Y001376D01*
X014685Y001258D02*
X014645Y001258D01*
X014479Y001258D02*
X013852Y001258D01*
X013970Y001376D02*
X014360Y001376D01*
X014245Y001495D02*
X014085Y001495D01*
X014085Y001614D02*
X014245Y001614D01*
X014245Y001732D02*
X014085Y001732D01*
X014074Y001851D02*
X014257Y001851D01*
X014955Y001969D02*
X015375Y001969D01*
X015257Y001851D02*
X015074Y001851D01*
X015085Y001732D02*
X015245Y001732D01*
X015245Y001614D02*
X015085Y001614D01*
X015085Y001495D02*
X015245Y001495D01*
X015360Y001376D02*
X014970Y001376D01*
X014852Y001258D02*
X015479Y001258D01*
X015665Y001665D02*
X015665Y002615D01*
X015115Y003165D01*
X014665Y003615D01*
X014665Y005165D01*
X014245Y005170D02*
X014085Y005170D01*
X014085Y005288D02*
X014245Y005288D01*
X014245Y005407D02*
X014085Y005407D01*
X014078Y005525D02*
X014252Y005525D01*
X014301Y005644D02*
X014029Y005644D01*
X013922Y005763D02*
X014409Y005763D01*
X014922Y005763D02*
X015409Y005763D01*
X015427Y005781D02*
X015309Y005663D01*
X015245Y005509D01*
X015245Y004822D01*
X015309Y004667D01*
X015427Y004549D01*
X015582Y004485D01*
X015749Y004485D01*
X015903Y004549D01*
X016021Y004667D01*
X016085Y004822D01*
X016085Y005509D01*
X016021Y005663D01*
X015903Y005781D01*
X015749Y005845D01*
X015582Y005845D01*
X015427Y005781D01*
X015301Y005644D02*
X015029Y005644D01*
X015078Y005525D02*
X015252Y005525D01*
X015245Y005407D02*
X015085Y005407D01*
X015085Y005288D02*
X015245Y005288D01*
X015245Y005170D02*
X015085Y005170D01*
X015085Y005051D02*
X015245Y005051D01*
X015245Y004933D02*
X015085Y004933D01*
X015082Y004814D02*
X015248Y004814D01*
X015297Y004696D02*
X015033Y004696D01*
X014931Y004577D02*
X015399Y004577D01*
X014885Y004459D02*
X020005Y004459D01*
X020005Y004577D02*
X018931Y004577D01*
X019033Y004696D02*
X020005Y004696D01*
X020005Y004814D02*
X019082Y004814D01*
X019085Y004933D02*
X020005Y004933D01*
X020005Y005051D02*
X019085Y005051D01*
X019085Y005170D02*
X020005Y005170D01*
X020005Y005288D02*
X019085Y005288D01*
X019085Y005407D02*
X020005Y005407D01*
X020005Y005525D02*
X019078Y005525D01*
X019029Y005644D02*
X020005Y005644D01*
X020005Y005763D02*
X018922Y005763D01*
X018885Y005881D02*
X020005Y005881D01*
X020005Y006000D02*
X018885Y006000D01*
X018929Y006118D02*
X020005Y006118D01*
X020005Y006237D02*
X019048Y006237D01*
X019166Y006355D02*
X020005Y006355D01*
X020005Y006474D02*
X019285Y006474D01*
X019385Y006592D02*
X020005Y006592D01*
X020005Y006711D02*
X019385Y006711D01*
X019385Y006829D02*
X020005Y006829D01*
X020005Y006948D02*
X019385Y006948D01*
X019385Y007067D02*
X020005Y007067D01*
X020005Y007185D02*
X019385Y007185D01*
X019385Y007304D02*
X020005Y007304D01*
X020005Y007422D02*
X019385Y007422D01*
X019385Y007541D02*
X020005Y007541D01*
X020005Y007659D02*
X019385Y007659D01*
X019385Y007778D02*
X020005Y007778D01*
X020005Y007896D02*
X019385Y007896D01*
X019385Y008015D02*
X020005Y008015D01*
X020005Y008133D02*
X019385Y008133D01*
X019385Y008252D02*
X020005Y008252D01*
X020005Y008371D02*
X019385Y008371D01*
X019385Y008489D02*
X020005Y008489D01*
X020005Y008608D02*
X019385Y008608D01*
X019385Y008726D02*
X020005Y008726D01*
X020005Y008845D02*
X019385Y008845D01*
X019385Y008963D02*
X020005Y008963D01*
X020005Y009082D02*
X019385Y009082D01*
X019385Y009200D02*
X020005Y009200D01*
X020005Y009319D02*
X019385Y009319D01*
X019385Y009437D02*
X020005Y009437D01*
X020005Y009556D02*
X019385Y009556D01*
X019385Y009674D02*
X020005Y009674D01*
X020005Y009793D02*
X019385Y009793D01*
X019385Y009912D02*
X020005Y009912D01*
X020005Y010030D02*
X019385Y010030D01*
X019385Y010149D02*
X020005Y010149D01*
X020005Y010267D02*
X019385Y010267D01*
X019385Y010386D02*
X020005Y010386D01*
X020005Y010504D02*
X019385Y010504D01*
X019385Y010623D02*
X020005Y010623D01*
X020005Y010741D02*
X019385Y010741D01*
X019385Y010860D02*
X020005Y010860D01*
X020005Y010978D02*
X019385Y010978D01*
X019385Y011097D02*
X020005Y011097D01*
X020005Y011216D02*
X019385Y011216D01*
X019385Y011334D02*
X020005Y011334D01*
X020005Y011453D02*
X019385Y011453D01*
X019320Y011571D02*
X020005Y011571D01*
X020005Y011690D02*
X019202Y011690D01*
X019083Y011808D02*
X020005Y011808D01*
X020005Y011927D02*
X017382Y011927D01*
X017472Y011808D02*
X017997Y011808D01*
X017879Y011690D02*
X017504Y011690D01*
X017493Y011571D02*
X017554Y011571D01*
X017165Y011665D02*
X017165Y010165D01*
X017665Y009665D01*
X017665Y008165D01*
X017448Y007541D02*
X017385Y007541D01*
X017385Y007422D02*
X017945Y007422D01*
X017945Y007304D02*
X017385Y007304D01*
X017385Y007185D02*
X017945Y007185D01*
X017945Y007067D02*
X017385Y007067D01*
X017385Y006948D02*
X017945Y006948D01*
X017945Y006829D02*
X017385Y006829D01*
X017385Y006711D02*
X017900Y006711D01*
X017781Y006592D02*
X017385Y006592D01*
X017285Y006474D02*
X017663Y006474D01*
X017544Y006355D02*
X017166Y006355D01*
X017048Y006237D02*
X017445Y006237D01*
X017445Y006118D02*
X016929Y006118D01*
X016885Y006000D02*
X017445Y006000D01*
X017445Y005881D02*
X016885Y005881D01*
X016922Y005763D02*
X017409Y005763D01*
X017301Y005644D02*
X017029Y005644D01*
X017078Y005525D02*
X017252Y005525D01*
X017245Y005407D02*
X017085Y005407D01*
X017085Y005288D02*
X017245Y005288D01*
X017245Y005170D02*
X017085Y005170D01*
X017085Y005051D02*
X017245Y005051D01*
X017245Y004933D02*
X017085Y004933D01*
X017082Y004814D02*
X017248Y004814D01*
X017297Y004696D02*
X017033Y004696D01*
X016931Y004577D02*
X017399Y004577D01*
X017931Y004577D02*
X018399Y004577D01*
X018297Y004696D02*
X018033Y004696D01*
X018082Y004814D02*
X018248Y004814D01*
X018245Y004933D02*
X018085Y004933D01*
X018085Y005051D02*
X018245Y005051D01*
X018245Y005170D02*
X018085Y005170D01*
X018085Y005288D02*
X018245Y005288D01*
X018245Y005407D02*
X018085Y005407D01*
X018078Y005525D02*
X018252Y005525D01*
X018301Y005644D02*
X018029Y005644D01*
X017922Y005763D02*
X018409Y005763D01*
X018445Y005881D02*
X017885Y005881D01*
X017885Y006000D02*
X018445Y006000D01*
X018445Y006118D02*
X017929Y006118D01*
X018048Y006237D02*
X018445Y006237D01*
X018544Y006355D02*
X018166Y006355D01*
X018285Y006474D02*
X018663Y006474D01*
X018781Y006592D02*
X018385Y006592D01*
X018385Y006711D02*
X018900Y006711D01*
X018945Y006829D02*
X018739Y006829D01*
X018591Y006829D02*
X018385Y006829D01*
X018385Y006948D02*
X018404Y006948D01*
X018665Y007165D02*
X018665Y008165D01*
X017945Y007541D02*
X017883Y007541D01*
X016945Y007541D02*
X016883Y007541D01*
X016945Y007422D02*
X013885Y007422D01*
X013885Y007304D02*
X016945Y007304D01*
X016945Y007185D02*
X013885Y007185D01*
X013878Y007067D02*
X016945Y007067D01*
X016945Y006948D02*
X013759Y006948D01*
X013641Y006829D02*
X016945Y006829D01*
X016900Y006711D02*
X013522Y006711D01*
X013403Y006592D02*
X016781Y006592D01*
X016663Y006474D02*
X013285Y006474D01*
X013137Y006948D02*
X004693Y006948D01*
X004575Y007067D02*
X013255Y007067D01*
X013374Y007185D02*
X004456Y007185D01*
X004338Y007304D02*
X013445Y007304D01*
X013445Y007422D02*
X004219Y007422D01*
X004101Y007541D02*
X005448Y007541D01*
X005427Y007549D02*
X005582Y007485D01*
X005749Y007485D01*
X005903Y007549D01*
X006021Y007667D01*
X006085Y007822D01*
X006085Y008509D01*
X006021Y008663D01*
X005903Y008781D01*
X005749Y008845D01*
X005582Y008845D01*
X005427Y008781D01*
X005309Y008663D01*
X005245Y008509D01*
X005245Y007822D01*
X005309Y007667D01*
X005427Y007549D01*
X005317Y007659D02*
X003982Y007659D01*
X003885Y007778D02*
X005263Y007778D01*
X005245Y007896D02*
X003885Y007896D01*
X003885Y008015D02*
X005245Y008015D01*
X005245Y008133D02*
X003885Y008133D01*
X003885Y008252D02*
X005245Y008252D01*
X005245Y008371D02*
X003964Y008371D01*
X004083Y008489D02*
X005245Y008489D01*
X005286Y008608D02*
X004085Y008608D01*
X004085Y008726D02*
X005372Y008726D01*
X005581Y008845D02*
X004080Y008845D01*
X005750Y008845D02*
X006581Y008845D01*
X006582Y008845D02*
X006427Y008781D01*
X006309Y008663D01*
X006245Y008509D01*
X006245Y007822D01*
X006309Y007667D01*
X006427Y007549D01*
X006582Y007485D01*
X006749Y007485D01*
X006903Y007549D01*
X007021Y007667D01*
X007085Y007822D01*
X007085Y008509D01*
X007021Y008663D01*
X006903Y008781D01*
X006749Y008845D01*
X006582Y008845D01*
X006750Y008845D02*
X007581Y008845D01*
X007582Y008845D02*
X007427Y008781D01*
X007309Y008663D01*
X007245Y008509D01*
X007245Y007822D01*
X007309Y007667D01*
X007427Y007549D01*
X007582Y007485D01*
X007749Y007485D01*
X007903Y007549D01*
X008021Y007667D01*
X008085Y007822D01*
X008085Y008509D01*
X008021Y008663D01*
X007903Y008781D01*
X007749Y008845D01*
X007582Y008845D01*
X007750Y008845D02*
X008581Y008845D01*
X008582Y008845D02*
X008427Y008781D01*
X008309Y008663D01*
X008245Y008509D01*
X008245Y007822D01*
X008309Y007667D01*
X008427Y007549D01*
X008582Y007485D01*
X008749Y007485D01*
X008903Y007549D01*
X009021Y007667D01*
X009085Y007822D01*
X009085Y008509D01*
X009021Y008663D01*
X008903Y008781D01*
X008749Y008845D01*
X008582Y008845D01*
X008750Y008845D02*
X009581Y008845D01*
X009582Y008845D02*
X009427Y008781D01*
X009309Y008663D01*
X009245Y008509D01*
X009245Y007822D01*
X009309Y007667D01*
X009427Y007549D01*
X009582Y007485D01*
X009749Y007485D01*
X009903Y007549D01*
X010021Y007667D01*
X010085Y007822D01*
X010085Y008509D01*
X010021Y008663D01*
X009903Y008781D01*
X009749Y008845D01*
X009582Y008845D01*
X009750Y008845D02*
X010581Y008845D01*
X010372Y008726D02*
X009958Y008726D01*
X010044Y008608D02*
X010286Y008608D01*
X010245Y008489D02*
X010085Y008489D01*
X010085Y008371D02*
X010245Y008371D01*
X010245Y008252D02*
X010085Y008252D01*
X010085Y008133D02*
X010245Y008133D01*
X010245Y008015D02*
X010085Y008015D01*
X010085Y007896D02*
X010245Y007896D01*
X010263Y007778D02*
X010067Y007778D01*
X010013Y007659D02*
X010317Y007659D01*
X010448Y007541D02*
X009883Y007541D01*
X009448Y007541D02*
X008883Y007541D01*
X009013Y007659D02*
X009317Y007659D01*
X009263Y007778D02*
X009067Y007778D01*
X009085Y007896D02*
X009245Y007896D01*
X009245Y008015D02*
X009085Y008015D01*
X009085Y008133D02*
X009245Y008133D01*
X009245Y008252D02*
X009085Y008252D01*
X009085Y008371D02*
X009245Y008371D01*
X009245Y008489D02*
X009085Y008489D01*
X009044Y008608D02*
X009286Y008608D01*
X009372Y008726D02*
X008958Y008726D01*
X008372Y008726D02*
X007958Y008726D01*
X008044Y008608D02*
X008286Y008608D01*
X008245Y008489D02*
X008085Y008489D01*
X008085Y008371D02*
X008245Y008371D01*
X008245Y008252D02*
X008085Y008252D01*
X008085Y008133D02*
X008245Y008133D01*
X008245Y008015D02*
X008085Y008015D01*
X008085Y007896D02*
X008245Y007896D01*
X008263Y007778D02*
X008067Y007778D01*
X008013Y007659D02*
X008317Y007659D01*
X008448Y007541D02*
X007883Y007541D01*
X007448Y007541D02*
X006883Y007541D01*
X007013Y007659D02*
X007317Y007659D01*
X007263Y007778D02*
X007067Y007778D01*
X007085Y007896D02*
X007245Y007896D01*
X007245Y008015D02*
X007085Y008015D01*
X007085Y008133D02*
X007245Y008133D01*
X007245Y008252D02*
X007085Y008252D01*
X007085Y008371D02*
X007245Y008371D01*
X007245Y008489D02*
X007085Y008489D01*
X007044Y008608D02*
X007286Y008608D01*
X007372Y008726D02*
X006958Y008726D01*
X006372Y008726D02*
X005958Y008726D01*
X006044Y008608D02*
X006286Y008608D01*
X006245Y008489D02*
X006085Y008489D01*
X006085Y008371D02*
X006245Y008371D01*
X006245Y008252D02*
X006085Y008252D01*
X006085Y008133D02*
X006245Y008133D01*
X006245Y008015D02*
X006085Y008015D01*
X006085Y007896D02*
X006245Y007896D01*
X006263Y007778D02*
X006067Y007778D01*
X006013Y007659D02*
X006317Y007659D01*
X006448Y007541D02*
X005883Y007541D01*
X004071Y006948D02*
X003927Y006948D01*
X002165Y008665D02*
X002165Y010165D01*
X001665Y010665D01*
X001665Y012665D01*
X001866Y013112D02*
X003445Y013112D01*
X003445Y012994D02*
X002030Y012994D01*
X002109Y012875D02*
X003445Y012875D01*
X003445Y012757D02*
X002155Y012757D01*
X002155Y012638D02*
X003445Y012638D01*
X003445Y012520D02*
X002135Y012520D01*
X002086Y012401D02*
X003445Y012401D01*
X003445Y012282D02*
X001975Y012282D01*
X001885Y012164D02*
X003445Y012164D01*
X003445Y012045D02*
X001885Y012045D01*
X001885Y011927D02*
X003445Y011927D01*
X003445Y011808D02*
X001885Y011808D01*
X001885Y011690D02*
X003445Y011690D01*
X003885Y011690D02*
X004379Y011690D01*
X004445Y011756D02*
X004265Y011576D01*
X004248Y011583D01*
X004082Y011583D01*
X003929Y011519D01*
X003885Y011476D01*
X003885Y012774D01*
X003968Y012690D01*
X004145Y012690D01*
X004145Y013145D01*
X004185Y013145D01*
X004185Y012690D01*
X004362Y012690D01*
X004640Y012968D01*
X004640Y013145D01*
X004185Y013145D01*
X004185Y013185D01*
X004640Y013185D01*
X004640Y013362D01*
X004557Y013445D01*
X004690Y013445D01*
X004690Y012969D01*
X004694Y012965D01*
X004690Y012961D01*
X004690Y012885D01*
X004574Y012885D01*
X004445Y012756D01*
X004445Y011756D01*
X004445Y011808D02*
X003885Y011808D01*
X003885Y011927D02*
X004445Y011927D01*
X004445Y012045D02*
X003885Y012045D01*
X003885Y012164D02*
X004445Y012164D01*
X004445Y012282D02*
X003885Y012282D01*
X003885Y012401D02*
X004445Y012401D01*
X004445Y012520D02*
X003885Y012520D01*
X003885Y012638D02*
X004445Y012638D01*
X004446Y012757D02*
X004428Y012757D01*
X004547Y012875D02*
X004564Y012875D01*
X004640Y012994D02*
X004690Y012994D01*
X004690Y013112D02*
X004640Y013112D01*
X004640Y013231D02*
X004690Y013231D01*
X004690Y013349D02*
X004640Y013349D01*
X004185Y013112D02*
X004145Y013112D01*
X004145Y012994D02*
X004185Y012994D01*
X004185Y012875D02*
X004145Y012875D01*
X004145Y012757D02*
X004185Y012757D01*
X003902Y012757D02*
X003885Y012757D01*
X003445Y013231D02*
X001897Y013231D01*
X002042Y013349D02*
X003445Y013349D01*
X003706Y014298D02*
X001991Y014298D01*
X002088Y014416D02*
X003755Y014416D01*
X003863Y014535D02*
X002138Y014535D01*
X002155Y014627D02*
X002155Y014627D01*
X002155Y014704D02*
X002155Y014704D01*
X002143Y014780D01*
X002119Y014853D01*
X002084Y014922D01*
X002039Y014984D01*
X001984Y015039D01*
X001922Y015084D01*
X001853Y015119D01*
X001780Y015143D01*
X001704Y015155D01*
X001704Y015155D01*
X001704Y014704D01*
X002155Y014704D01*
X002144Y014772D02*
X009745Y014772D01*
X009745Y014653D02*
X001704Y014653D01*
X001704Y014535D02*
X001627Y014535D01*
X001627Y014416D02*
X001704Y014416D01*
X001704Y014298D02*
X001627Y014298D01*
X001627Y014175D02*
X001627Y014175D01*
X001250Y013942D02*
X000825Y013942D01*
X000825Y013824D02*
X001200Y013824D01*
X001175Y013705D02*
X000825Y013705D01*
X000825Y013586D02*
X001175Y013586D01*
X001217Y013468D02*
X000825Y013468D01*
X000825Y014772D02*
X001186Y014772D01*
X001230Y014890D02*
X000825Y014890D01*
X000825Y015009D02*
X001316Y015009D01*
X001502Y015127D02*
X000825Y015127D01*
X000825Y015246D02*
X009273Y015246D01*
X009155Y015365D02*
X000825Y015365D01*
X000825Y015483D02*
X009036Y015483D01*
X008945Y015602D02*
X000825Y015602D01*
X000825Y015720D02*
X008945Y015720D01*
X008901Y015839D02*
X008429Y015839D01*
X008402Y015811D02*
X008519Y015929D01*
X008583Y016082D01*
X008583Y016248D01*
X008519Y016402D01*
X008445Y016476D01*
X008445Y017221D01*
X008403Y017324D01*
X008324Y017403D01*
X007945Y017781D01*
X007945Y018002D01*
X008052Y018110D01*
X008122Y018277D01*
X008122Y019053D01*
X008052Y019221D01*
X007924Y019349D01*
X007756Y019419D01*
X007574Y019419D01*
X007406Y019349D01*
X007278Y019221D01*
X007208Y019053D01*
X007208Y018277D01*
X007278Y018110D01*
X007385Y018002D01*
X007385Y017609D01*
X007428Y017507D01*
X007507Y017428D01*
X007885Y017049D01*
X007885Y016476D01*
X007811Y016402D01*
X007748Y016248D01*
X007748Y016082D01*
X007811Y015929D01*
X007929Y015811D01*
X008082Y015748D01*
X008248Y015748D01*
X008402Y015811D01*
X008531Y015957D02*
X008799Y015957D01*
X008750Y016076D02*
X008580Y016076D01*
X008583Y016194D02*
X008748Y016194D01*
X008775Y016313D02*
X008556Y016313D01*
X008489Y016431D02*
X008841Y016431D01*
X009003Y016550D02*
X008445Y016550D01*
X008445Y016669D02*
X010945Y016669D01*
X010976Y016787D02*
X008445Y016787D01*
X008445Y016906D02*
X011095Y016906D01*
X011074Y016885D02*
X011074Y016885D01*
X011195Y017024D02*
X008445Y017024D01*
X008445Y017143D02*
X011195Y017143D01*
X011195Y017261D02*
X008428Y017261D01*
X008346Y017380D02*
X011195Y017380D01*
X011195Y017498D02*
X008228Y017498D01*
X008324Y017403D02*
X008324Y017403D01*
X008109Y017617D02*
X011195Y017617D01*
X011195Y017735D02*
X007991Y017735D01*
X007945Y017854D02*
X011195Y017854D01*
X011177Y017973D02*
X010645Y017973D01*
X010655Y017978D02*
X010713Y018020D01*
X010764Y018071D01*
X010806Y018129D01*
X010839Y018193D01*
X010861Y018261D01*
X010872Y018332D01*
X010872Y018627D01*
X010454Y018627D01*
X010454Y018704D01*
X010872Y018704D01*
X010872Y018998D01*
X010861Y019069D01*
X010839Y019137D01*
X010806Y019201D01*
X010764Y019260D01*
X010713Y019310D01*
X010655Y019353D01*
X010591Y019385D01*
X010522Y019408D01*
X010454Y019418D01*
X010454Y018704D01*
X010377Y018704D01*
X010377Y019418D01*
X010308Y019408D01*
X010240Y019385D01*
X010176Y019353D01*
X010118Y019310D01*
X010067Y019260D01*
X010024Y019201D01*
X009992Y019137D01*
X009970Y019069D01*
X009958Y018998D01*
X009958Y018704D01*
X010376Y018704D01*
X010376Y018627D01*
X009958Y018627D01*
X009958Y018332D01*
X009970Y018261D01*
X009992Y018193D01*
X010024Y018129D01*
X010067Y018071D01*
X010118Y018020D01*
X010176Y017978D01*
X010240Y017945D01*
X010308Y017923D01*
X010377Y017912D01*
X010377Y018626D01*
X010454Y018626D01*
X010454Y017912D01*
X010522Y017923D01*
X010591Y017945D01*
X010655Y017978D01*
X010778Y018091D02*
X011046Y018091D01*
X010986Y018210D02*
X010844Y018210D01*
X010871Y018328D02*
X010958Y018328D01*
X010958Y018447D02*
X010872Y018447D01*
X010872Y018565D02*
X010958Y018565D01*
X010958Y018684D02*
X010454Y018684D01*
X010376Y018684D02*
X009872Y018684D01*
X009872Y018802D02*
X009958Y018802D01*
X009958Y018921D02*
X009872Y018921D01*
X009872Y019039D02*
X009965Y019039D01*
X009872Y019053D02*
X009802Y019221D01*
X009674Y019349D01*
X009506Y019419D01*
X009324Y019419D01*
X009156Y019349D01*
X009028Y019221D01*
X008958Y019053D01*
X008958Y018277D01*
X009028Y018110D01*
X009156Y017981D01*
X009324Y017911D01*
X009506Y017911D01*
X009674Y017981D01*
X009802Y018110D01*
X009872Y018277D01*
X009872Y019053D01*
X009829Y019158D02*
X010002Y019158D01*
X010084Y019276D02*
X009747Y019276D01*
X009564Y019395D02*
X010270Y019395D01*
X010377Y019395D02*
X010454Y019395D01*
X010561Y019395D02*
X011267Y019395D01*
X011084Y019276D02*
X010747Y019276D01*
X010828Y019158D02*
X011002Y019158D01*
X010958Y019039D02*
X010865Y019039D01*
X010872Y018921D02*
X010958Y018921D01*
X010958Y018802D02*
X010872Y018802D01*
X010454Y018802D02*
X010377Y018802D01*
X010377Y018921D02*
X010454Y018921D01*
X010454Y019039D02*
X010377Y019039D01*
X010377Y019158D02*
X010454Y019158D01*
X010454Y019276D02*
X010377Y019276D01*
X010377Y018565D02*
X010454Y018565D01*
X010454Y018447D02*
X010377Y018447D01*
X010377Y018328D02*
X010454Y018328D01*
X010454Y018210D02*
X010377Y018210D01*
X010377Y018091D02*
X010454Y018091D01*
X010454Y017973D02*
X010377Y017973D01*
X010186Y017973D02*
X009653Y017973D01*
X009784Y018091D02*
X010052Y018091D01*
X009986Y018210D02*
X009844Y018210D01*
X009872Y018328D02*
X009959Y018328D01*
X009958Y018447D02*
X009872Y018447D01*
X009872Y018565D02*
X009958Y018565D01*
X009177Y017973D02*
X007945Y017973D01*
X008034Y018091D02*
X009046Y018091D01*
X008986Y018210D02*
X008094Y018210D01*
X008122Y018328D02*
X008958Y018328D01*
X008958Y018447D02*
X008122Y018447D01*
X008122Y018565D02*
X008958Y018565D01*
X008958Y018684D02*
X008122Y018684D01*
X008122Y018802D02*
X008958Y018802D01*
X008958Y018921D02*
X008122Y018921D01*
X008122Y019039D02*
X008958Y019039D01*
X009002Y019158D02*
X008079Y019158D01*
X007997Y019276D02*
X009084Y019276D01*
X009267Y019395D02*
X007814Y019395D01*
X007517Y019395D02*
X006814Y019395D01*
X006756Y019419D02*
X006574Y019419D01*
X006406Y019349D01*
X006278Y019221D01*
X006208Y019053D01*
X006208Y018277D01*
X006278Y018110D01*
X006385Y018002D01*
X006385Y017609D01*
X006428Y017507D01*
X006507Y017428D01*
X006885Y017049D01*
X006885Y016476D01*
X006811Y016402D01*
X006748Y016248D01*
X006748Y016082D01*
X006811Y015929D01*
X006929Y015811D01*
X007082Y015748D01*
X007248Y015748D01*
X007402Y015811D01*
X007519Y015929D01*
X007583Y016082D01*
X007583Y016248D01*
X007519Y016402D01*
X007445Y016476D01*
X007445Y017109D01*
X007445Y017221D01*
X007403Y017324D01*
X006945Y017781D01*
X006945Y018002D01*
X007052Y018110D01*
X007122Y018277D01*
X007122Y019053D01*
X007052Y019221D01*
X006924Y019349D01*
X006756Y019419D01*
X006517Y019395D02*
X005814Y019395D01*
X005756Y019419D02*
X005574Y019419D01*
X005406Y019349D01*
X005278Y019221D01*
X005208Y019053D01*
X005208Y018277D01*
X005278Y018110D01*
X005385Y018002D01*
X005385Y017609D01*
X005428Y017507D01*
X005507Y017428D01*
X005885Y017049D01*
X005885Y016476D01*
X005811Y016402D01*
X005748Y016248D01*
X005748Y016082D01*
X005811Y015929D01*
X005929Y015811D01*
X006082Y015748D01*
X006248Y015748D01*
X006402Y015811D01*
X006519Y015929D01*
X006583Y016082D01*
X006583Y016248D01*
X006519Y016402D01*
X006445Y016476D01*
X006445Y017109D01*
X006445Y017221D01*
X006403Y017324D01*
X005945Y017781D01*
X005945Y018002D01*
X006052Y018110D01*
X006122Y018277D01*
X006122Y019053D01*
X006052Y019221D01*
X005924Y019349D01*
X005756Y019419D01*
X005517Y019395D02*
X004814Y019395D01*
X004756Y019419D02*
X004924Y019349D01*
X005052Y019221D01*
X005122Y019053D01*
X005122Y018277D01*
X005052Y018110D01*
X004945Y018002D01*
X004945Y017781D01*
X005403Y017324D01*
X005445Y017221D01*
X005445Y017109D01*
X005445Y016476D01*
X005519Y016402D01*
X005583Y016248D01*
X005583Y016082D01*
X005519Y015929D01*
X005402Y015811D01*
X005248Y015748D01*
X005082Y015748D01*
X004929Y015811D01*
X004811Y015929D01*
X004748Y016082D01*
X004748Y016248D01*
X004811Y016402D01*
X004885Y016476D01*
X004885Y017049D01*
X004507Y017428D01*
X004428Y017507D01*
X004385Y017609D01*
X004385Y018002D01*
X004278Y018110D01*
X004208Y018277D01*
X004208Y019053D01*
X004278Y019221D01*
X004406Y019349D01*
X004574Y019419D01*
X004756Y019419D01*
X004517Y019395D02*
X003745Y019395D01*
X003787Y019350D02*
X003787Y019350D01*
X003822Y019276D02*
X004334Y019276D01*
X004252Y019158D02*
X003879Y019158D01*
X003936Y019039D02*
X004208Y019039D01*
X004208Y018921D02*
X003994Y018921D01*
X004017Y018802D02*
X004208Y018802D01*
X004208Y018684D02*
X004035Y018684D01*
X004053Y018565D02*
X004208Y018565D01*
X004208Y018447D02*
X004070Y018447D01*
X004062Y018328D02*
X004208Y018328D01*
X004236Y018210D02*
X004044Y018210D01*
X004026Y018091D02*
X004296Y018091D01*
X004385Y017973D02*
X004008Y017973D01*
X004001Y017926D02*
X004001Y017926D01*
X003967Y017854D02*
X004385Y017854D01*
X004385Y017735D02*
X003910Y017735D01*
X003853Y017617D02*
X004385Y017617D01*
X004436Y017498D02*
X003795Y017498D01*
X003787Y017480D02*
X003787Y017480D01*
X003694Y017380D02*
X004555Y017380D01*
X004673Y017261D02*
X003584Y017261D01*
X003474Y017143D02*
X004792Y017143D01*
X004885Y017024D02*
X003289Y017024D01*
X003083Y016906D02*
X004885Y016906D01*
X004885Y016787D02*
X002659Y016787D01*
X003022Y016870D02*
X003022Y016870D01*
X003082Y016583D02*
X002929Y016519D01*
X002811Y016402D01*
X002748Y016248D01*
X002748Y016082D01*
X002811Y015929D01*
X002929Y015811D01*
X003082Y015748D01*
X003248Y015748D01*
X003402Y015811D01*
X003519Y015929D01*
X003583Y016082D01*
X003583Y016248D01*
X003519Y016402D01*
X003402Y016519D01*
X003248Y016583D01*
X003082Y016583D01*
X003003Y016550D02*
X000825Y016550D01*
X000825Y016431D02*
X002841Y016431D01*
X002775Y016313D02*
X000825Y016313D01*
X000825Y016194D02*
X002748Y016194D01*
X002750Y016076D02*
X000825Y016076D01*
X000825Y015957D02*
X002799Y015957D01*
X002901Y015839D02*
X000825Y015839D01*
X000825Y016669D02*
X004885Y016669D01*
X004885Y016550D02*
X004329Y016550D01*
X004325Y016552D02*
X004263Y016572D01*
X004198Y016583D01*
X004184Y016583D01*
X004184Y016184D01*
X004146Y016184D01*
X004146Y016146D01*
X003748Y016146D01*
X003748Y016132D01*
X003758Y016067D01*
X003778Y016005D01*
X003808Y015946D01*
X003847Y015893D01*
X003893Y015847D01*
X003946Y015808D01*
X004005Y015778D01*
X004067Y015758D01*
X004132Y015748D01*
X004146Y015748D01*
X004146Y016146D01*
X004184Y016146D01*
X004184Y015748D01*
X004198Y015748D01*
X004263Y015758D01*
X004325Y015778D01*
X004384Y015808D01*
X004437Y015847D01*
X004484Y015893D01*
X004522Y015946D01*
X004552Y016005D01*
X004572Y016067D01*
X004583Y016132D01*
X004583Y016146D01*
X004184Y016146D01*
X004184Y016184D01*
X004583Y016184D01*
X004583Y016198D01*
X004572Y016263D01*
X004552Y016325D01*
X004522Y016384D01*
X004484Y016437D01*
X004437Y016484D01*
X004384Y016522D01*
X004325Y016552D01*
X004184Y016550D02*
X004146Y016550D01*
X004146Y016583D02*
X004132Y016583D01*
X004067Y016572D01*
X004005Y016552D01*
X003946Y016522D01*
X003893Y016484D01*
X003847Y016437D01*
X003808Y016384D01*
X003778Y016325D01*
X003758Y016263D01*
X003748Y016198D01*
X003748Y016184D01*
X004146Y016184D01*
X004146Y016583D01*
X004001Y016550D02*
X003327Y016550D01*
X003489Y016431D02*
X003843Y016431D01*
X003774Y016313D02*
X003556Y016313D01*
X003583Y016194D02*
X003748Y016194D01*
X003757Y016076D02*
X003580Y016076D01*
X003531Y015957D02*
X003803Y015957D01*
X003904Y015839D02*
X003429Y015839D01*
X004146Y015839D02*
X004184Y015839D01*
X004184Y015957D02*
X004146Y015957D01*
X004146Y016076D02*
X004184Y016076D01*
X004184Y016194D02*
X004146Y016194D01*
X004146Y016313D02*
X004184Y016313D01*
X004184Y016431D02*
X004146Y016431D01*
X004488Y016431D02*
X004841Y016431D01*
X004775Y016313D02*
X004556Y016313D01*
X004583Y016194D02*
X004748Y016194D01*
X004750Y016076D02*
X004574Y016076D01*
X004528Y015957D02*
X004799Y015957D01*
X004901Y015839D02*
X004426Y015839D01*
X005429Y015839D02*
X005901Y015839D01*
X005799Y015957D02*
X005531Y015957D01*
X005580Y016076D02*
X005750Y016076D01*
X005748Y016194D02*
X005583Y016194D01*
X005556Y016313D02*
X005775Y016313D01*
X005841Y016431D02*
X005489Y016431D01*
X005445Y016550D02*
X005885Y016550D01*
X005885Y016669D02*
X005445Y016669D01*
X005445Y016787D02*
X005885Y016787D01*
X005885Y016906D02*
X005445Y016906D01*
X005445Y017024D02*
X005885Y017024D01*
X005792Y017143D02*
X005445Y017143D01*
X005428Y017261D02*
X005673Y017261D01*
X005555Y017380D02*
X005346Y017380D01*
X005436Y017498D02*
X005228Y017498D01*
X005109Y017617D02*
X005385Y017617D01*
X005385Y017735D02*
X004991Y017735D01*
X004945Y017854D02*
X005385Y017854D01*
X005385Y017973D02*
X004945Y017973D01*
X005034Y018091D02*
X005296Y018091D01*
X005236Y018210D02*
X005094Y018210D01*
X005122Y018328D02*
X005208Y018328D01*
X005208Y018447D02*
X005122Y018447D01*
X005122Y018565D02*
X005208Y018565D01*
X005208Y018684D02*
X005122Y018684D01*
X005122Y018802D02*
X005208Y018802D01*
X005208Y018921D02*
X005122Y018921D01*
X005122Y019039D02*
X005208Y019039D01*
X005252Y019158D02*
X005079Y019158D01*
X004997Y019276D02*
X005334Y019276D01*
X005997Y019276D02*
X006334Y019276D01*
X006252Y019158D02*
X006079Y019158D01*
X006122Y019039D02*
X006208Y019039D01*
X006208Y018921D02*
X006122Y018921D01*
X006122Y018802D02*
X006208Y018802D01*
X006208Y018684D02*
X006122Y018684D01*
X006122Y018565D02*
X006208Y018565D01*
X006208Y018447D02*
X006122Y018447D01*
X006122Y018328D02*
X006208Y018328D01*
X006236Y018210D02*
X006094Y018210D01*
X006034Y018091D02*
X006296Y018091D01*
X006385Y017973D02*
X005945Y017973D01*
X005945Y017854D02*
X006385Y017854D01*
X006385Y017735D02*
X005991Y017735D01*
X006109Y017617D02*
X006385Y017617D01*
X006436Y017498D02*
X006228Y017498D01*
X006346Y017380D02*
X006555Y017380D01*
X006673Y017261D02*
X006428Y017261D01*
X006445Y017143D02*
X006792Y017143D01*
X006885Y017024D02*
X006445Y017024D01*
X006445Y016906D02*
X006885Y016906D01*
X006885Y016787D02*
X006445Y016787D01*
X006445Y016669D02*
X006885Y016669D01*
X006885Y016550D02*
X006445Y016550D01*
X006489Y016431D02*
X006841Y016431D01*
X006775Y016313D02*
X006556Y016313D01*
X006583Y016194D02*
X006748Y016194D01*
X006750Y016076D02*
X006580Y016076D01*
X006531Y015957D02*
X006799Y015957D01*
X006901Y015839D02*
X006429Y015839D01*
X007429Y015839D02*
X007901Y015839D01*
X007799Y015957D02*
X007531Y015957D01*
X007580Y016076D02*
X007750Y016076D01*
X007748Y016194D02*
X007583Y016194D01*
X007556Y016313D02*
X007775Y016313D01*
X007841Y016431D02*
X007489Y016431D01*
X007445Y016550D02*
X007885Y016550D01*
X007885Y016669D02*
X007445Y016669D01*
X007445Y016787D02*
X007885Y016787D01*
X007885Y016906D02*
X007445Y016906D01*
X007445Y017024D02*
X007885Y017024D01*
X007792Y017143D02*
X007445Y017143D01*
X007428Y017261D02*
X007673Y017261D01*
X007555Y017380D02*
X007346Y017380D01*
X007436Y017498D02*
X007228Y017498D01*
X007109Y017617D02*
X007385Y017617D01*
X007385Y017735D02*
X006991Y017735D01*
X006945Y017854D02*
X007385Y017854D01*
X007385Y017973D02*
X006945Y017973D01*
X007034Y018091D02*
X007296Y018091D01*
X007236Y018210D02*
X007094Y018210D01*
X007122Y018328D02*
X007208Y018328D01*
X007208Y018447D02*
X007122Y018447D01*
X007122Y018565D02*
X007208Y018565D01*
X007208Y018684D02*
X007122Y018684D01*
X007122Y018802D02*
X007208Y018802D01*
X007208Y018921D02*
X007122Y018921D01*
X007122Y019039D02*
X007208Y019039D01*
X007252Y019158D02*
X007079Y019158D01*
X006997Y019276D02*
X007334Y019276D01*
X007507Y017428D02*
X007507Y017428D01*
X009165Y016165D02*
X009165Y015665D01*
X010165Y014665D01*
X010165Y013665D01*
X011165Y013665D01*
X011165Y016665D01*
X011415Y016915D01*
X011415Y018665D01*
X011385Y016550D02*
X011503Y016550D01*
X012646Y016431D02*
X012684Y016431D01*
X012684Y016313D02*
X012646Y016313D01*
X012646Y016194D02*
X012684Y016194D01*
X012684Y016076D02*
X012646Y016076D01*
X012646Y015957D02*
X012684Y015957D01*
X012684Y015839D02*
X012646Y015839D01*
X012926Y015839D02*
X013401Y015839D01*
X013299Y015957D02*
X013028Y015957D01*
X013074Y016076D02*
X013250Y016076D01*
X013248Y016194D02*
X013083Y016194D01*
X013056Y016313D02*
X013275Y016313D01*
X013341Y016431D02*
X012988Y016431D01*
X013945Y016550D02*
X014385Y016550D01*
X014385Y016669D02*
X013945Y016669D01*
X013945Y016787D02*
X014385Y016787D01*
X014385Y016906D02*
X013945Y016906D01*
X013945Y017024D02*
X014385Y017024D01*
X014292Y017143D02*
X013945Y017143D01*
X013928Y017261D02*
X014173Y017261D01*
X014055Y017380D02*
X013846Y017380D01*
X013936Y017498D02*
X013728Y017498D01*
X013609Y017617D02*
X013885Y017617D01*
X013885Y017735D02*
X013491Y017735D01*
X013445Y017854D02*
X013885Y017854D01*
X013885Y017973D02*
X013445Y017973D01*
X013534Y018091D02*
X013796Y018091D01*
X013736Y018210D02*
X013594Y018210D01*
X013622Y018328D02*
X013708Y018328D01*
X013708Y018447D02*
X013622Y018447D01*
X013622Y018565D02*
X013708Y018565D01*
X013708Y018684D02*
X013622Y018684D01*
X013622Y018802D02*
X013708Y018802D01*
X013708Y018921D02*
X013622Y018921D01*
X013622Y019039D02*
X013708Y019039D01*
X013752Y019158D02*
X013579Y019158D01*
X013497Y019276D02*
X013834Y019276D01*
X014497Y019276D02*
X014834Y019276D01*
X014752Y019158D02*
X014579Y019158D01*
X014622Y019039D02*
X014708Y019039D01*
X014708Y018921D02*
X014622Y018921D01*
X014622Y018802D02*
X014708Y018802D01*
X014708Y018684D02*
X014622Y018684D01*
X014622Y018565D02*
X014708Y018565D01*
X014708Y018447D02*
X014622Y018447D01*
X014622Y018328D02*
X014708Y018328D01*
X014736Y018210D02*
X014594Y018210D01*
X014534Y018091D02*
X014796Y018091D01*
X014885Y017973D02*
X014445Y017973D01*
X014445Y017854D02*
X014885Y017854D01*
X014885Y017735D02*
X014491Y017735D01*
X014609Y017617D02*
X014885Y017617D01*
X014936Y017498D02*
X014728Y017498D01*
X014846Y017380D02*
X015055Y017380D01*
X015173Y017261D02*
X014928Y017261D01*
X014945Y017143D02*
X015292Y017143D01*
X015385Y017024D02*
X014945Y017024D01*
X014945Y016906D02*
X015385Y016906D01*
X015385Y016787D02*
X014945Y016787D01*
X014945Y016669D02*
X015385Y016669D01*
X015385Y016550D02*
X014945Y016550D01*
X014989Y016431D02*
X015341Y016431D01*
X015275Y016313D02*
X015056Y016313D01*
X015083Y016194D02*
X015248Y016194D01*
X015250Y016076D02*
X015080Y016076D01*
X015031Y015957D02*
X015299Y015957D01*
X015401Y015839D02*
X014929Y015839D01*
X014401Y015839D02*
X013929Y015839D01*
X014031Y015957D02*
X014299Y015957D01*
X014250Y016076D02*
X014080Y016076D01*
X014083Y016194D02*
X014248Y016194D01*
X014275Y016313D02*
X014056Y016313D01*
X013989Y016431D02*
X014341Y016431D01*
X015609Y017617D02*
X015885Y017617D01*
X015885Y017735D02*
X015491Y017735D01*
X015445Y017854D02*
X015885Y017854D01*
X015885Y017973D02*
X015445Y017973D01*
X015534Y018091D02*
X015796Y018091D01*
X015736Y018210D02*
X015594Y018210D01*
X015622Y018328D02*
X015708Y018328D01*
X015708Y018447D02*
X015622Y018447D01*
X015622Y018565D02*
X015708Y018565D01*
X015708Y018684D02*
X015622Y018684D01*
X015622Y018802D02*
X015708Y018802D01*
X015708Y018921D02*
X015622Y018921D01*
X015622Y019039D02*
X015708Y019039D01*
X015752Y019158D02*
X015579Y019158D01*
X015497Y019276D02*
X015834Y019276D01*
X017177Y019514D02*
X003635Y019514D01*
X003525Y019632D02*
X017309Y019632D01*
X017198Y019544D02*
X017198Y019544D01*
X017457Y019751D02*
X003385Y019751D01*
X003450Y019713D02*
X003450Y019713D01*
X003180Y019869D02*
X017627Y019869D01*
X017585Y019853D02*
X017585Y019853D01*
X017929Y019988D02*
X002902Y019988D01*
X000834Y017973D02*
X000825Y017973D01*
X000825Y017854D02*
X000871Y017854D01*
X000907Y017735D02*
X000825Y017735D01*
X000920Y017695D02*
X000920Y017695D01*
X000973Y017617D02*
X000825Y017617D01*
X000825Y017498D02*
X001054Y017498D01*
X001134Y017380D02*
X000825Y017380D01*
X000825Y017261D02*
X001229Y017261D01*
X001378Y017143D02*
X000825Y017143D01*
X000825Y017024D02*
X001527Y017024D01*
X001769Y016906D02*
X000825Y016906D01*
X000825Y016787D02*
X002176Y016787D01*
X002046Y016797D02*
X002046Y016797D01*
X001828Y015127D02*
X009392Y015127D01*
X009510Y015009D02*
X002014Y015009D01*
X002100Y014890D02*
X009629Y014890D01*
X009745Y014535D02*
X004467Y014535D01*
X004575Y014416D02*
X009820Y014416D01*
X009939Y014298D02*
X004624Y014298D01*
X004640Y014179D02*
X009945Y014179D01*
X009945Y014061D02*
X004636Y014061D01*
X004587Y013942D02*
X009945Y013942D01*
X010549Y012875D02*
X012283Y012875D01*
X012402Y012757D02*
X010585Y012757D01*
X009835Y012401D02*
X007640Y012401D01*
X007640Y012520D02*
X009745Y012520D01*
X010082Y011583D02*
X009929Y011519D01*
X009811Y011402D01*
X009748Y011248D01*
X009748Y011082D01*
X009811Y010929D01*
X009929Y010811D01*
X010082Y010748D01*
X010248Y010748D01*
X010402Y010811D01*
X010519Y010929D01*
X010583Y011082D01*
X010583Y011248D01*
X010519Y011402D01*
X010402Y011519D01*
X010248Y011583D01*
X010082Y011583D01*
X010054Y011571D02*
X009276Y011571D01*
X009468Y011453D02*
X009862Y011453D01*
X009783Y011334D02*
X009547Y011334D01*
X009583Y011216D02*
X009748Y011216D01*
X009748Y011097D02*
X009583Y011097D01*
X009663Y010978D02*
X009791Y010978D01*
X009782Y010860D02*
X009880Y010860D01*
X009900Y010741D02*
X011778Y010741D01*
X011896Y010623D02*
X010019Y010623D01*
X010137Y010504D02*
X012015Y010504D01*
X012134Y010386D02*
X010256Y010386D01*
X010165Y010165D02*
X009165Y011165D01*
X010165Y010165D02*
X016165Y010165D01*
X016665Y009665D01*
X016665Y008165D01*
X016263Y007778D02*
X016067Y007778D01*
X016085Y007822D02*
X016085Y008509D01*
X016021Y008663D01*
X015903Y008781D01*
X015749Y008845D01*
X015582Y008845D01*
X015427Y008781D01*
X015309Y008663D01*
X015245Y008509D01*
X015245Y007822D01*
X015309Y007667D01*
X015427Y007549D01*
X015582Y007485D01*
X015749Y007485D01*
X015903Y007549D01*
X016021Y007667D01*
X016085Y007822D01*
X016085Y007896D02*
X016245Y007896D01*
X016245Y008015D02*
X016085Y008015D01*
X016085Y008133D02*
X016245Y008133D01*
X016245Y008252D02*
X016085Y008252D01*
X016085Y008371D02*
X016245Y008371D01*
X016245Y008489D02*
X016085Y008489D01*
X016044Y008608D02*
X016286Y008608D01*
X016372Y008726D02*
X015958Y008726D01*
X015750Y008845D02*
X016445Y008845D01*
X016445Y008963D02*
X013885Y008963D01*
X013885Y008845D02*
X014581Y008845D01*
X014582Y008845D02*
X014427Y008781D01*
X014309Y008663D01*
X014245Y008509D01*
X014245Y007822D01*
X014309Y007667D01*
X014427Y007549D01*
X014582Y007485D01*
X014749Y007485D01*
X014903Y007549D01*
X015021Y007667D01*
X015085Y007822D01*
X015085Y008509D01*
X015021Y008663D01*
X014903Y008781D01*
X014749Y008845D01*
X014582Y008845D01*
X014750Y008845D02*
X015581Y008845D01*
X015372Y008726D02*
X014958Y008726D01*
X015044Y008608D02*
X015286Y008608D01*
X015245Y008489D02*
X015085Y008489D01*
X015085Y008371D02*
X015245Y008371D01*
X015245Y008252D02*
X015085Y008252D01*
X015085Y008133D02*
X015245Y008133D01*
X015245Y008015D02*
X015085Y008015D01*
X015085Y007896D02*
X015245Y007896D01*
X015263Y007778D02*
X015067Y007778D01*
X015013Y007659D02*
X015317Y007659D01*
X015448Y007541D02*
X014883Y007541D01*
X014448Y007541D02*
X013885Y007541D01*
X014013Y007659D02*
X014317Y007659D01*
X014263Y007778D02*
X014067Y007778D01*
X014085Y007896D02*
X014245Y007896D01*
X014245Y008015D02*
X014085Y008015D01*
X014085Y008133D02*
X014245Y008133D01*
X014245Y008252D02*
X014085Y008252D01*
X014085Y008371D02*
X014245Y008371D01*
X014245Y008489D02*
X014085Y008489D01*
X014044Y008608D02*
X014286Y008608D01*
X014372Y008726D02*
X013958Y008726D01*
X013885Y009082D02*
X016445Y009082D01*
X016445Y009200D02*
X013885Y009200D01*
X013913Y009319D02*
X015418Y009319D01*
X015491Y009245D02*
X015645Y009245D01*
X015645Y009645D01*
X015245Y009645D01*
X015245Y009491D01*
X015491Y009245D01*
X015645Y009319D02*
X015685Y009319D01*
X015685Y009437D02*
X015645Y009437D01*
X015645Y009556D02*
X015685Y009556D01*
X015685Y009674D02*
X016345Y009674D01*
X016445Y009556D02*
X016085Y009556D01*
X016031Y009437D02*
X016445Y009437D01*
X016445Y009319D02*
X015913Y009319D01*
X015645Y009674D02*
X014085Y009674D01*
X014085Y009556D02*
X015245Y009556D01*
X015299Y009437D02*
X014031Y009437D01*
X014085Y009793D02*
X015245Y009793D01*
X015318Y009912D02*
X014013Y009912D01*
X013318Y009912D02*
X013013Y009912D01*
X013085Y009793D02*
X013245Y009793D01*
X012665Y009665D02*
X012665Y008165D01*
X012245Y009793D02*
X011085Y009793D01*
X011013Y009912D02*
X012318Y009912D01*
X012415Y010415D02*
X011665Y011165D01*
X011248Y011216D02*
X010583Y011216D01*
X010583Y011097D02*
X011248Y011097D01*
X011248Y010978D02*
X010540Y010978D01*
X010450Y010860D02*
X011248Y010860D01*
X011248Y011334D02*
X010547Y011334D01*
X010468Y011453D02*
X011248Y011453D01*
X011330Y011571D02*
X010276Y011571D01*
X012000Y011571D02*
X012554Y011571D01*
X012362Y011453D02*
X012083Y011453D01*
X012083Y011334D02*
X012283Y011334D01*
X012248Y011216D02*
X012083Y011216D01*
X012083Y011097D02*
X012248Y011097D01*
X012291Y010978D02*
X012163Y010978D01*
X012282Y010860D02*
X012380Y010860D01*
X012400Y010741D02*
X016945Y010741D01*
X016945Y010623D02*
X016519Y010623D01*
X016637Y010504D02*
X016945Y010504D01*
X016945Y010386D02*
X016756Y010386D01*
X016874Y010267D02*
X016945Y010267D01*
X016415Y010415D02*
X017165Y009665D01*
X017165Y006665D01*
X016665Y006165D01*
X016665Y005165D01*
X016248Y004814D02*
X016082Y004814D01*
X016085Y004933D02*
X016245Y004933D01*
X016245Y005051D02*
X016085Y005051D01*
X016085Y005170D02*
X016245Y005170D01*
X016245Y005288D02*
X016085Y005288D01*
X016085Y005407D02*
X016245Y005407D01*
X016252Y005525D02*
X016078Y005525D01*
X016029Y005644D02*
X016301Y005644D01*
X016409Y005763D02*
X015922Y005763D01*
X016445Y005881D02*
X011885Y005881D01*
X011885Y006000D02*
X016445Y006000D01*
X016445Y006118D02*
X011885Y006118D01*
X011885Y006237D02*
X016445Y006237D01*
X016544Y006355D02*
X011885Y006355D01*
X011665Y006665D02*
X011665Y005165D01*
X011665Y004165D01*
X011165Y003665D01*
X010845Y003392D02*
X009486Y003392D01*
X009585Y003510D02*
X010745Y003510D01*
X010745Y003629D02*
X009585Y003629D01*
X009585Y003747D02*
X010745Y003747D01*
X010772Y003866D02*
X009558Y003866D01*
X009440Y003984D02*
X010890Y003984D01*
X011445Y004340D02*
X009151Y004340D01*
X009145Y003984D02*
X009185Y003984D01*
X009185Y003866D02*
X009145Y003866D01*
X009145Y003747D02*
X009185Y003747D01*
X009185Y003629D02*
X009145Y003629D01*
X009145Y003510D02*
X009185Y003510D01*
X009185Y003392D02*
X009145Y003392D01*
X009145Y003273D02*
X009185Y003273D01*
X009367Y003273D02*
X010963Y003273D01*
X009954Y002562D02*
X009877Y002562D01*
X009877Y002443D02*
X009954Y002443D01*
X009954Y002325D02*
X009877Y002325D01*
X009877Y002206D02*
X009954Y002206D01*
X009954Y002088D02*
X009877Y002088D01*
X009877Y001969D02*
X009954Y001969D01*
X009954Y001851D02*
X009877Y001851D01*
X009877Y001732D02*
X009954Y001732D01*
X009428Y001732D02*
X009202Y001732D01*
X009322Y001851D02*
X009405Y001851D01*
X009405Y001969D02*
X009386Y001969D01*
X009401Y002325D02*
X009405Y002325D01*
X009405Y002443D02*
X009352Y002443D01*
X009412Y002562D02*
X009240Y002562D01*
X008591Y002562D02*
X008240Y002562D01*
X008352Y002443D02*
X008478Y002443D01*
X008429Y002325D02*
X008401Y002325D01*
X008386Y001969D02*
X008444Y001969D01*
X008509Y001851D02*
X008322Y001851D01*
X008202Y001732D02*
X008628Y001732D01*
X007915Y002165D02*
X007915Y003115D01*
X007415Y004415D02*
X007665Y004665D01*
X007665Y005165D01*
X008523Y006118D02*
X008945Y006118D01*
X008945Y006000D02*
X008642Y006000D01*
X008760Y005881D02*
X008945Y005881D01*
X008945Y005763D02*
X008922Y005763D01*
X009385Y005763D02*
X009409Y005763D01*
X009922Y005763D02*
X010409Y005763D01*
X010301Y005644D02*
X010029Y005644D01*
X010078Y005525D02*
X010252Y005525D01*
X010245Y005407D02*
X010085Y005407D01*
X010085Y005288D02*
X010245Y005288D01*
X010245Y005170D02*
X010085Y005170D01*
X010085Y005051D02*
X010245Y005051D01*
X010245Y004933D02*
X010085Y004933D01*
X010082Y004814D02*
X010248Y004814D01*
X010297Y004696D02*
X010033Y004696D01*
X009931Y004577D02*
X010399Y004577D01*
X012033Y004696D02*
X012301Y004696D01*
X012254Y004814D02*
X012082Y004814D01*
X012085Y004933D02*
X012245Y004933D01*
X012245Y005051D02*
X012085Y005051D01*
X012928Y004577D02*
X013399Y004577D01*
X013297Y004696D02*
X013030Y004696D01*
X013076Y004814D02*
X013248Y004814D01*
X013245Y004933D02*
X013085Y004933D01*
X013085Y005051D02*
X013245Y005051D01*
X013245Y005288D02*
X013085Y005288D01*
X013085Y005407D02*
X013245Y005407D01*
X013252Y005525D02*
X013074Y005525D01*
X013025Y005644D02*
X013301Y005644D01*
X013409Y005763D02*
X012915Y005763D01*
X014085Y005051D02*
X014245Y005051D01*
X014245Y004933D02*
X014085Y004933D01*
X014082Y004814D02*
X014248Y004814D01*
X014297Y004696D02*
X014033Y004696D01*
X013931Y004577D02*
X014399Y004577D01*
X014445Y004459D02*
X013885Y004459D01*
X013885Y004340D02*
X014445Y004340D01*
X014445Y004221D02*
X013885Y004221D01*
X013885Y004103D02*
X014445Y004103D01*
X014445Y003984D02*
X013885Y003984D01*
X013885Y003866D02*
X014445Y003866D01*
X014445Y003747D02*
X013885Y003747D01*
X013885Y003629D02*
X014445Y003629D01*
X014459Y003510D02*
X013871Y003510D01*
X013753Y003392D02*
X014578Y003392D01*
X014696Y003273D02*
X013634Y003273D01*
X013635Y003155D02*
X014695Y003155D01*
X014714Y003036D02*
X013616Y003036D01*
X013561Y002918D02*
X014769Y002918D01*
X014902Y002799D02*
X013429Y002799D01*
X014885Y003747D02*
X017453Y003747D01*
X017585Y003853D02*
X017585Y003853D01*
X017619Y003866D02*
X014885Y003866D01*
X014885Y003984D02*
X017921Y003984D01*
X018539Y004071D02*
X018539Y004071D01*
X018916Y003984D02*
X020005Y003984D01*
X020005Y003866D02*
X019185Y003866D01*
X019391Y003747D02*
X020005Y003747D01*
X020005Y003629D02*
X019528Y003629D01*
X019450Y003713D02*
X019450Y003713D01*
X019638Y003510D02*
X020005Y003510D01*
X020005Y003392D02*
X019748Y003392D01*
X019787Y003350D02*
X019787Y003350D01*
X019824Y003273D02*
X020005Y003273D01*
X020005Y003155D02*
X019881Y003155D01*
X019938Y003036D02*
X020005Y003036D01*
X019995Y002918D02*
X020005Y002918D01*
X020005Y004103D02*
X014885Y004103D01*
X014885Y004221D02*
X020005Y004221D01*
X020005Y004340D02*
X014885Y004340D01*
X014963Y003629D02*
X017304Y003629D01*
X017198Y003544D02*
X017198Y003544D01*
X017198Y003544D01*
X017175Y003510D02*
X015364Y003510D01*
X015476Y003392D02*
X017094Y003392D01*
X017014Y003273D02*
X015525Y003273D01*
X015535Y003155D02*
X016933Y003155D01*
X016920Y003135D02*
X016920Y003135D01*
X016889Y003036D02*
X015555Y003036D01*
X015674Y002918D02*
X016852Y002918D01*
X016816Y002799D02*
X015792Y002799D01*
X015885Y002680D02*
X016779Y002680D01*
X016774Y002562D02*
X015885Y002562D01*
X015885Y002443D02*
X016774Y002443D01*
X016774Y002325D02*
X015885Y002325D01*
X015885Y002206D02*
X016774Y002206D01*
X016798Y002088D02*
X015885Y002088D01*
X015955Y001969D02*
X016835Y001969D01*
X016872Y001851D02*
X016074Y001851D01*
X016085Y001732D02*
X016908Y001732D01*
X016920Y001695D02*
X016920Y001695D01*
X016975Y001614D02*
X016085Y001614D01*
X016085Y001495D02*
X017056Y001495D01*
X017137Y001376D02*
X015970Y001376D01*
X015852Y001258D02*
X017234Y001258D01*
X017382Y001139D02*
X003471Y001139D01*
X003450Y001117D02*
X003450Y001117D01*
X003283Y001021D02*
X017531Y001021D01*
X017777Y000902D02*
X003078Y000902D01*
X003022Y000870D02*
X003022Y000870D01*
X006165Y001415D02*
X007165Y001415D01*
X007415Y001665D01*
X015931Y004577D02*
X016399Y004577D01*
X016297Y004696D02*
X016033Y004696D01*
X017665Y005165D02*
X017665Y006165D01*
X018165Y006665D01*
X018165Y009665D01*
X018665Y010165D01*
X018665Y011165D01*
X018915Y011665D02*
X018165Y011665D01*
X017665Y011165D01*
X016838Y011571D02*
X016776Y011571D01*
X016827Y011690D02*
X016048Y011690D01*
X016139Y011808D02*
X016858Y011808D01*
X016948Y011927D02*
X016140Y011927D01*
X016140Y012164D02*
X020005Y012164D01*
X020005Y012282D02*
X018876Y012282D01*
X018839Y012245D02*
X019085Y012491D01*
X019085Y012645D01*
X018685Y012645D01*
X018685Y012245D01*
X018839Y012245D01*
X018685Y012282D02*
X018645Y012282D01*
X018645Y012245D02*
X018645Y012645D01*
X018245Y012645D01*
X018245Y012491D01*
X018491Y012245D01*
X018645Y012245D01*
X018645Y012401D02*
X018685Y012401D01*
X018685Y012520D02*
X018645Y012520D01*
X018645Y012638D02*
X018685Y012638D01*
X018685Y012645D02*
X018645Y012645D01*
X018645Y012685D01*
X018245Y012685D01*
X018245Y012839D01*
X018491Y013085D01*
X018645Y013085D01*
X018645Y012685D01*
X018685Y012685D01*
X018685Y013085D01*
X018839Y013085D01*
X019085Y012839D01*
X019085Y012685D01*
X018685Y012685D01*
X018685Y012645D01*
X018685Y012757D02*
X018645Y012757D01*
X018645Y012875D02*
X018685Y012875D01*
X018685Y012994D02*
X018645Y012994D01*
X018400Y012994D02*
X016140Y012994D01*
X016140Y013112D02*
X020005Y013112D01*
X020005Y012994D02*
X018931Y012994D01*
X019049Y012875D02*
X020005Y012875D01*
X020005Y012757D02*
X019085Y012757D01*
X019085Y012638D02*
X020005Y012638D01*
X020005Y012520D02*
X019085Y012520D01*
X018995Y012401D02*
X020005Y012401D01*
X020005Y012045D02*
X015720Y012045D01*
X015720Y011927D02*
X015610Y011927D01*
X015610Y011808D02*
X015720Y011808D01*
X015720Y011690D02*
X015610Y011690D01*
X015554Y011571D02*
X015382Y011571D01*
X015362Y011453D02*
X015264Y011453D01*
X015283Y011334D02*
X015145Y011334D01*
X015083Y011216D02*
X015248Y011216D01*
X015248Y011097D02*
X015083Y011097D01*
X015040Y010978D02*
X015291Y010978D01*
X015380Y010860D02*
X014950Y010860D01*
X014665Y011165D02*
X015165Y011665D01*
X015165Y012665D01*
X015665Y012665D01*
X016140Y012638D02*
X018245Y012638D01*
X018245Y012520D02*
X016140Y012520D01*
X016140Y012401D02*
X018335Y012401D01*
X018454Y012282D02*
X016140Y012282D01*
X016140Y012757D02*
X018245Y012757D01*
X018281Y012875D02*
X016140Y012875D01*
X016140Y013231D02*
X020005Y013231D01*
X020005Y013349D02*
X016140Y013349D01*
X014665Y012665D02*
X014165Y012665D01*
X014165Y011665D01*
X013665Y011165D01*
X013380Y010860D02*
X012950Y010860D01*
X013040Y010978D02*
X013291Y010978D01*
X013248Y011097D02*
X013083Y011097D01*
X013083Y011216D02*
X013248Y011216D01*
X013283Y011334D02*
X013145Y011334D01*
X013264Y011453D02*
X013362Y011453D01*
X013382Y011571D02*
X013554Y011571D01*
X013610Y011690D02*
X013720Y011690D01*
X013720Y011808D02*
X013610Y011808D01*
X013610Y011927D02*
X013720Y011927D01*
X013165Y011665D02*
X012665Y011165D01*
X013165Y011665D02*
X013165Y012665D01*
X013665Y012665D01*
X012685Y012757D02*
X012645Y012757D01*
X012645Y012875D02*
X012685Y012875D01*
X012685Y012994D02*
X012645Y012994D01*
X012645Y013112D02*
X012685Y013112D01*
X012243Y013942D02*
X011385Y013942D01*
X011385Y014061D02*
X012194Y014061D01*
X012190Y014179D02*
X011385Y014179D01*
X011385Y014298D02*
X012206Y014298D01*
X012255Y014416D02*
X011385Y014416D01*
X011385Y014535D02*
X012363Y014535D01*
X011165Y013665D02*
X013665Y013665D01*
X014610Y011927D02*
X014720Y011927D01*
X014720Y011808D02*
X014610Y011808D01*
X014610Y011690D02*
X014720Y011690D01*
X014554Y011571D02*
X014382Y011571D01*
X014362Y011453D02*
X014264Y011453D01*
X014283Y011334D02*
X014145Y011334D01*
X014083Y011216D02*
X014248Y011216D01*
X014248Y011097D02*
X014083Y011097D01*
X014040Y010978D02*
X014291Y010978D01*
X014380Y010860D02*
X013950Y010860D01*
X012415Y010415D02*
X016415Y010415D01*
X016108Y009912D02*
X016013Y009912D01*
X016085Y009793D02*
X016226Y009793D01*
X016380Y010860D02*
X015950Y010860D01*
X015665Y011165D02*
X016665Y011165D01*
X016362Y011453D02*
X015968Y011453D01*
X015776Y011571D02*
X016554Y011571D01*
X018915Y011665D02*
X019165Y011415D01*
X019165Y006665D01*
X018665Y006165D01*
X018665Y005165D01*
X018927Y006948D02*
X018945Y006948D01*
X016448Y007541D02*
X015883Y007541D01*
X016013Y007659D02*
X016317Y007659D01*
X016401Y015839D02*
X015929Y015839D01*
X016031Y015957D02*
X016299Y015957D01*
X016250Y016076D02*
X016080Y016076D01*
X016083Y016194D02*
X016248Y016194D01*
X016275Y016313D02*
X016056Y016313D01*
X015989Y016431D02*
X016341Y016431D01*
X016385Y016550D02*
X015945Y016550D01*
X015945Y016669D02*
X016385Y016669D01*
X016385Y016787D02*
X015945Y016787D01*
X015945Y016906D02*
X016385Y016906D01*
X016385Y017024D02*
X015945Y017024D01*
X015945Y017143D02*
X016292Y017143D01*
X016173Y017261D02*
X015928Y017261D01*
X015846Y017380D02*
X016055Y017380D01*
X015936Y017498D02*
X015728Y017498D01*
X010184Y016431D02*
X010146Y016431D01*
X010146Y016313D02*
X010184Y016313D01*
X010184Y016194D02*
X010146Y016194D01*
X010146Y016076D02*
X010184Y016076D01*
X010184Y015957D02*
X010146Y015957D01*
X010146Y015839D02*
X010184Y015839D01*
X006165Y012665D02*
X005665Y012665D01*
X005665Y011665D01*
X005165Y011165D01*
X004880Y010860D02*
X004450Y010860D01*
X004540Y010978D02*
X004791Y010978D01*
X004748Y011097D02*
X004583Y011097D01*
X004583Y011216D02*
X004748Y011216D01*
X004783Y011334D02*
X004645Y011334D01*
X004764Y011453D02*
X004862Y011453D01*
X004882Y011571D02*
X005054Y011571D01*
X005110Y011690D02*
X005220Y011690D01*
X005220Y011808D02*
X005110Y011808D01*
X005110Y011927D02*
X005220Y011927D01*
X004665Y011665D02*
X004665Y012665D01*
X005165Y012665D01*
X004665Y011665D02*
X004165Y011165D01*
X004054Y011571D02*
X003885Y011571D01*
X001704Y014772D02*
X001627Y014772D01*
X001627Y014890D02*
X001704Y014890D01*
X001704Y015009D02*
X001627Y015009D01*
X001627Y015127D02*
X001704Y015127D01*
X007450Y010860D02*
X007880Y010860D01*
D24*
X003665Y007165D03*
X017165Y011665D03*
X018665Y007165D03*
D25*
X016665Y016165D02*
X016665Y017165D01*
X016165Y017665D01*
X016165Y018665D01*
X015165Y018665D02*
X015165Y017665D01*
X015665Y017165D01*
X015665Y016165D01*
X014665Y016165D02*
X014665Y017165D01*
X014165Y017665D01*
X014165Y018665D01*
X013165Y018665D02*
X013165Y017665D01*
X013665Y017165D01*
X013665Y016165D01*
X008165Y016165D02*
X008165Y017165D01*
X007665Y017665D01*
X007665Y018665D01*
X006665Y018665D02*
X006665Y017665D01*
X007165Y017165D01*
X007165Y016165D01*
X006165Y016165D02*
X006165Y017165D01*
X005665Y017665D01*
X005665Y018665D01*
X004665Y018665D02*
X004665Y017665D01*
X005165Y017165D01*
X005165Y016165D01*
D26*
X007415Y004415D02*
X007415Y001665D01*
M02*
