%
M48
M72
T01C0.0197
T02C0.0315
T03C0.0320
T04C0.0394
T05C0.1260
%
T01
X3665Y7165
X17165Y11665
X18665Y7165
T02
X3165Y11165
X4165Y11165
X5165Y11165
X6165Y11165
X7165Y11165
X8165Y11165
X9165Y11165
X10165Y11165
X11665Y11165
X12665Y11165
X13665Y11165
X14665Y11165
X15665Y11165
X16665Y11165
X17665Y11165
X18665Y11165
X18665Y16165
X17665Y16165
X16665Y16165
X15665Y16165
X14665Y16165
X13665Y16165
X12665Y16165
X11665Y16165
X10165Y16165
X9165Y16165
X8165Y16165
X7165Y16165
X6165Y16165
X5165Y16165
X4165Y16165
X3165Y16165
T03
X4165Y14165
X4165Y13165
X3665Y8665
X2165Y8665
X5665Y8165
X6665Y8165
X7665Y8165
X8665Y8165
X9665Y8165
X10665Y8165
X11665Y8165
X12665Y8165
X13665Y8165
X14665Y8165
X15665Y8165
X16665Y8165
X17665Y8165
X18665Y8165
X15665Y9665
X13665Y9665
X12665Y9665
X10665Y9665
X10165Y12665
X10165Y14665
X12665Y14165
X12665Y13165
X18665Y12665
X18665Y14665
X18665Y5165
X17665Y5165
X16665Y5165
X15665Y5165
X14665Y5165
X13665Y5165
X12665Y5165
X11665Y5165
X10665Y5165
X9665Y5165
X8665Y5165
X7665Y5165
X6665Y5165
X5665Y5165
X6165Y3665
X4165Y3665
X3665Y4665
X2165Y4665
X9165Y3665
X11165Y3665
X13215Y3165
X13665Y1665
X12665Y1665
X14665Y1665
X15665Y1665
X15115Y3165
T04
X4915Y2165
X5915Y2165
X6915Y2165
X7915Y2165
X8915Y2165
X9915Y2165
X1665Y12665
X1665Y13665
X1665Y14665
X4665Y18665
X5665Y18665
X6665Y18665
X7665Y18665
X9415Y18665
X10415Y18665
X11415Y18665
X13165Y18665
X14165Y18665
X15165Y18665
X16165Y18665
T05
X2415Y2415
X18415Y2415
X18415Y18415
X2415Y18415
M30
