G75*
G70*
%OFA0B0*%
%FSLAX24Y24*%
%IPPOS*%
%LPD*%
%AMOC8*
5,1,8,0,0,1.08239X$1,22.5*
%
%ADD10C,0.0000*%
%ADD11C,0.0060*%
D10*
X000665Y002415D02*
X000665Y018415D01*
X001785Y018415D02*
X001787Y018465D01*
X001793Y018515D01*
X001803Y018564D01*
X001817Y018612D01*
X001834Y018659D01*
X001855Y018704D01*
X001880Y018748D01*
X001908Y018789D01*
X001940Y018828D01*
X001974Y018865D01*
X002011Y018899D01*
X002051Y018929D01*
X002093Y018956D01*
X002137Y018980D01*
X002183Y019001D01*
X002230Y019017D01*
X002278Y019030D01*
X002328Y019039D01*
X002377Y019044D01*
X002428Y019045D01*
X002478Y019042D01*
X002527Y019035D01*
X002576Y019024D01*
X002624Y019009D01*
X002670Y018991D01*
X002715Y018969D01*
X002758Y018943D01*
X002799Y018914D01*
X002838Y018882D01*
X002874Y018847D01*
X002906Y018809D01*
X002936Y018769D01*
X002963Y018726D01*
X002986Y018682D01*
X003005Y018636D01*
X003021Y018588D01*
X003033Y018539D01*
X003041Y018490D01*
X003045Y018440D01*
X003045Y018390D01*
X003041Y018340D01*
X003033Y018291D01*
X003021Y018242D01*
X003005Y018194D01*
X002986Y018148D01*
X002963Y018104D01*
X002936Y018061D01*
X002906Y018021D01*
X002874Y017983D01*
X002838Y017948D01*
X002799Y017916D01*
X002758Y017887D01*
X002715Y017861D01*
X002670Y017839D01*
X002624Y017821D01*
X002576Y017806D01*
X002527Y017795D01*
X002478Y017788D01*
X002428Y017785D01*
X002377Y017786D01*
X002328Y017791D01*
X002278Y017800D01*
X002230Y017813D01*
X002183Y017829D01*
X002137Y017850D01*
X002093Y017874D01*
X002051Y017901D01*
X002011Y017931D01*
X001974Y017965D01*
X001940Y018002D01*
X001908Y018041D01*
X001880Y018082D01*
X001855Y018126D01*
X001834Y018171D01*
X001817Y018218D01*
X001803Y018266D01*
X001793Y018315D01*
X001787Y018365D01*
X001785Y018415D01*
X000665Y018415D02*
X000667Y018498D01*
X000673Y018581D01*
X000683Y018664D01*
X000697Y018746D01*
X000714Y018828D01*
X000736Y018908D01*
X000761Y018987D01*
X000790Y019065D01*
X000823Y019142D01*
X000860Y019217D01*
X000899Y019290D01*
X000943Y019361D01*
X000989Y019430D01*
X001039Y019497D01*
X001092Y019561D01*
X001148Y019623D01*
X001207Y019682D01*
X001269Y019738D01*
X001333Y019791D01*
X001400Y019841D01*
X001469Y019887D01*
X001540Y019931D01*
X001613Y019970D01*
X001688Y020007D01*
X001765Y020040D01*
X001843Y020069D01*
X001922Y020094D01*
X002002Y020116D01*
X002084Y020133D01*
X002166Y020147D01*
X002249Y020157D01*
X002332Y020163D01*
X002415Y020165D01*
X018415Y020165D01*
X017785Y018415D02*
X017787Y018465D01*
X017793Y018515D01*
X017803Y018564D01*
X017817Y018612D01*
X017834Y018659D01*
X017855Y018704D01*
X017880Y018748D01*
X017908Y018789D01*
X017940Y018828D01*
X017974Y018865D01*
X018011Y018899D01*
X018051Y018929D01*
X018093Y018956D01*
X018137Y018980D01*
X018183Y019001D01*
X018230Y019017D01*
X018278Y019030D01*
X018328Y019039D01*
X018377Y019044D01*
X018428Y019045D01*
X018478Y019042D01*
X018527Y019035D01*
X018576Y019024D01*
X018624Y019009D01*
X018670Y018991D01*
X018715Y018969D01*
X018758Y018943D01*
X018799Y018914D01*
X018838Y018882D01*
X018874Y018847D01*
X018906Y018809D01*
X018936Y018769D01*
X018963Y018726D01*
X018986Y018682D01*
X019005Y018636D01*
X019021Y018588D01*
X019033Y018539D01*
X019041Y018490D01*
X019045Y018440D01*
X019045Y018390D01*
X019041Y018340D01*
X019033Y018291D01*
X019021Y018242D01*
X019005Y018194D01*
X018986Y018148D01*
X018963Y018104D01*
X018936Y018061D01*
X018906Y018021D01*
X018874Y017983D01*
X018838Y017948D01*
X018799Y017916D01*
X018758Y017887D01*
X018715Y017861D01*
X018670Y017839D01*
X018624Y017821D01*
X018576Y017806D01*
X018527Y017795D01*
X018478Y017788D01*
X018428Y017785D01*
X018377Y017786D01*
X018328Y017791D01*
X018278Y017800D01*
X018230Y017813D01*
X018183Y017829D01*
X018137Y017850D01*
X018093Y017874D01*
X018051Y017901D01*
X018011Y017931D01*
X017974Y017965D01*
X017940Y018002D01*
X017908Y018041D01*
X017880Y018082D01*
X017855Y018126D01*
X017834Y018171D01*
X017817Y018218D01*
X017803Y018266D01*
X017793Y018315D01*
X017787Y018365D01*
X017785Y018415D01*
X018415Y020165D02*
X018498Y020163D01*
X018581Y020157D01*
X018664Y020147D01*
X018746Y020133D01*
X018828Y020116D01*
X018908Y020094D01*
X018987Y020069D01*
X019065Y020040D01*
X019142Y020007D01*
X019217Y019970D01*
X019290Y019931D01*
X019361Y019887D01*
X019430Y019841D01*
X019497Y019791D01*
X019561Y019738D01*
X019623Y019682D01*
X019682Y019623D01*
X019738Y019561D01*
X019791Y019497D01*
X019841Y019430D01*
X019887Y019361D01*
X019931Y019290D01*
X019970Y019217D01*
X020007Y019142D01*
X020040Y019065D01*
X020069Y018987D01*
X020094Y018908D01*
X020116Y018828D01*
X020133Y018746D01*
X020147Y018664D01*
X020157Y018581D01*
X020163Y018498D01*
X020165Y018415D01*
X020165Y002415D01*
X017785Y002415D02*
X017787Y002465D01*
X017793Y002515D01*
X017803Y002564D01*
X017817Y002612D01*
X017834Y002659D01*
X017855Y002704D01*
X017880Y002748D01*
X017908Y002789D01*
X017940Y002828D01*
X017974Y002865D01*
X018011Y002899D01*
X018051Y002929D01*
X018093Y002956D01*
X018137Y002980D01*
X018183Y003001D01*
X018230Y003017D01*
X018278Y003030D01*
X018328Y003039D01*
X018377Y003044D01*
X018428Y003045D01*
X018478Y003042D01*
X018527Y003035D01*
X018576Y003024D01*
X018624Y003009D01*
X018670Y002991D01*
X018715Y002969D01*
X018758Y002943D01*
X018799Y002914D01*
X018838Y002882D01*
X018874Y002847D01*
X018906Y002809D01*
X018936Y002769D01*
X018963Y002726D01*
X018986Y002682D01*
X019005Y002636D01*
X019021Y002588D01*
X019033Y002539D01*
X019041Y002490D01*
X019045Y002440D01*
X019045Y002390D01*
X019041Y002340D01*
X019033Y002291D01*
X019021Y002242D01*
X019005Y002194D01*
X018986Y002148D01*
X018963Y002104D01*
X018936Y002061D01*
X018906Y002021D01*
X018874Y001983D01*
X018838Y001948D01*
X018799Y001916D01*
X018758Y001887D01*
X018715Y001861D01*
X018670Y001839D01*
X018624Y001821D01*
X018576Y001806D01*
X018527Y001795D01*
X018478Y001788D01*
X018428Y001785D01*
X018377Y001786D01*
X018328Y001791D01*
X018278Y001800D01*
X018230Y001813D01*
X018183Y001829D01*
X018137Y001850D01*
X018093Y001874D01*
X018051Y001901D01*
X018011Y001931D01*
X017974Y001965D01*
X017940Y002002D01*
X017908Y002041D01*
X017880Y002082D01*
X017855Y002126D01*
X017834Y002171D01*
X017817Y002218D01*
X017803Y002266D01*
X017793Y002315D01*
X017787Y002365D01*
X017785Y002415D01*
X018415Y000665D02*
X018498Y000667D01*
X018581Y000673D01*
X018664Y000683D01*
X018746Y000697D01*
X018828Y000714D01*
X018908Y000736D01*
X018987Y000761D01*
X019065Y000790D01*
X019142Y000823D01*
X019217Y000860D01*
X019290Y000899D01*
X019361Y000943D01*
X019430Y000989D01*
X019497Y001039D01*
X019561Y001092D01*
X019623Y001148D01*
X019682Y001207D01*
X019738Y001269D01*
X019791Y001333D01*
X019841Y001400D01*
X019887Y001469D01*
X019931Y001540D01*
X019970Y001613D01*
X020007Y001688D01*
X020040Y001765D01*
X020069Y001843D01*
X020094Y001922D01*
X020116Y002002D01*
X020133Y002084D01*
X020147Y002166D01*
X020157Y002249D01*
X020163Y002332D01*
X020165Y002415D01*
X018415Y000665D02*
X002415Y000665D01*
X001785Y002415D02*
X001787Y002465D01*
X001793Y002515D01*
X001803Y002564D01*
X001817Y002612D01*
X001834Y002659D01*
X001855Y002704D01*
X001880Y002748D01*
X001908Y002789D01*
X001940Y002828D01*
X001974Y002865D01*
X002011Y002899D01*
X002051Y002929D01*
X002093Y002956D01*
X002137Y002980D01*
X002183Y003001D01*
X002230Y003017D01*
X002278Y003030D01*
X002328Y003039D01*
X002377Y003044D01*
X002428Y003045D01*
X002478Y003042D01*
X002527Y003035D01*
X002576Y003024D01*
X002624Y003009D01*
X002670Y002991D01*
X002715Y002969D01*
X002758Y002943D01*
X002799Y002914D01*
X002838Y002882D01*
X002874Y002847D01*
X002906Y002809D01*
X002936Y002769D01*
X002963Y002726D01*
X002986Y002682D01*
X003005Y002636D01*
X003021Y002588D01*
X003033Y002539D01*
X003041Y002490D01*
X003045Y002440D01*
X003045Y002390D01*
X003041Y002340D01*
X003033Y002291D01*
X003021Y002242D01*
X003005Y002194D01*
X002986Y002148D01*
X002963Y002104D01*
X002936Y002061D01*
X002906Y002021D01*
X002874Y001983D01*
X002838Y001948D01*
X002799Y001916D01*
X002758Y001887D01*
X002715Y001861D01*
X002670Y001839D01*
X002624Y001821D01*
X002576Y001806D01*
X002527Y001795D01*
X002478Y001788D01*
X002428Y001785D01*
X002377Y001786D01*
X002328Y001791D01*
X002278Y001800D01*
X002230Y001813D01*
X002183Y001829D01*
X002137Y001850D01*
X002093Y001874D01*
X002051Y001901D01*
X002011Y001931D01*
X001974Y001965D01*
X001940Y002002D01*
X001908Y002041D01*
X001880Y002082D01*
X001855Y002126D01*
X001834Y002171D01*
X001817Y002218D01*
X001803Y002266D01*
X001793Y002315D01*
X001787Y002365D01*
X001785Y002415D01*
X000665Y002415D02*
X000667Y002332D01*
X000673Y002249D01*
X000683Y002166D01*
X000697Y002084D01*
X000714Y002002D01*
X000736Y001922D01*
X000761Y001843D01*
X000790Y001765D01*
X000823Y001688D01*
X000860Y001613D01*
X000899Y001540D01*
X000943Y001469D01*
X000989Y001400D01*
X001039Y001333D01*
X001092Y001269D01*
X001148Y001207D01*
X001207Y001148D01*
X001269Y001092D01*
X001333Y001039D01*
X001400Y000989D01*
X001469Y000943D01*
X001540Y000899D01*
X001613Y000860D01*
X001688Y000823D01*
X001765Y000790D01*
X001843Y000761D01*
X001922Y000736D01*
X002002Y000714D01*
X002084Y000697D01*
X002166Y000683D01*
X002249Y000673D01*
X002332Y000667D01*
X002415Y000665D01*
D11*
X007515Y002865D02*
X007515Y003965D01*
X007517Y003982D01*
X007521Y003999D01*
X007528Y004015D01*
X007538Y004029D01*
X007551Y004042D01*
X007565Y004052D01*
X007581Y004059D01*
X007598Y004063D01*
X007615Y004065D01*
X008215Y004065D01*
X008232Y004063D01*
X008249Y004059D01*
X008265Y004052D01*
X008279Y004042D01*
X008292Y004029D01*
X008302Y004015D01*
X008309Y003999D01*
X008313Y003982D01*
X008315Y003965D01*
X008315Y002865D01*
X008395Y002852D02*
X008395Y002965D01*
X008452Y003022D01*
X008509Y003022D01*
X008565Y002965D01*
X008565Y002852D01*
X008622Y002795D01*
X008679Y002795D01*
X008735Y002852D01*
X008735Y002965D01*
X008679Y003022D01*
X008735Y003277D02*
X008735Y003390D01*
X008735Y003334D02*
X008452Y003334D01*
X008395Y003277D01*
X008395Y003220D01*
X008452Y003164D01*
X008452Y003532D02*
X008395Y003532D01*
X008452Y003532D02*
X008679Y003759D01*
X008735Y003759D01*
X008735Y003532D01*
X008395Y002852D02*
X008452Y002795D01*
X008215Y002765D02*
X007615Y002765D01*
X007598Y002767D01*
X007581Y002771D01*
X007565Y002778D01*
X007551Y002788D01*
X007538Y002801D01*
X007528Y002815D01*
X007521Y002831D01*
X007517Y002848D01*
X007515Y002865D01*
X008215Y002765D02*
X008232Y002767D01*
X008249Y002771D01*
X008265Y002778D01*
X008279Y002788D01*
X008292Y002801D01*
X008302Y002815D01*
X008309Y002831D01*
X008313Y002848D01*
X008315Y002865D01*
X009854Y006195D02*
X009967Y006195D01*
X010024Y006252D01*
X009797Y006479D01*
X009797Y006252D01*
X009854Y006195D01*
X010024Y006252D02*
X010024Y006479D01*
X009967Y006535D01*
X009854Y006535D01*
X009797Y006479D01*
X010151Y006252D02*
X010151Y006195D01*
X010208Y006195D01*
X010208Y006252D01*
X010151Y006252D01*
X010349Y006195D02*
X010576Y006195D01*
X010463Y006195D02*
X010463Y006535D01*
X010576Y006422D01*
X011081Y006422D02*
X011138Y006422D01*
X011251Y006309D01*
X011251Y006422D02*
X011251Y006195D01*
X011393Y006309D02*
X011620Y006309D01*
X011620Y006365D02*
X011563Y006422D01*
X011450Y006422D01*
X011393Y006365D01*
X011393Y006309D01*
X011450Y006195D02*
X011563Y006195D01*
X011620Y006252D01*
X011620Y006365D01*
X011752Y006195D02*
X011865Y006195D01*
X011809Y006195D02*
X011809Y006535D01*
X011865Y006535D01*
X012054Y006535D02*
X012054Y006195D01*
X012111Y006195D02*
X011997Y006195D01*
X012252Y006252D02*
X012252Y006365D01*
X012309Y006422D01*
X012422Y006422D01*
X012479Y006365D01*
X012479Y006252D01*
X012422Y006195D01*
X012309Y006195D01*
X012252Y006252D01*
X012111Y006535D02*
X012054Y006535D01*
X012616Y006422D02*
X012672Y006422D01*
X012786Y006309D01*
X012786Y006422D02*
X012786Y006195D01*
X012918Y006195D02*
X012975Y006252D01*
X012975Y006479D01*
X013031Y006422D02*
X012918Y006422D01*
X013173Y006365D02*
X013173Y006195D01*
X013173Y006365D02*
X013230Y006422D01*
X013400Y006422D01*
X013400Y006195D01*
X013541Y006252D02*
X013541Y006365D01*
X013598Y006422D01*
X013711Y006422D01*
X013768Y006365D01*
X013768Y006252D01*
X013711Y006195D01*
X013598Y006195D01*
X013541Y006252D01*
X013909Y006252D02*
X013966Y006195D01*
X014080Y006195D01*
X014136Y006252D01*
X014136Y006479D01*
X014080Y006535D01*
X013966Y006535D01*
X013909Y006479D01*
X013848Y006695D02*
X014075Y006695D01*
X014075Y007035D01*
X013650Y006922D02*
X013537Y006922D01*
X013480Y006865D01*
X013480Y006695D01*
X013650Y006695D01*
X013707Y006752D01*
X013650Y006809D01*
X013480Y006809D01*
X013338Y006922D02*
X013168Y006922D01*
X013112Y006865D01*
X013112Y006752D01*
X013168Y006695D01*
X013338Y006695D01*
X013338Y007035D01*
X012970Y006865D02*
X012913Y006922D01*
X012743Y006922D01*
X012800Y006809D02*
X012913Y006809D01*
X012970Y006865D01*
X012970Y006695D02*
X012800Y006695D01*
X012743Y006752D01*
X012800Y006809D01*
X014585Y006922D02*
X014585Y006639D01*
X014642Y006582D01*
X014698Y006582D01*
X014693Y006479D02*
X014693Y006252D01*
X014637Y006195D01*
X014637Y006422D02*
X014750Y006422D01*
X014892Y006365D02*
X014948Y006422D01*
X015062Y006422D01*
X015118Y006365D01*
X015118Y006252D01*
X015062Y006195D01*
X014948Y006195D01*
X014892Y006252D01*
X014892Y006365D01*
X014944Y006695D02*
X015000Y006752D01*
X015000Y006979D01*
X014944Y006922D02*
X015057Y006922D01*
X015246Y006922D02*
X015246Y006695D01*
X015303Y006695D02*
X015189Y006695D01*
X015317Y006535D02*
X015260Y006479D01*
X015260Y006422D01*
X015317Y006365D01*
X015487Y006365D01*
X015628Y006365D02*
X015628Y006309D01*
X015855Y006309D01*
X015855Y006365D02*
X015798Y006422D01*
X015685Y006422D01*
X015628Y006365D01*
X015685Y006195D02*
X015798Y006195D01*
X015855Y006252D01*
X015855Y006365D01*
X015992Y006422D02*
X016049Y006422D01*
X016162Y006309D01*
X016162Y006422D02*
X016162Y006195D01*
X016303Y006309D02*
X016530Y006309D01*
X016530Y006365D02*
X016474Y006422D01*
X016360Y006422D01*
X016303Y006365D01*
X016303Y006309D01*
X016360Y006195D02*
X016474Y006195D01*
X016530Y006252D01*
X016530Y006365D01*
X016672Y006365D02*
X016672Y006195D01*
X016672Y006365D02*
X016728Y006422D01*
X016842Y006422D01*
X016899Y006365D01*
X017040Y006365D02*
X017040Y006252D01*
X017097Y006195D01*
X017267Y006195D01*
X017267Y006082D02*
X017267Y006422D01*
X017097Y006422D01*
X017040Y006365D01*
X016899Y006535D02*
X016899Y006195D01*
X017408Y006252D02*
X017465Y006195D01*
X017579Y006195D01*
X017635Y006252D01*
X017579Y006365D02*
X017465Y006365D01*
X017408Y006309D01*
X017408Y006252D01*
X017579Y006365D02*
X017635Y006422D01*
X017635Y006479D01*
X017579Y006535D01*
X017465Y006535D01*
X017408Y006479D01*
X017465Y006695D02*
X017579Y006695D01*
X017635Y006752D01*
X017579Y006865D02*
X017465Y006865D01*
X017408Y006809D01*
X017408Y006752D01*
X017465Y006695D01*
X017579Y006865D02*
X017635Y006922D01*
X017635Y006979D01*
X017579Y007035D01*
X017465Y007035D01*
X017408Y006979D01*
X017267Y006922D02*
X017267Y006752D01*
X017210Y006695D01*
X017040Y006695D01*
X017040Y006922D01*
X016899Y006922D02*
X016899Y006695D01*
X016899Y006809D02*
X016785Y006922D01*
X016728Y006922D01*
X016592Y006922D02*
X016592Y006695D01*
X016592Y006809D02*
X016478Y006922D01*
X016422Y006922D01*
X016285Y006865D02*
X016228Y006922D01*
X016115Y006922D01*
X016058Y006865D01*
X016058Y006809D01*
X016285Y006809D01*
X016285Y006865D02*
X016285Y006752D01*
X016228Y006695D01*
X016115Y006695D01*
X015916Y006752D02*
X015860Y006809D01*
X015690Y006809D01*
X015690Y006865D02*
X015690Y006695D01*
X015860Y006695D01*
X015916Y006752D01*
X015860Y006922D02*
X015746Y006922D01*
X015690Y006865D01*
X015548Y006695D02*
X015435Y006695D01*
X015491Y006695D02*
X015491Y007035D01*
X015548Y007035D01*
X015303Y006922D02*
X015246Y006922D01*
X015246Y007035D02*
X015246Y007092D01*
X014812Y006922D02*
X014812Y006752D01*
X014755Y006695D01*
X014585Y006695D01*
X015317Y006535D02*
X015487Y006535D01*
X015487Y006195D01*
X015317Y006195D01*
X015260Y006252D01*
X015260Y006309D01*
X015317Y006365D01*
X015365Y011715D02*
X015965Y011715D01*
X015982Y011717D01*
X015999Y011721D01*
X016015Y011728D01*
X016029Y011738D01*
X016042Y011751D01*
X016052Y011765D01*
X016059Y011781D01*
X016063Y011798D01*
X016065Y011815D01*
X016065Y013515D01*
X016063Y013532D01*
X016059Y013549D01*
X016052Y013565D01*
X016042Y013579D01*
X016029Y013592D01*
X016015Y013602D01*
X015999Y013609D01*
X015982Y013613D01*
X015965Y013615D01*
X015365Y013615D01*
X015348Y013613D01*
X015331Y013609D01*
X015315Y013602D01*
X015301Y013592D01*
X015288Y013579D01*
X015278Y013565D01*
X015271Y013549D01*
X015267Y013532D01*
X015265Y013515D01*
X015265Y011815D01*
X015267Y011798D01*
X015271Y011781D01*
X015278Y011765D01*
X015288Y011751D01*
X015301Y011738D01*
X015315Y011728D01*
X015331Y011721D01*
X015348Y011717D01*
X015365Y011715D01*
X015065Y011815D02*
X015065Y013515D01*
X015063Y013532D01*
X015059Y013549D01*
X015052Y013565D01*
X015042Y013579D01*
X015029Y013592D01*
X015015Y013602D01*
X014999Y013609D01*
X014982Y013613D01*
X014965Y013615D01*
X014365Y013615D01*
X014348Y013613D01*
X014331Y013609D01*
X014315Y013602D01*
X014301Y013592D01*
X014288Y013579D01*
X014278Y013565D01*
X014271Y013549D01*
X014267Y013532D01*
X014265Y013515D01*
X014265Y011815D01*
X014267Y011798D01*
X014271Y011781D01*
X014278Y011765D01*
X014288Y011751D01*
X014301Y011738D01*
X014315Y011728D01*
X014331Y011721D01*
X014348Y011717D01*
X014365Y011715D01*
X014965Y011715D01*
X014982Y011717D01*
X014999Y011721D01*
X015015Y011728D01*
X015029Y011738D01*
X015042Y011751D01*
X015052Y011765D01*
X015059Y011781D01*
X015063Y011798D01*
X015065Y011815D01*
X014065Y011815D02*
X014065Y013515D01*
X014063Y013532D01*
X014059Y013549D01*
X014052Y013565D01*
X014042Y013579D01*
X014029Y013592D01*
X014015Y013602D01*
X013999Y013609D01*
X013982Y013613D01*
X013965Y013615D01*
X013365Y013615D01*
X013348Y013613D01*
X013331Y013609D01*
X013315Y013602D01*
X013301Y013592D01*
X013288Y013579D01*
X013278Y013565D01*
X013271Y013549D01*
X013267Y013532D01*
X013265Y013515D01*
X013265Y011815D01*
X013267Y011798D01*
X013271Y011781D01*
X013278Y011765D01*
X013288Y011751D01*
X013301Y011738D01*
X013315Y011728D01*
X013331Y011721D01*
X013348Y011717D01*
X013365Y011715D01*
X013965Y011715D01*
X013982Y011717D01*
X013999Y011721D01*
X014015Y011728D01*
X014029Y011738D01*
X014042Y011751D01*
X014052Y011765D01*
X014059Y011781D01*
X014063Y011798D01*
X014065Y011815D01*
X013729Y013745D02*
X013672Y013745D01*
X013615Y013802D01*
X013615Y013915D01*
X013559Y013972D01*
X013502Y013972D01*
X013445Y013915D01*
X013445Y013802D01*
X013502Y013745D01*
X013729Y013745D02*
X013785Y013802D01*
X013785Y013915D01*
X013729Y013972D01*
X013785Y014227D02*
X013785Y014340D01*
X013785Y014284D02*
X013502Y014284D01*
X013445Y014227D01*
X013445Y014170D01*
X013502Y014114D01*
X013615Y014482D02*
X013615Y014709D01*
X013445Y014652D02*
X013785Y014652D01*
X013615Y014482D01*
X014445Y014539D02*
X014502Y014482D01*
X014445Y014539D02*
X014445Y014652D01*
X014502Y014709D01*
X014615Y014709D01*
X014672Y014652D01*
X014672Y014595D01*
X014615Y014482D01*
X014785Y014482D01*
X014785Y014709D01*
X014785Y014340D02*
X014785Y014227D01*
X014785Y014284D02*
X014502Y014284D01*
X014445Y014227D01*
X014445Y014170D01*
X014502Y014114D01*
X014502Y013972D02*
X014445Y013915D01*
X014445Y013802D01*
X014502Y013745D01*
X014615Y013802D02*
X014615Y013915D01*
X014559Y013972D01*
X014502Y013972D01*
X014615Y013802D02*
X014672Y013745D01*
X014729Y013745D01*
X014785Y013802D01*
X014785Y013915D01*
X014729Y013972D01*
X015445Y013915D02*
X015445Y013802D01*
X015502Y013745D01*
X015615Y013802D02*
X015615Y013915D01*
X015559Y013972D01*
X015502Y013972D01*
X015445Y013915D01*
X015615Y013802D02*
X015672Y013745D01*
X015729Y013745D01*
X015785Y013802D01*
X015785Y013915D01*
X015729Y013972D01*
X015785Y014227D02*
X015785Y014340D01*
X015785Y014284D02*
X015502Y014284D01*
X015445Y014227D01*
X015445Y014170D01*
X015502Y014114D01*
X015502Y014482D02*
X015445Y014539D01*
X015445Y014652D01*
X015502Y014709D01*
X015559Y014709D01*
X015615Y014652D01*
X015615Y014482D01*
X015502Y014482D01*
X015615Y014482D02*
X015729Y014595D01*
X015785Y014709D01*
X007565Y013515D02*
X007565Y011815D01*
X007563Y011798D01*
X007559Y011781D01*
X007552Y011765D01*
X007542Y011751D01*
X007529Y011738D01*
X007515Y011728D01*
X007499Y011721D01*
X007482Y011717D01*
X007465Y011715D01*
X006865Y011715D01*
X006848Y011717D01*
X006831Y011721D01*
X006815Y011728D01*
X006801Y011738D01*
X006788Y011751D01*
X006778Y011765D01*
X006771Y011781D01*
X006767Y011798D01*
X006765Y011815D01*
X006765Y013515D01*
X006767Y013532D01*
X006771Y013549D01*
X006778Y013565D01*
X006788Y013579D01*
X006801Y013592D01*
X006815Y013602D01*
X006831Y013609D01*
X006848Y013613D01*
X006865Y013615D01*
X007465Y013615D01*
X007482Y013613D01*
X007499Y013609D01*
X007515Y013602D01*
X007529Y013592D01*
X007542Y013579D01*
X007552Y013565D01*
X007559Y013549D01*
X007563Y013532D01*
X007565Y013515D01*
X007285Y013802D02*
X007229Y013745D01*
X007172Y013745D01*
X007115Y013802D01*
X007115Y013915D01*
X007059Y013972D01*
X007002Y013972D01*
X006945Y013915D01*
X006945Y013802D01*
X007002Y013745D01*
X007285Y013802D02*
X007285Y013915D01*
X007229Y013972D01*
X007285Y014227D02*
X007285Y014340D01*
X007285Y014284D02*
X007002Y014284D01*
X006945Y014227D01*
X006945Y014170D01*
X007002Y014114D01*
X007002Y014482D02*
X006945Y014539D01*
X006945Y014652D01*
X007002Y014709D01*
X007059Y014709D01*
X007115Y014652D01*
X007115Y014595D01*
X007115Y014652D02*
X007172Y014709D01*
X007229Y014709D01*
X007285Y014652D01*
X007285Y014539D01*
X007229Y014482D01*
X006285Y014539D02*
X006229Y014482D01*
X006285Y014539D02*
X006285Y014652D01*
X006229Y014709D01*
X006172Y014709D01*
X005945Y014482D01*
X005945Y014709D01*
X006002Y014284D02*
X006285Y014284D01*
X006285Y014340D02*
X006285Y014227D01*
X006229Y013972D02*
X006285Y013915D01*
X006285Y013802D01*
X006229Y013745D01*
X006172Y013745D01*
X006115Y013802D01*
X006115Y013915D01*
X006059Y013972D01*
X006002Y013972D01*
X005945Y013915D01*
X005945Y013802D01*
X006002Y013745D01*
X005865Y013615D02*
X006465Y013615D01*
X006482Y013613D01*
X006499Y013609D01*
X006515Y013602D01*
X006529Y013592D01*
X006542Y013579D01*
X006552Y013565D01*
X006559Y013549D01*
X006563Y013532D01*
X006565Y013515D01*
X006565Y011815D01*
X006563Y011798D01*
X006559Y011781D01*
X006552Y011765D01*
X006542Y011751D01*
X006529Y011738D01*
X006515Y011728D01*
X006499Y011721D01*
X006482Y011717D01*
X006465Y011715D01*
X005865Y011715D01*
X005848Y011717D01*
X005831Y011721D01*
X005815Y011728D01*
X005801Y011738D01*
X005788Y011751D01*
X005778Y011765D01*
X005771Y011781D01*
X005767Y011798D01*
X005765Y011815D01*
X005765Y013515D01*
X005767Y013532D01*
X005771Y013549D01*
X005778Y013565D01*
X005788Y013579D01*
X005801Y013592D01*
X005815Y013602D01*
X005831Y013609D01*
X005848Y013613D01*
X005865Y013615D01*
X005565Y013515D02*
X005565Y011815D01*
X005563Y011798D01*
X005559Y011781D01*
X005552Y011765D01*
X005542Y011751D01*
X005529Y011738D01*
X005515Y011728D01*
X005499Y011721D01*
X005482Y011717D01*
X005465Y011715D01*
X004865Y011715D01*
X004848Y011717D01*
X004831Y011721D01*
X004815Y011728D01*
X004801Y011738D01*
X004788Y011751D01*
X004778Y011765D01*
X004771Y011781D01*
X004767Y011798D01*
X004765Y011815D01*
X004765Y013515D01*
X004767Y013532D01*
X004771Y013549D01*
X004778Y013565D01*
X004788Y013579D01*
X004801Y013592D01*
X004815Y013602D01*
X004831Y013609D01*
X004848Y013613D01*
X004865Y013615D01*
X005465Y013615D01*
X005482Y013613D01*
X005499Y013609D01*
X005515Y013602D01*
X005529Y013592D01*
X005542Y013579D01*
X005552Y013565D01*
X005559Y013549D01*
X005563Y013532D01*
X005565Y013515D01*
X005285Y013802D02*
X005229Y013745D01*
X005172Y013745D01*
X005115Y013802D01*
X005115Y013915D01*
X005059Y013972D01*
X005002Y013972D01*
X004945Y013915D01*
X004945Y013802D01*
X005002Y013745D01*
X005285Y013802D02*
X005285Y013915D01*
X005229Y013972D01*
X005285Y014227D02*
X005285Y014340D01*
X005285Y014284D02*
X005002Y014284D01*
X004945Y014227D01*
X004945Y014170D01*
X005002Y014114D01*
X004945Y014482D02*
X004945Y014709D01*
X004945Y014595D02*
X005285Y014595D01*
X005172Y014482D01*
X005945Y014227D02*
X006002Y014284D01*
X005945Y014227D02*
X005945Y014170D01*
X006002Y014114D01*
M02*
