G75*
G70*
%OFA0B0*%
%FSLAX24Y24*%
%IPPOS*%
%LPD*%
%AMOC8*
5,1,8,0,0,1.08239X$1,22.5*
%
%ADD10C,0.0000*%
%ADD11C,0.0060*%
%ADD12C,0.0100*%
%ADD13C,0.0120*%
%ADD14R,0.0240X0.0340*%
%ADD15C,0.0160*%
%ADD16C,0.0080*%
%ADD17C,0.0050*%
D10*
X000665Y002415D02*
X000665Y018415D01*
X001785Y018415D02*
X001787Y018465D01*
X001793Y018515D01*
X001803Y018564D01*
X001817Y018612D01*
X001834Y018659D01*
X001855Y018704D01*
X001880Y018748D01*
X001908Y018789D01*
X001940Y018828D01*
X001974Y018865D01*
X002011Y018899D01*
X002051Y018929D01*
X002093Y018956D01*
X002137Y018980D01*
X002183Y019001D01*
X002230Y019017D01*
X002278Y019030D01*
X002328Y019039D01*
X002377Y019044D01*
X002428Y019045D01*
X002478Y019042D01*
X002527Y019035D01*
X002576Y019024D01*
X002624Y019009D01*
X002670Y018991D01*
X002715Y018969D01*
X002758Y018943D01*
X002799Y018914D01*
X002838Y018882D01*
X002874Y018847D01*
X002906Y018809D01*
X002936Y018769D01*
X002963Y018726D01*
X002986Y018682D01*
X003005Y018636D01*
X003021Y018588D01*
X003033Y018539D01*
X003041Y018490D01*
X003045Y018440D01*
X003045Y018390D01*
X003041Y018340D01*
X003033Y018291D01*
X003021Y018242D01*
X003005Y018194D01*
X002986Y018148D01*
X002963Y018104D01*
X002936Y018061D01*
X002906Y018021D01*
X002874Y017983D01*
X002838Y017948D01*
X002799Y017916D01*
X002758Y017887D01*
X002715Y017861D01*
X002670Y017839D01*
X002624Y017821D01*
X002576Y017806D01*
X002527Y017795D01*
X002478Y017788D01*
X002428Y017785D01*
X002377Y017786D01*
X002328Y017791D01*
X002278Y017800D01*
X002230Y017813D01*
X002183Y017829D01*
X002137Y017850D01*
X002093Y017874D01*
X002051Y017901D01*
X002011Y017931D01*
X001974Y017965D01*
X001940Y018002D01*
X001908Y018041D01*
X001880Y018082D01*
X001855Y018126D01*
X001834Y018171D01*
X001817Y018218D01*
X001803Y018266D01*
X001793Y018315D01*
X001787Y018365D01*
X001785Y018415D01*
X000665Y018415D02*
X000667Y018498D01*
X000673Y018581D01*
X000683Y018664D01*
X000697Y018746D01*
X000714Y018828D01*
X000736Y018908D01*
X000761Y018987D01*
X000790Y019065D01*
X000823Y019142D01*
X000860Y019217D01*
X000899Y019290D01*
X000943Y019361D01*
X000989Y019430D01*
X001039Y019497D01*
X001092Y019561D01*
X001148Y019623D01*
X001207Y019682D01*
X001269Y019738D01*
X001333Y019791D01*
X001400Y019841D01*
X001469Y019887D01*
X001540Y019931D01*
X001613Y019970D01*
X001688Y020007D01*
X001765Y020040D01*
X001843Y020069D01*
X001922Y020094D01*
X002002Y020116D01*
X002084Y020133D01*
X002166Y020147D01*
X002249Y020157D01*
X002332Y020163D01*
X002415Y020165D01*
X018415Y020165D01*
X017785Y018415D02*
X017787Y018465D01*
X017793Y018515D01*
X017803Y018564D01*
X017817Y018612D01*
X017834Y018659D01*
X017855Y018704D01*
X017880Y018748D01*
X017908Y018789D01*
X017940Y018828D01*
X017974Y018865D01*
X018011Y018899D01*
X018051Y018929D01*
X018093Y018956D01*
X018137Y018980D01*
X018183Y019001D01*
X018230Y019017D01*
X018278Y019030D01*
X018328Y019039D01*
X018377Y019044D01*
X018428Y019045D01*
X018478Y019042D01*
X018527Y019035D01*
X018576Y019024D01*
X018624Y019009D01*
X018670Y018991D01*
X018715Y018969D01*
X018758Y018943D01*
X018799Y018914D01*
X018838Y018882D01*
X018874Y018847D01*
X018906Y018809D01*
X018936Y018769D01*
X018963Y018726D01*
X018986Y018682D01*
X019005Y018636D01*
X019021Y018588D01*
X019033Y018539D01*
X019041Y018490D01*
X019045Y018440D01*
X019045Y018390D01*
X019041Y018340D01*
X019033Y018291D01*
X019021Y018242D01*
X019005Y018194D01*
X018986Y018148D01*
X018963Y018104D01*
X018936Y018061D01*
X018906Y018021D01*
X018874Y017983D01*
X018838Y017948D01*
X018799Y017916D01*
X018758Y017887D01*
X018715Y017861D01*
X018670Y017839D01*
X018624Y017821D01*
X018576Y017806D01*
X018527Y017795D01*
X018478Y017788D01*
X018428Y017785D01*
X018377Y017786D01*
X018328Y017791D01*
X018278Y017800D01*
X018230Y017813D01*
X018183Y017829D01*
X018137Y017850D01*
X018093Y017874D01*
X018051Y017901D01*
X018011Y017931D01*
X017974Y017965D01*
X017940Y018002D01*
X017908Y018041D01*
X017880Y018082D01*
X017855Y018126D01*
X017834Y018171D01*
X017817Y018218D01*
X017803Y018266D01*
X017793Y018315D01*
X017787Y018365D01*
X017785Y018415D01*
X018415Y020165D02*
X018498Y020163D01*
X018581Y020157D01*
X018664Y020147D01*
X018746Y020133D01*
X018828Y020116D01*
X018908Y020094D01*
X018987Y020069D01*
X019065Y020040D01*
X019142Y020007D01*
X019217Y019970D01*
X019290Y019931D01*
X019361Y019887D01*
X019430Y019841D01*
X019497Y019791D01*
X019561Y019738D01*
X019623Y019682D01*
X019682Y019623D01*
X019738Y019561D01*
X019791Y019497D01*
X019841Y019430D01*
X019887Y019361D01*
X019931Y019290D01*
X019970Y019217D01*
X020007Y019142D01*
X020040Y019065D01*
X020069Y018987D01*
X020094Y018908D01*
X020116Y018828D01*
X020133Y018746D01*
X020147Y018664D01*
X020157Y018581D01*
X020163Y018498D01*
X020165Y018415D01*
X020165Y002415D01*
X017785Y002415D02*
X017787Y002465D01*
X017793Y002515D01*
X017803Y002564D01*
X017817Y002612D01*
X017834Y002659D01*
X017855Y002704D01*
X017880Y002748D01*
X017908Y002789D01*
X017940Y002828D01*
X017974Y002865D01*
X018011Y002899D01*
X018051Y002929D01*
X018093Y002956D01*
X018137Y002980D01*
X018183Y003001D01*
X018230Y003017D01*
X018278Y003030D01*
X018328Y003039D01*
X018377Y003044D01*
X018428Y003045D01*
X018478Y003042D01*
X018527Y003035D01*
X018576Y003024D01*
X018624Y003009D01*
X018670Y002991D01*
X018715Y002969D01*
X018758Y002943D01*
X018799Y002914D01*
X018838Y002882D01*
X018874Y002847D01*
X018906Y002809D01*
X018936Y002769D01*
X018963Y002726D01*
X018986Y002682D01*
X019005Y002636D01*
X019021Y002588D01*
X019033Y002539D01*
X019041Y002490D01*
X019045Y002440D01*
X019045Y002390D01*
X019041Y002340D01*
X019033Y002291D01*
X019021Y002242D01*
X019005Y002194D01*
X018986Y002148D01*
X018963Y002104D01*
X018936Y002061D01*
X018906Y002021D01*
X018874Y001983D01*
X018838Y001948D01*
X018799Y001916D01*
X018758Y001887D01*
X018715Y001861D01*
X018670Y001839D01*
X018624Y001821D01*
X018576Y001806D01*
X018527Y001795D01*
X018478Y001788D01*
X018428Y001785D01*
X018377Y001786D01*
X018328Y001791D01*
X018278Y001800D01*
X018230Y001813D01*
X018183Y001829D01*
X018137Y001850D01*
X018093Y001874D01*
X018051Y001901D01*
X018011Y001931D01*
X017974Y001965D01*
X017940Y002002D01*
X017908Y002041D01*
X017880Y002082D01*
X017855Y002126D01*
X017834Y002171D01*
X017817Y002218D01*
X017803Y002266D01*
X017793Y002315D01*
X017787Y002365D01*
X017785Y002415D01*
X018415Y000665D02*
X018498Y000667D01*
X018581Y000673D01*
X018664Y000683D01*
X018746Y000697D01*
X018828Y000714D01*
X018908Y000736D01*
X018987Y000761D01*
X019065Y000790D01*
X019142Y000823D01*
X019217Y000860D01*
X019290Y000899D01*
X019361Y000943D01*
X019430Y000989D01*
X019497Y001039D01*
X019561Y001092D01*
X019623Y001148D01*
X019682Y001207D01*
X019738Y001269D01*
X019791Y001333D01*
X019841Y001400D01*
X019887Y001469D01*
X019931Y001540D01*
X019970Y001613D01*
X020007Y001688D01*
X020040Y001765D01*
X020069Y001843D01*
X020094Y001922D01*
X020116Y002002D01*
X020133Y002084D01*
X020147Y002166D01*
X020157Y002249D01*
X020163Y002332D01*
X020165Y002415D01*
X018415Y000665D02*
X002415Y000665D01*
X001785Y002415D02*
X001787Y002465D01*
X001793Y002515D01*
X001803Y002564D01*
X001817Y002612D01*
X001834Y002659D01*
X001855Y002704D01*
X001880Y002748D01*
X001908Y002789D01*
X001940Y002828D01*
X001974Y002865D01*
X002011Y002899D01*
X002051Y002929D01*
X002093Y002956D01*
X002137Y002980D01*
X002183Y003001D01*
X002230Y003017D01*
X002278Y003030D01*
X002328Y003039D01*
X002377Y003044D01*
X002428Y003045D01*
X002478Y003042D01*
X002527Y003035D01*
X002576Y003024D01*
X002624Y003009D01*
X002670Y002991D01*
X002715Y002969D01*
X002758Y002943D01*
X002799Y002914D01*
X002838Y002882D01*
X002874Y002847D01*
X002906Y002809D01*
X002936Y002769D01*
X002963Y002726D01*
X002986Y002682D01*
X003005Y002636D01*
X003021Y002588D01*
X003033Y002539D01*
X003041Y002490D01*
X003045Y002440D01*
X003045Y002390D01*
X003041Y002340D01*
X003033Y002291D01*
X003021Y002242D01*
X003005Y002194D01*
X002986Y002148D01*
X002963Y002104D01*
X002936Y002061D01*
X002906Y002021D01*
X002874Y001983D01*
X002838Y001948D01*
X002799Y001916D01*
X002758Y001887D01*
X002715Y001861D01*
X002670Y001839D01*
X002624Y001821D01*
X002576Y001806D01*
X002527Y001795D01*
X002478Y001788D01*
X002428Y001785D01*
X002377Y001786D01*
X002328Y001791D01*
X002278Y001800D01*
X002230Y001813D01*
X002183Y001829D01*
X002137Y001850D01*
X002093Y001874D01*
X002051Y001901D01*
X002011Y001931D01*
X001974Y001965D01*
X001940Y002002D01*
X001908Y002041D01*
X001880Y002082D01*
X001855Y002126D01*
X001834Y002171D01*
X001817Y002218D01*
X001803Y002266D01*
X001793Y002315D01*
X001787Y002365D01*
X001785Y002415D01*
X000665Y002415D02*
X000667Y002332D01*
X000673Y002249D01*
X000683Y002166D01*
X000697Y002084D01*
X000714Y002002D01*
X000736Y001922D01*
X000761Y001843D01*
X000790Y001765D01*
X000823Y001688D01*
X000860Y001613D01*
X000899Y001540D01*
X000943Y001469D01*
X000989Y001400D01*
X001039Y001333D01*
X001092Y001269D01*
X001148Y001207D01*
X001207Y001148D01*
X001269Y001092D01*
X001333Y001039D01*
X001400Y000989D01*
X001469Y000943D01*
X001540Y000899D01*
X001613Y000860D01*
X001688Y000823D01*
X001765Y000790D01*
X001843Y000761D01*
X001922Y000736D01*
X002002Y000714D01*
X002084Y000697D01*
X002166Y000683D01*
X002249Y000673D01*
X002332Y000667D01*
X002415Y000665D01*
D11*
X001065Y002415D02*
X001067Y002488D01*
X001073Y002561D01*
X001083Y002633D01*
X001097Y002705D01*
X001114Y002776D01*
X001136Y002846D01*
X001161Y002915D01*
X001190Y002982D01*
X001222Y003047D01*
X001258Y003111D01*
X001298Y003173D01*
X001340Y003232D01*
X001386Y003289D01*
X001435Y003343D01*
X001487Y003395D01*
X001541Y003444D01*
X001598Y003490D01*
X001657Y003532D01*
X001719Y003572D01*
X001783Y003608D01*
X001848Y003640D01*
X001915Y003669D01*
X001984Y003694D01*
X002054Y003716D01*
X002125Y003733D01*
X002197Y003747D01*
X002269Y003757D01*
X002342Y003763D01*
X002415Y003765D01*
X002488Y003763D01*
X002561Y003757D01*
X002633Y003747D01*
X002705Y003733D01*
X002776Y003716D01*
X002846Y003694D01*
X002915Y003669D01*
X002982Y003640D01*
X003047Y003608D01*
X003111Y003572D01*
X003173Y003532D01*
X003232Y003490D01*
X003289Y003444D01*
X003343Y003395D01*
X003395Y003343D01*
X003444Y003289D01*
X003490Y003232D01*
X003532Y003173D01*
X003572Y003111D01*
X003608Y003047D01*
X003640Y002982D01*
X003669Y002915D01*
X003694Y002846D01*
X003716Y002776D01*
X003733Y002705D01*
X003747Y002633D01*
X003757Y002561D01*
X003763Y002488D01*
X003765Y002415D01*
X003763Y002342D01*
X003757Y002269D01*
X003747Y002197D01*
X003733Y002125D01*
X003716Y002054D01*
X003694Y001984D01*
X003669Y001915D01*
X003640Y001848D01*
X003608Y001783D01*
X003572Y001719D01*
X003532Y001657D01*
X003490Y001598D01*
X003444Y001541D01*
X003395Y001487D01*
X003343Y001435D01*
X003289Y001386D01*
X003232Y001340D01*
X003173Y001298D01*
X003111Y001258D01*
X003047Y001222D01*
X002982Y001190D01*
X002915Y001161D01*
X002846Y001136D01*
X002776Y001114D01*
X002705Y001097D01*
X002633Y001083D01*
X002561Y001073D01*
X002488Y001067D01*
X002415Y001065D01*
X002342Y001067D01*
X002269Y001073D01*
X002197Y001083D01*
X002125Y001097D01*
X002054Y001114D01*
X001984Y001136D01*
X001915Y001161D01*
X001848Y001190D01*
X001783Y001222D01*
X001719Y001258D01*
X001657Y001298D01*
X001598Y001340D01*
X001541Y001386D01*
X001487Y001435D01*
X001435Y001487D01*
X001386Y001541D01*
X001340Y001598D01*
X001298Y001657D01*
X001258Y001719D01*
X001222Y001783D01*
X001190Y001848D01*
X001161Y001915D01*
X001136Y001984D01*
X001114Y002054D01*
X001097Y002125D01*
X001083Y002197D01*
X001073Y002269D01*
X001067Y002342D01*
X001065Y002415D01*
X003715Y003265D02*
X003715Y004065D01*
X003717Y004082D01*
X003721Y004099D01*
X003728Y004115D01*
X003738Y004129D01*
X003751Y004142D01*
X003765Y004152D01*
X003781Y004159D01*
X003798Y004163D01*
X003815Y004165D01*
X006515Y004165D01*
X006532Y004163D01*
X006549Y004159D01*
X006565Y004152D01*
X006579Y004142D01*
X006592Y004129D01*
X006602Y004115D01*
X006609Y004099D01*
X006613Y004082D01*
X006615Y004065D01*
X006615Y003265D01*
X006613Y003248D01*
X006609Y003231D01*
X006602Y003215D01*
X006592Y003201D01*
X006579Y003188D01*
X006565Y003178D01*
X006549Y003171D01*
X006532Y003167D01*
X006515Y003165D01*
X003815Y003165D01*
X003798Y003167D01*
X003781Y003171D01*
X003765Y003178D01*
X003751Y003188D01*
X003738Y003201D01*
X003728Y003215D01*
X003721Y003231D01*
X003717Y003248D01*
X003715Y003265D01*
X004565Y003665D02*
X005045Y003665D01*
X005295Y003665D02*
X005765Y003665D01*
X005427Y004345D02*
X005427Y004515D01*
X005370Y004572D01*
X005200Y004572D01*
X005200Y004345D01*
X005059Y004402D02*
X005002Y004345D01*
X004889Y004345D01*
X004832Y004402D01*
X005059Y004629D01*
X005059Y004402D01*
X005059Y004629D02*
X005002Y004685D01*
X004889Y004685D01*
X004832Y004629D01*
X004832Y004402D01*
X004690Y004402D02*
X004634Y004345D01*
X004520Y004345D01*
X004464Y004402D01*
X004690Y004629D01*
X004690Y004402D01*
X004464Y004402D02*
X004464Y004629D01*
X004520Y004685D01*
X004634Y004685D01*
X004690Y004629D01*
X004690Y004845D02*
X004464Y004845D01*
X004577Y004845D02*
X004577Y005185D01*
X004464Y005072D01*
X004322Y005129D02*
X004265Y005185D01*
X004152Y005185D01*
X004095Y005129D01*
X004095Y004902D01*
X004152Y004845D01*
X004265Y004845D01*
X004322Y004902D01*
X004209Y004685D02*
X004209Y004345D01*
X004322Y004345D02*
X004095Y004345D01*
X004095Y004572D02*
X004209Y004685D01*
X004832Y004902D02*
X005059Y005129D01*
X005059Y004902D01*
X005002Y004845D01*
X004889Y004845D01*
X004832Y004902D01*
X004832Y005129D01*
X004889Y005185D01*
X005002Y005185D01*
X005059Y005129D01*
X004865Y005565D02*
X019465Y005565D01*
X019465Y007765D01*
X004865Y007765D01*
X004865Y006915D01*
X004895Y006913D01*
X004925Y006908D01*
X004954Y006899D01*
X004981Y006886D01*
X005007Y006871D01*
X005031Y006852D01*
X005052Y006831D01*
X005071Y006807D01*
X005086Y006781D01*
X005099Y006754D01*
X005108Y006725D01*
X005113Y006695D01*
X005115Y006665D01*
X005113Y006635D01*
X005108Y006605D01*
X005099Y006576D01*
X005086Y006549D01*
X005071Y006523D01*
X005052Y006499D01*
X005031Y006478D01*
X005007Y006459D01*
X004981Y006444D01*
X004954Y006431D01*
X004925Y006422D01*
X004895Y006417D01*
X004865Y006415D01*
X004865Y005565D01*
X004575Y005695D02*
X004575Y005809D01*
X004575Y005752D02*
X004235Y005752D01*
X004235Y005695D02*
X004235Y005809D01*
X004292Y005941D02*
X004519Y005941D01*
X004575Y005997D01*
X004575Y006111D01*
X004519Y006168D01*
X004575Y006309D02*
X004575Y006536D01*
X004575Y006422D02*
X004235Y006422D01*
X004348Y006309D01*
X004292Y006168D02*
X004235Y006111D01*
X004235Y005997D01*
X004292Y005941D01*
X004065Y005715D02*
X004065Y007615D01*
X004115Y007665D01*
X004115Y007815D01*
X004113Y007832D01*
X004109Y007849D01*
X004102Y007865D01*
X004092Y007879D01*
X004079Y007892D01*
X004065Y007902D01*
X004049Y007909D01*
X004032Y007913D01*
X004015Y007915D01*
X003315Y007915D01*
X003298Y007913D01*
X003281Y007909D01*
X003265Y007902D01*
X003251Y007892D01*
X003238Y007879D01*
X003228Y007865D01*
X003221Y007849D01*
X003217Y007832D01*
X003215Y007815D01*
X003215Y007665D01*
X003265Y007615D01*
X003265Y005715D01*
X003215Y005665D01*
X003215Y005515D01*
X003217Y005498D01*
X003221Y005481D01*
X003228Y005465D01*
X003238Y005451D01*
X003251Y005438D01*
X003265Y005428D01*
X003281Y005421D01*
X003298Y005417D01*
X003315Y005415D01*
X004015Y005415D01*
X004032Y005417D01*
X004049Y005421D01*
X004065Y005428D01*
X004079Y005438D01*
X004092Y005451D01*
X004102Y005465D01*
X004109Y005481D01*
X004113Y005498D01*
X004115Y005515D01*
X004115Y005665D01*
X004065Y005715D01*
X003035Y005722D02*
X002922Y005609D01*
X002922Y005665D02*
X002922Y005495D01*
X003035Y005495D02*
X002695Y005495D01*
X002695Y005665D01*
X002752Y005722D01*
X002865Y005722D01*
X002922Y005665D01*
X003035Y005864D02*
X003035Y006090D01*
X003035Y005977D02*
X002695Y005977D01*
X002808Y005864D01*
X002615Y005665D02*
X002565Y005715D01*
X002565Y007615D01*
X002615Y007665D01*
X002615Y007815D01*
X002613Y007832D01*
X002609Y007849D01*
X002602Y007865D01*
X002592Y007879D01*
X002579Y007892D01*
X002565Y007902D01*
X002549Y007909D01*
X002532Y007913D01*
X002515Y007915D01*
X001815Y007915D01*
X001798Y007913D01*
X001781Y007909D01*
X001765Y007902D01*
X001751Y007892D01*
X001738Y007879D01*
X001728Y007865D01*
X001721Y007849D01*
X001717Y007832D01*
X001715Y007815D01*
X001715Y007665D01*
X001765Y007615D01*
X001765Y005715D01*
X001715Y005665D01*
X001715Y005515D01*
X001717Y005498D01*
X001721Y005481D01*
X001728Y005465D01*
X001738Y005451D01*
X001751Y005438D01*
X001765Y005428D01*
X001781Y005421D01*
X001798Y005417D01*
X001815Y005415D01*
X002515Y005415D01*
X002532Y005417D01*
X002549Y005421D01*
X002565Y005428D01*
X002579Y005438D01*
X002592Y005451D01*
X002602Y005465D01*
X002609Y005481D01*
X002613Y005498D01*
X002615Y005515D01*
X002615Y005665D01*
X001535Y005722D02*
X001422Y005609D01*
X001422Y005665D02*
X001422Y005495D01*
X001535Y005495D02*
X001195Y005495D01*
X001195Y005665D01*
X001252Y005722D01*
X001365Y005722D01*
X001422Y005665D01*
X001535Y005864D02*
X001308Y006090D01*
X001252Y006090D01*
X001195Y006034D01*
X001195Y005920D01*
X001252Y005864D01*
X001535Y005864D02*
X001535Y006090D01*
X001535Y006730D02*
X001308Y006957D01*
X001252Y006957D01*
X001195Y006900D01*
X001195Y006787D01*
X001252Y006730D01*
X001535Y006730D02*
X001535Y006957D01*
X001535Y007099D02*
X001308Y007325D01*
X001252Y007325D01*
X001195Y007269D01*
X001195Y007155D01*
X001252Y007099D01*
X001535Y007099D02*
X001535Y007325D01*
X001479Y007467D02*
X001252Y007694D01*
X001479Y007694D01*
X001535Y007637D01*
X001535Y007524D01*
X001479Y007467D01*
X001252Y007467D01*
X001195Y007524D01*
X001195Y007637D01*
X001252Y007694D01*
X002695Y007694D02*
X002922Y007467D01*
X002865Y007524D02*
X003035Y007694D01*
X003035Y007467D02*
X002695Y007467D01*
X002752Y007325D02*
X002695Y007269D01*
X002695Y007155D01*
X002752Y007099D01*
X002979Y007099D01*
X002752Y007325D01*
X002979Y007325D01*
X003035Y007269D01*
X003035Y007155D01*
X002979Y007099D01*
X003035Y006957D02*
X003035Y006730D01*
X003035Y006844D02*
X002695Y006844D01*
X002808Y006730D01*
X002695Y009695D02*
X002695Y009922D01*
X002809Y010035D01*
X002922Y009922D01*
X002922Y009695D01*
X002922Y009865D02*
X002695Y009865D01*
X002695Y010195D02*
X002809Y010195D01*
X002752Y010195D02*
X002752Y010535D01*
X002695Y010535D02*
X002809Y010535D01*
X002941Y010479D02*
X002941Y010252D01*
X002997Y010195D01*
X003111Y010195D01*
X003168Y010252D01*
X003309Y010195D02*
X003536Y010422D01*
X003536Y010479D01*
X003479Y010535D01*
X003366Y010535D01*
X003309Y010479D01*
X003168Y010479D02*
X003111Y010535D01*
X002997Y010535D01*
X002941Y010479D01*
X003309Y010195D02*
X003536Y010195D01*
X003489Y010035D02*
X003432Y009979D01*
X003432Y009922D01*
X003489Y009865D01*
X003659Y009865D01*
X003659Y009752D02*
X003659Y009979D01*
X003602Y010035D01*
X003489Y010035D01*
X003234Y010035D02*
X003064Y009865D01*
X003290Y009865D01*
X003234Y009695D02*
X003234Y010035D01*
X003432Y009752D02*
X003489Y009695D01*
X003602Y009695D01*
X003659Y009752D01*
X003800Y009752D02*
X003800Y009809D01*
X003857Y009865D01*
X003970Y009865D01*
X004027Y009809D01*
X004027Y009752D01*
X003970Y009695D01*
X003857Y009695D01*
X003800Y009752D01*
X003857Y009865D02*
X003800Y009922D01*
X003800Y009979D01*
X003857Y010035D01*
X003970Y010035D01*
X004027Y009979D01*
X004027Y009922D01*
X003970Y009865D01*
X004168Y009809D02*
X004168Y009752D01*
X004225Y009695D01*
X004339Y009695D01*
X004395Y009752D01*
X004395Y009809D01*
X004339Y009865D01*
X004225Y009865D01*
X004168Y009922D01*
X004168Y009979D01*
X004225Y010035D01*
X004339Y010035D01*
X004395Y009979D01*
X004395Y009922D01*
X004339Y009865D01*
X004225Y009865D02*
X004168Y009809D01*
X006165Y009675D02*
X006165Y009475D01*
X006385Y009435D01*
X006423Y009447D02*
X006715Y009447D01*
X006715Y009415D02*
X006865Y009315D01*
X006715Y009065D01*
X006665Y009065D01*
X006515Y008965D01*
X006415Y009065D01*
X006515Y009215D01*
X006415Y009465D01*
X006215Y009515D01*
X006215Y009665D01*
X006415Y009665D01*
X006515Y009915D01*
X007515Y009915D01*
X007615Y009665D01*
X007815Y009665D01*
X007815Y009515D01*
X007565Y009465D01*
X007515Y009215D01*
X007615Y009065D01*
X007515Y008965D01*
X007365Y009065D01*
X007265Y009015D01*
X007165Y009315D01*
X007315Y009515D01*
X007265Y009765D01*
X007065Y009865D01*
X006865Y009865D01*
X006715Y009715D01*
X006715Y009415D01*
X006756Y009388D02*
X006446Y009388D01*
X006469Y009330D02*
X006844Y009330D01*
X006885Y009335D02*
X006735Y008995D01*
X006665Y009035D01*
X006485Y008915D01*
X006345Y009055D01*
X006465Y009235D01*
X006493Y009271D02*
X006839Y009271D01*
X006804Y009213D02*
X006513Y009213D01*
X006474Y009154D02*
X006768Y009154D01*
X006733Y009095D02*
X006435Y009095D01*
X006444Y009037D02*
X006623Y009037D01*
X006535Y008978D02*
X006502Y008978D01*
X006715Y009505D02*
X006255Y009505D01*
X006215Y009564D02*
X006715Y009564D01*
X006715Y009622D02*
X006215Y009622D01*
X006165Y009675D02*
X006395Y009715D01*
X006421Y009681D02*
X006715Y009681D01*
X006739Y009739D02*
X006445Y009739D01*
X006468Y009798D02*
X006798Y009798D01*
X006856Y009856D02*
X006492Y009856D01*
X006475Y009905D02*
X006345Y010095D01*
X006485Y010235D01*
X006675Y010105D01*
X006640Y010091D02*
X006384Y010091D01*
X006365Y010115D02*
X006515Y010215D01*
X006665Y010065D01*
X006865Y010165D01*
X006915Y010365D01*
X007065Y010365D01*
X007115Y010165D01*
X007315Y010065D01*
X007515Y010215D01*
X007615Y010115D01*
X007515Y009915D01*
X007525Y009905D02*
X007665Y010095D01*
X007525Y010235D01*
X007325Y010105D01*
X007349Y010091D02*
X007603Y010091D01*
X007581Y010149D02*
X007427Y010149D01*
X007505Y010208D02*
X007523Y010208D01*
X007574Y010032D02*
X006428Y010032D01*
X006471Y009974D02*
X007544Y009974D01*
X007539Y009856D02*
X007083Y009856D01*
X007200Y009798D02*
X007562Y009798D01*
X007586Y009739D02*
X007270Y009739D01*
X007282Y009681D02*
X007609Y009681D01*
X007615Y009715D02*
X007835Y009675D01*
X007835Y009475D01*
X007615Y009435D01*
X007561Y009447D02*
X007264Y009447D01*
X007308Y009505D02*
X007765Y009505D01*
X007815Y009564D02*
X007306Y009564D01*
X007294Y009622D02*
X007815Y009622D01*
X007550Y009388D02*
X007220Y009388D01*
X007176Y009330D02*
X007538Y009330D01*
X007526Y009271D02*
X007180Y009271D01*
X007199Y009213D02*
X007517Y009213D01*
X007535Y009235D02*
X007665Y009055D01*
X007525Y008915D01*
X007345Y009035D01*
X007265Y008995D01*
X007125Y009335D01*
X007219Y009154D02*
X007556Y009154D01*
X007595Y009095D02*
X007238Y009095D01*
X007258Y009037D02*
X007309Y009037D01*
X007408Y009037D02*
X007587Y009037D01*
X007528Y008978D02*
X007495Y008978D01*
X007617Y009716D02*
X007605Y009756D01*
X007590Y009795D01*
X007572Y009833D01*
X007552Y009869D01*
X007530Y009904D01*
X007264Y010091D02*
X006716Y010091D01*
X006833Y010149D02*
X007147Y010149D01*
X007145Y010175D02*
X007095Y010415D01*
X006905Y010415D01*
X006855Y010175D01*
X006876Y010208D02*
X007105Y010208D01*
X007090Y010266D02*
X006890Y010266D01*
X006905Y010325D02*
X007075Y010325D01*
X006581Y010149D02*
X006416Y010149D01*
X006365Y010115D02*
X006515Y009915D01*
X006504Y010208D02*
X006523Y010208D01*
X006387Y009419D02*
X006402Y009372D01*
X006420Y009326D01*
X006442Y009282D01*
X006467Y009240D01*
X006678Y010101D02*
X006720Y010124D01*
X006763Y010143D01*
X006808Y010160D01*
X006854Y010172D01*
X006885Y009335D02*
X006857Y009351D01*
X006830Y009370D01*
X006807Y009392D01*
X006786Y009417D01*
X006768Y009445D01*
X006753Y009474D01*
X006743Y009505D01*
X006735Y009536D01*
X006732Y009569D01*
X006733Y009601D01*
X006737Y009634D01*
X006746Y009665D01*
X006758Y009695D01*
X006773Y009724D01*
X006792Y009751D01*
X006814Y009775D01*
X006838Y009796D01*
X006865Y009815D01*
X006894Y009830D01*
X006925Y009841D01*
X006956Y009849D01*
X006989Y009853D01*
X007021Y009853D01*
X007054Y009849D01*
X007085Y009841D01*
X007116Y009830D01*
X007145Y009815D01*
X007172Y009796D01*
X007196Y009775D01*
X007218Y009751D01*
X007237Y009724D01*
X007252Y009695D01*
X007264Y009665D01*
X007273Y009634D01*
X007277Y009601D01*
X007278Y009569D01*
X007275Y009536D01*
X007267Y009505D01*
X007257Y009474D01*
X007242Y009445D01*
X007224Y009417D01*
X007203Y009392D01*
X007180Y009370D01*
X007153Y009351D01*
X007125Y009335D01*
X006393Y009717D02*
X006404Y009757D01*
X006418Y009796D01*
X006434Y009833D01*
X006453Y009870D01*
X006474Y009905D01*
X007614Y009436D02*
X007604Y009394D01*
X007591Y009353D01*
X007575Y009313D01*
X007556Y009274D01*
X007534Y009237D01*
X007325Y010105D02*
X007282Y010128D01*
X007238Y010148D01*
X007192Y010164D01*
X007146Y010176D01*
X008572Y009622D02*
X008685Y009735D01*
X008685Y009395D01*
X008572Y009395D02*
X008799Y009395D01*
X008940Y009452D02*
X009167Y009679D01*
X009167Y009452D01*
X009110Y009395D01*
X008997Y009395D01*
X008940Y009452D01*
X008940Y009679D01*
X008997Y009735D01*
X009110Y009735D01*
X009167Y009679D01*
X009309Y009679D02*
X009365Y009735D01*
X009479Y009735D01*
X009535Y009679D01*
X009309Y009452D01*
X009365Y009395D01*
X009479Y009395D01*
X009535Y009452D01*
X009535Y009679D01*
X009677Y009622D02*
X009677Y009395D01*
X009904Y009395D02*
X009904Y009565D01*
X009847Y009622D01*
X009677Y009622D01*
X009677Y009895D02*
X009904Y009895D01*
X009790Y009895D02*
X009790Y010235D01*
X009677Y010122D01*
X009535Y010179D02*
X009479Y010235D01*
X009365Y010235D01*
X009309Y010179D01*
X009309Y009952D01*
X009365Y009895D01*
X009479Y009895D01*
X009535Y009952D01*
X009309Y009679D02*
X009309Y009452D01*
X010215Y009265D02*
X010215Y010065D01*
X010217Y010082D01*
X010221Y010099D01*
X010228Y010115D01*
X010238Y010129D01*
X010251Y010142D01*
X010265Y010152D01*
X010281Y010159D01*
X010298Y010163D01*
X010315Y010165D01*
X013015Y010165D01*
X013032Y010163D01*
X013049Y010159D01*
X013065Y010152D01*
X013079Y010142D01*
X013092Y010129D01*
X013102Y010115D01*
X013109Y010099D01*
X013113Y010082D01*
X013115Y010065D01*
X013115Y009265D01*
X013113Y009248D01*
X013109Y009231D01*
X013102Y009215D01*
X013092Y009201D01*
X013079Y009188D01*
X013065Y009178D01*
X013049Y009171D01*
X013032Y009167D01*
X013015Y009165D01*
X010315Y009165D01*
X010298Y009167D01*
X010281Y009171D01*
X010265Y009178D01*
X010251Y009188D01*
X010238Y009201D01*
X010228Y009215D01*
X010221Y009231D01*
X010217Y009248D01*
X010215Y009265D01*
X011065Y009665D02*
X011535Y009665D01*
X011785Y009665D02*
X012265Y009665D01*
X013215Y010065D02*
X013215Y009265D01*
X013217Y009248D01*
X013221Y009231D01*
X013228Y009215D01*
X013238Y009201D01*
X013251Y009188D01*
X013265Y009178D01*
X013281Y009171D01*
X013298Y009167D01*
X013315Y009165D01*
X016015Y009165D01*
X016032Y009167D01*
X016049Y009171D01*
X016065Y009178D01*
X016079Y009188D01*
X016092Y009201D01*
X016102Y009215D01*
X016109Y009231D01*
X016113Y009248D01*
X016115Y009265D01*
X016115Y010065D01*
X016113Y010082D01*
X016109Y010099D01*
X016102Y010115D01*
X016092Y010129D01*
X016079Y010142D01*
X016065Y010152D01*
X016049Y010159D01*
X016032Y010163D01*
X016015Y010165D01*
X013315Y010165D01*
X013298Y010163D01*
X013281Y010159D01*
X013265Y010152D01*
X013251Y010142D01*
X013238Y010129D01*
X013228Y010115D01*
X013221Y010099D01*
X013217Y010082D01*
X013215Y010065D01*
X014065Y009665D02*
X014545Y009665D01*
X014795Y009665D02*
X015265Y009665D01*
X016345Y009572D02*
X016459Y009685D01*
X016459Y009345D01*
X016572Y009345D02*
X016345Y009345D01*
X016714Y009402D02*
X016714Y009629D01*
X016770Y009685D01*
X016884Y009685D01*
X016940Y009629D01*
X016714Y009402D01*
X016770Y009345D01*
X016884Y009345D01*
X016940Y009402D01*
X016940Y009629D01*
X017082Y009629D02*
X017082Y009402D01*
X017309Y009629D01*
X017309Y009402D01*
X017252Y009345D01*
X017139Y009345D01*
X017082Y009402D01*
X017082Y009629D02*
X017139Y009685D01*
X017252Y009685D01*
X017309Y009629D01*
X017450Y009572D02*
X017620Y009572D01*
X017677Y009515D01*
X017677Y009345D01*
X017450Y009345D02*
X017450Y009572D01*
X016940Y009845D02*
X016714Y009845D01*
X016940Y010072D01*
X016940Y010129D01*
X016884Y010185D01*
X016770Y010185D01*
X016714Y010129D01*
X016572Y010129D02*
X016515Y010185D01*
X016402Y010185D01*
X016345Y010129D01*
X016345Y009902D01*
X016402Y009845D01*
X016515Y009845D01*
X016572Y009902D01*
X018195Y009945D02*
X018309Y009945D01*
X018252Y009945D02*
X018252Y010285D01*
X018195Y010285D02*
X018309Y010285D01*
X018441Y010229D02*
X018441Y010002D01*
X018497Y009945D01*
X018611Y009945D01*
X018668Y010002D01*
X018809Y010002D02*
X018866Y009945D01*
X018979Y009945D01*
X019036Y010002D01*
X019036Y010059D01*
X018979Y010115D01*
X018922Y010115D01*
X018979Y010115D02*
X019036Y010172D01*
X019036Y010229D01*
X018979Y010285D01*
X018866Y010285D01*
X018809Y010229D01*
X018668Y010229D02*
X018611Y010285D01*
X018497Y010285D01*
X018441Y010229D01*
X018309Y009785D02*
X018422Y009672D01*
X018422Y009445D01*
X018422Y009615D02*
X018195Y009615D01*
X018195Y009672D02*
X018309Y009785D01*
X018195Y009672D02*
X018195Y009445D01*
X018564Y009615D02*
X018790Y009615D01*
X018932Y009672D02*
X018989Y009615D01*
X019159Y009615D01*
X019159Y009502D02*
X019159Y009729D01*
X019102Y009785D01*
X018989Y009785D01*
X018932Y009729D01*
X018932Y009672D01*
X018932Y009502D02*
X018989Y009445D01*
X019102Y009445D01*
X019159Y009502D01*
X019300Y009502D02*
X019300Y009559D01*
X019357Y009615D01*
X019470Y009615D01*
X019527Y009559D01*
X019527Y009502D01*
X019470Y009445D01*
X019357Y009445D01*
X019300Y009502D01*
X019357Y009615D02*
X019300Y009672D01*
X019300Y009729D01*
X019357Y009785D01*
X019470Y009785D01*
X019527Y009729D01*
X019527Y009672D01*
X019470Y009615D01*
X019668Y009559D02*
X019725Y009615D01*
X019839Y009615D01*
X019895Y009559D01*
X019895Y009502D01*
X019839Y009445D01*
X019725Y009445D01*
X019668Y009502D01*
X019668Y009559D01*
X019725Y009615D02*
X019668Y009672D01*
X019668Y009729D01*
X019725Y009785D01*
X019839Y009785D01*
X019895Y009729D01*
X019895Y009672D01*
X019839Y009615D01*
X018734Y009445D02*
X018734Y009785D01*
X018564Y009615D01*
X018265Y012215D02*
X019065Y012215D01*
X019082Y012217D01*
X019099Y012221D01*
X019115Y012228D01*
X019129Y012238D01*
X019142Y012251D01*
X019152Y012265D01*
X019159Y012281D01*
X019163Y012298D01*
X019165Y012315D01*
X019165Y015015D01*
X019163Y015032D01*
X019159Y015049D01*
X019152Y015065D01*
X019142Y015079D01*
X019129Y015092D01*
X019115Y015102D01*
X019099Y015109D01*
X019082Y015113D01*
X019065Y015115D01*
X018265Y015115D01*
X018248Y015113D01*
X018231Y015109D01*
X018215Y015102D01*
X018201Y015092D01*
X018188Y015079D01*
X018178Y015065D01*
X018171Y015049D01*
X018167Y015032D01*
X018165Y015015D01*
X018165Y012315D01*
X018167Y012298D01*
X018171Y012281D01*
X018178Y012265D01*
X018188Y012251D01*
X018201Y012238D01*
X018215Y012228D01*
X018231Y012221D01*
X018248Y012217D01*
X018265Y012215D01*
X017985Y012402D02*
X017985Y012515D01*
X017929Y012572D01*
X017929Y012714D02*
X017815Y012714D01*
X017815Y012884D01*
X017872Y012940D01*
X017929Y012940D01*
X017985Y012884D01*
X017985Y012770D01*
X017929Y012714D01*
X017815Y012714D02*
X017702Y012827D01*
X017645Y012940D01*
X017702Y012572D02*
X017645Y012515D01*
X017645Y012402D01*
X017702Y012345D01*
X017929Y012345D01*
X017985Y012402D01*
X018665Y013065D02*
X018665Y013535D01*
X018665Y013785D02*
X018665Y014265D01*
X017935Y014365D02*
X017879Y014309D01*
X017652Y014535D01*
X017879Y014535D01*
X017935Y014479D01*
X017935Y014365D01*
X017879Y014309D02*
X017652Y014309D01*
X017595Y014365D01*
X017595Y014479D01*
X017652Y014535D01*
X017708Y014677D02*
X017708Y014847D01*
X017765Y014904D01*
X017935Y014904D01*
X017935Y014677D02*
X017708Y014677D01*
X017652Y014167D02*
X017879Y013940D01*
X017935Y013997D01*
X017935Y014110D01*
X017879Y014167D01*
X017652Y014167D01*
X017595Y014110D01*
X017595Y013997D01*
X017652Y013940D01*
X017879Y013940D01*
X017935Y013799D02*
X017935Y013572D01*
X017935Y013685D02*
X017595Y013685D01*
X017708Y013572D01*
X016750Y016945D02*
X016523Y016945D01*
X016750Y017172D01*
X016750Y017229D01*
X016693Y017285D01*
X016580Y017285D01*
X016523Y017229D01*
X016382Y017229D02*
X016382Y017115D01*
X016325Y017059D01*
X016155Y017059D01*
X016268Y017059D02*
X016382Y016945D01*
X016155Y016945D02*
X016155Y017285D01*
X016325Y017285D01*
X016382Y017229D01*
X016014Y017285D02*
X015787Y017285D01*
X015787Y016945D01*
X016014Y016945D01*
X015900Y017115D02*
X015787Y017115D01*
X015645Y017115D02*
X015589Y017059D01*
X015418Y017059D01*
X015418Y016945D02*
X015418Y017285D01*
X015589Y017285D01*
X015645Y017229D01*
X015645Y017115D01*
X015277Y017115D02*
X015220Y017059D01*
X015050Y017059D01*
X015050Y016945D02*
X015050Y017285D01*
X015220Y017285D01*
X015277Y017229D01*
X015277Y017115D01*
X014909Y016945D02*
X014682Y016945D01*
X014682Y017285D01*
X014909Y017285D01*
X014795Y017115D02*
X014682Y017115D01*
X014540Y017285D02*
X014314Y017285D01*
X014427Y017285D02*
X014427Y016945D01*
X014172Y017002D02*
X014115Y016945D01*
X014002Y016945D01*
X013945Y017002D01*
X014002Y017115D02*
X013945Y017172D01*
X013945Y017229D01*
X014002Y017285D01*
X014115Y017285D01*
X014172Y017229D01*
X014115Y017115D02*
X014172Y017059D01*
X014172Y017002D01*
X014115Y017115D02*
X014002Y017115D01*
X013290Y017172D02*
X013290Y017229D01*
X013234Y017285D01*
X013120Y017285D01*
X013064Y017229D01*
X012922Y017285D02*
X012695Y016945D01*
X012922Y016945D02*
X012695Y017285D01*
X013064Y016945D02*
X013290Y017172D01*
X013290Y016945D02*
X013064Y016945D01*
X011895Y016945D02*
X011782Y017059D01*
X011839Y017059D02*
X011668Y017059D01*
X011668Y016945D02*
X011668Y017285D01*
X011839Y017285D01*
X011895Y017229D01*
X011895Y017115D01*
X011839Y017059D01*
X011527Y016945D02*
X011300Y016945D01*
X011300Y017285D01*
X011527Y017285D01*
X011414Y017115D02*
X011300Y017115D01*
X011159Y016945D02*
X011159Y017285D01*
X010932Y017285D02*
X010932Y016945D01*
X011045Y017059D01*
X011159Y016945D01*
X010790Y017002D02*
X010790Y017229D01*
X010734Y017285D01*
X010620Y017285D01*
X010564Y017229D01*
X010564Y017002D01*
X010620Y016945D01*
X010734Y016945D01*
X010790Y017002D01*
X010422Y017115D02*
X010365Y017059D01*
X010195Y017059D01*
X010195Y016945D02*
X010195Y017285D01*
X010365Y017285D01*
X010422Y017229D01*
X010422Y017115D01*
X009540Y017115D02*
X009540Y017002D01*
X009484Y016945D01*
X009370Y016945D01*
X009314Y017002D01*
X009314Y017115D02*
X009427Y017172D01*
X009484Y017172D01*
X009540Y017115D01*
X009540Y017285D02*
X009314Y017285D01*
X009314Y017115D01*
X009172Y016945D02*
X008945Y017285D01*
X009172Y017285D02*
X008945Y016945D01*
X008250Y016945D02*
X008023Y016945D01*
X008137Y016945D02*
X008137Y017285D01*
X008023Y017172D01*
X007882Y017115D02*
X007825Y017059D01*
X007655Y017059D01*
X007768Y017059D02*
X007882Y016945D01*
X007882Y017115D02*
X007882Y017229D01*
X007825Y017285D01*
X007655Y017285D01*
X007655Y016945D01*
X007514Y016945D02*
X007287Y016945D01*
X007287Y017285D01*
X007514Y017285D01*
X007400Y017115D02*
X007287Y017115D01*
X007145Y017115D02*
X007089Y017059D01*
X006918Y017059D01*
X006918Y016945D02*
X006918Y017285D01*
X007089Y017285D01*
X007145Y017229D01*
X007145Y017115D01*
X006777Y017115D02*
X006720Y017059D01*
X006550Y017059D01*
X006550Y016945D02*
X006550Y017285D01*
X006720Y017285D01*
X006777Y017229D01*
X006777Y017115D01*
X006409Y016945D02*
X006182Y016945D01*
X006182Y017285D01*
X006409Y017285D01*
X006295Y017115D02*
X006182Y017115D01*
X006040Y017285D02*
X005814Y017285D01*
X005927Y017285D02*
X005927Y016945D01*
X005672Y017002D02*
X005615Y016945D01*
X005502Y016945D01*
X005445Y017002D01*
X005502Y017115D02*
X005615Y017115D01*
X005672Y017059D01*
X005672Y017002D01*
X005502Y017115D02*
X005445Y017172D01*
X005445Y017229D01*
X005502Y017285D01*
X005615Y017285D01*
X005672Y017229D01*
X004790Y016945D02*
X004564Y016945D01*
X004677Y016945D02*
X004677Y017285D01*
X004564Y017172D01*
X004422Y017285D02*
X004195Y016945D01*
X004422Y016945D02*
X004195Y017285D01*
X003840Y015885D02*
X003614Y015885D01*
X003472Y015829D02*
X003415Y015885D01*
X003302Y015885D01*
X003245Y015829D01*
X003245Y015602D01*
X003302Y015545D01*
X003415Y015545D01*
X003472Y015602D01*
X003614Y015602D02*
X003614Y015545D01*
X003614Y015602D02*
X003840Y015829D01*
X003840Y015885D01*
X003840Y015235D02*
X003614Y015235D01*
X003415Y015235D02*
X003245Y015065D01*
X003472Y015065D01*
X003415Y014895D02*
X003415Y015235D01*
X003614Y014952D02*
X003614Y014895D01*
X003614Y014952D02*
X003840Y015179D01*
X003840Y015235D01*
X003982Y015122D02*
X003982Y014952D01*
X004039Y014895D01*
X004209Y014895D01*
X004209Y015122D01*
X004665Y014465D02*
X004665Y014315D01*
X004815Y014315D01*
X004665Y014315D02*
X004665Y014165D01*
X004665Y014315D02*
X004515Y014315D01*
X003065Y013665D02*
X003067Y013731D01*
X003073Y013796D01*
X003083Y013861D01*
X003096Y013926D01*
X003114Y013989D01*
X003135Y014052D01*
X003160Y014112D01*
X003189Y014172D01*
X003221Y014229D01*
X003256Y014285D01*
X003295Y014338D01*
X003337Y014389D01*
X003381Y014437D01*
X003429Y014482D01*
X003479Y014525D01*
X003532Y014564D01*
X003587Y014601D01*
X003644Y014634D01*
X003703Y014663D01*
X003763Y014689D01*
X003825Y014711D01*
X003888Y014730D01*
X003952Y014744D01*
X004017Y014755D01*
X004083Y014762D01*
X004149Y014765D01*
X004214Y014764D01*
X004280Y014759D01*
X004345Y014750D01*
X004410Y014737D01*
X004473Y014721D01*
X004536Y014701D01*
X004597Y014676D01*
X004657Y014649D01*
X004715Y014618D01*
X004771Y014583D01*
X004825Y014545D01*
X004876Y014504D01*
X004925Y014460D01*
X004971Y014413D01*
X005015Y014364D01*
X005055Y014312D01*
X005092Y014257D01*
X005126Y014201D01*
X005156Y014142D01*
X005183Y014082D01*
X005206Y014021D01*
X005225Y013958D01*
X005241Y013894D01*
X005253Y013829D01*
X005261Y013764D01*
X005265Y013698D01*
X005265Y013632D01*
X005261Y013566D01*
X005253Y013501D01*
X005241Y013436D01*
X005225Y013372D01*
X005206Y013309D01*
X005183Y013248D01*
X005156Y013188D01*
X005126Y013129D01*
X005092Y013073D01*
X005055Y013018D01*
X005015Y012966D01*
X004971Y012917D01*
X004925Y012870D01*
X004876Y012826D01*
X004825Y012785D01*
X004771Y012747D01*
X004715Y012712D01*
X004657Y012681D01*
X004597Y012654D01*
X004536Y012629D01*
X004473Y012609D01*
X004410Y012593D01*
X004345Y012580D01*
X004280Y012571D01*
X004214Y012566D01*
X004149Y012565D01*
X004083Y012568D01*
X004017Y012575D01*
X003952Y012586D01*
X003888Y012600D01*
X003825Y012619D01*
X003763Y012641D01*
X003703Y012667D01*
X003644Y012696D01*
X003587Y012729D01*
X003532Y012766D01*
X003479Y012805D01*
X003429Y012848D01*
X003381Y012893D01*
X003337Y012941D01*
X003295Y012992D01*
X003256Y013045D01*
X003221Y013101D01*
X003189Y013158D01*
X003160Y013218D01*
X003135Y013278D01*
X003114Y013341D01*
X003096Y013404D01*
X003083Y013469D01*
X003073Y013534D01*
X003067Y013599D01*
X003065Y013665D01*
X001984Y015445D02*
X001984Y015785D01*
X001814Y015615D01*
X002040Y015615D01*
X001672Y015445D02*
X001445Y015785D01*
X001672Y015785D02*
X001445Y015445D01*
X001065Y018415D02*
X001067Y018488D01*
X001073Y018561D01*
X001083Y018633D01*
X001097Y018705D01*
X001114Y018776D01*
X001136Y018846D01*
X001161Y018915D01*
X001190Y018982D01*
X001222Y019047D01*
X001258Y019111D01*
X001298Y019173D01*
X001340Y019232D01*
X001386Y019289D01*
X001435Y019343D01*
X001487Y019395D01*
X001541Y019444D01*
X001598Y019490D01*
X001657Y019532D01*
X001719Y019572D01*
X001783Y019608D01*
X001848Y019640D01*
X001915Y019669D01*
X001984Y019694D01*
X002054Y019716D01*
X002125Y019733D01*
X002197Y019747D01*
X002269Y019757D01*
X002342Y019763D01*
X002415Y019765D01*
X002488Y019763D01*
X002561Y019757D01*
X002633Y019747D01*
X002705Y019733D01*
X002776Y019716D01*
X002846Y019694D01*
X002915Y019669D01*
X002982Y019640D01*
X003047Y019608D01*
X003111Y019572D01*
X003173Y019532D01*
X003232Y019490D01*
X003289Y019444D01*
X003343Y019395D01*
X003395Y019343D01*
X003444Y019289D01*
X003490Y019232D01*
X003532Y019173D01*
X003572Y019111D01*
X003608Y019047D01*
X003640Y018982D01*
X003669Y018915D01*
X003694Y018846D01*
X003716Y018776D01*
X003733Y018705D01*
X003747Y018633D01*
X003757Y018561D01*
X003763Y018488D01*
X003765Y018415D01*
X003763Y018342D01*
X003757Y018269D01*
X003747Y018197D01*
X003733Y018125D01*
X003716Y018054D01*
X003694Y017984D01*
X003669Y017915D01*
X003640Y017848D01*
X003608Y017783D01*
X003572Y017719D01*
X003532Y017657D01*
X003490Y017598D01*
X003444Y017541D01*
X003395Y017487D01*
X003343Y017435D01*
X003289Y017386D01*
X003232Y017340D01*
X003173Y017298D01*
X003111Y017258D01*
X003047Y017222D01*
X002982Y017190D01*
X002915Y017161D01*
X002846Y017136D01*
X002776Y017114D01*
X002705Y017097D01*
X002633Y017083D01*
X002561Y017073D01*
X002488Y017067D01*
X002415Y017065D01*
X002342Y017067D01*
X002269Y017073D01*
X002197Y017083D01*
X002125Y017097D01*
X002054Y017114D01*
X001984Y017136D01*
X001915Y017161D01*
X001848Y017190D01*
X001783Y017222D01*
X001719Y017258D01*
X001657Y017298D01*
X001598Y017340D01*
X001541Y017386D01*
X001487Y017435D01*
X001435Y017487D01*
X001386Y017541D01*
X001340Y017598D01*
X001298Y017657D01*
X001258Y017719D01*
X001222Y017783D01*
X001190Y017848D01*
X001161Y017915D01*
X001136Y017984D01*
X001114Y018054D01*
X001097Y018125D01*
X001083Y018197D01*
X001073Y018269D01*
X001067Y018342D01*
X001065Y018415D01*
X009095Y014479D02*
X009095Y014365D01*
X009152Y014309D01*
X009379Y014309D01*
X009152Y014535D01*
X009379Y014535D01*
X009435Y014479D01*
X009435Y014365D01*
X009379Y014309D01*
X009379Y014167D02*
X009435Y014110D01*
X009435Y013997D01*
X009379Y013940D01*
X009152Y014167D01*
X009379Y014167D01*
X009379Y013940D02*
X009152Y013940D01*
X009095Y013997D01*
X009095Y014110D01*
X009152Y014167D01*
X009095Y014479D02*
X009152Y014535D01*
X009208Y014677D02*
X009208Y014847D01*
X009265Y014904D01*
X009435Y014904D01*
X009435Y014677D02*
X009208Y014677D01*
X009665Y015015D02*
X009665Y012315D01*
X009667Y012298D01*
X009671Y012281D01*
X009678Y012265D01*
X009688Y012251D01*
X009701Y012238D01*
X009715Y012228D01*
X009731Y012221D01*
X009748Y012217D01*
X009765Y012215D01*
X010565Y012215D01*
X010582Y012217D01*
X010599Y012221D01*
X010615Y012228D01*
X010629Y012238D01*
X010642Y012251D01*
X010652Y012265D01*
X010659Y012281D01*
X010663Y012298D01*
X010665Y012315D01*
X010665Y015015D01*
X010663Y015032D01*
X010659Y015049D01*
X010652Y015065D01*
X010642Y015079D01*
X010629Y015092D01*
X010615Y015102D01*
X010599Y015109D01*
X010582Y015113D01*
X010565Y015115D01*
X009765Y015115D01*
X009748Y015113D01*
X009731Y015109D01*
X009715Y015102D01*
X009701Y015092D01*
X009688Y015079D01*
X009678Y015065D01*
X009671Y015049D01*
X009667Y015032D01*
X009665Y015015D01*
X010165Y014265D02*
X010165Y013785D01*
X010165Y013535D02*
X010165Y013065D01*
X009485Y012884D02*
X009145Y012884D01*
X009315Y012714D01*
X009315Y012940D01*
X009202Y012572D02*
X009145Y012515D01*
X009145Y012402D01*
X009202Y012345D01*
X009429Y012345D01*
X009485Y012402D01*
X009485Y012515D01*
X009429Y012572D01*
X009435Y013572D02*
X009435Y013799D01*
X009435Y013685D02*
X009095Y013685D01*
X009208Y013572D01*
X011745Y015065D02*
X011972Y015065D01*
X011915Y014895D02*
X011915Y015235D01*
X011745Y015065D01*
X012114Y014952D02*
X012114Y014895D01*
X012114Y014952D02*
X012340Y015179D01*
X012340Y015235D01*
X012114Y015235D01*
X012170Y015545D02*
X012114Y015602D01*
X012170Y015545D02*
X012284Y015545D01*
X012340Y015602D01*
X012340Y015715D01*
X012284Y015772D01*
X012227Y015772D01*
X012114Y015715D01*
X012114Y015885D01*
X012340Y015885D01*
X011972Y015829D02*
X011915Y015885D01*
X011802Y015885D01*
X011745Y015829D01*
X011745Y015602D01*
X011802Y015545D01*
X011915Y015545D01*
X011972Y015602D01*
X012482Y015122D02*
X012482Y014952D01*
X012539Y014895D01*
X012709Y014895D01*
X012709Y015122D01*
X013165Y014465D02*
X013165Y014315D01*
X013315Y014315D01*
X013165Y014315D02*
X013165Y014165D01*
X013165Y014315D02*
X013015Y014315D01*
X011565Y013665D02*
X011567Y013731D01*
X011573Y013796D01*
X011583Y013861D01*
X011596Y013926D01*
X011614Y013989D01*
X011635Y014052D01*
X011660Y014112D01*
X011689Y014172D01*
X011721Y014229D01*
X011756Y014285D01*
X011795Y014338D01*
X011837Y014389D01*
X011881Y014437D01*
X011929Y014482D01*
X011979Y014525D01*
X012032Y014564D01*
X012087Y014601D01*
X012144Y014634D01*
X012203Y014663D01*
X012263Y014689D01*
X012325Y014711D01*
X012388Y014730D01*
X012452Y014744D01*
X012517Y014755D01*
X012583Y014762D01*
X012649Y014765D01*
X012714Y014764D01*
X012780Y014759D01*
X012845Y014750D01*
X012910Y014737D01*
X012973Y014721D01*
X013036Y014701D01*
X013097Y014676D01*
X013157Y014649D01*
X013215Y014618D01*
X013271Y014583D01*
X013325Y014545D01*
X013376Y014504D01*
X013425Y014460D01*
X013471Y014413D01*
X013515Y014364D01*
X013555Y014312D01*
X013592Y014257D01*
X013626Y014201D01*
X013656Y014142D01*
X013683Y014082D01*
X013706Y014021D01*
X013725Y013958D01*
X013741Y013894D01*
X013753Y013829D01*
X013761Y013764D01*
X013765Y013698D01*
X013765Y013632D01*
X013761Y013566D01*
X013753Y013501D01*
X013741Y013436D01*
X013725Y013372D01*
X013706Y013309D01*
X013683Y013248D01*
X013656Y013188D01*
X013626Y013129D01*
X013592Y013073D01*
X013555Y013018D01*
X013515Y012966D01*
X013471Y012917D01*
X013425Y012870D01*
X013376Y012826D01*
X013325Y012785D01*
X013271Y012747D01*
X013215Y012712D01*
X013157Y012681D01*
X013097Y012654D01*
X013036Y012629D01*
X012973Y012609D01*
X012910Y012593D01*
X012845Y012580D01*
X012780Y012571D01*
X012714Y012566D01*
X012649Y012565D01*
X012583Y012568D01*
X012517Y012575D01*
X012452Y012586D01*
X012388Y012600D01*
X012325Y012619D01*
X012263Y012641D01*
X012203Y012667D01*
X012144Y012696D01*
X012087Y012729D01*
X012032Y012766D01*
X011979Y012805D01*
X011929Y012848D01*
X011881Y012893D01*
X011837Y012941D01*
X011795Y012992D01*
X011756Y013045D01*
X011721Y013101D01*
X011689Y013158D01*
X011660Y013218D01*
X011635Y013278D01*
X011614Y013341D01*
X011596Y013404D01*
X011583Y013469D01*
X011573Y013534D01*
X011567Y013599D01*
X011565Y013665D01*
X010592Y006785D02*
X010592Y006502D01*
X010535Y006445D01*
X010422Y006445D01*
X010365Y006502D01*
X010365Y006785D01*
X010223Y006729D02*
X010223Y006615D01*
X010167Y006559D01*
X009997Y006559D01*
X009997Y006445D02*
X009997Y006785D01*
X010167Y006785D01*
X010223Y006729D01*
X009855Y006615D02*
X009628Y006615D01*
X009487Y006615D02*
X009487Y006729D01*
X009430Y006785D01*
X009260Y006785D01*
X009260Y006445D01*
X009260Y006559D02*
X009430Y006559D01*
X009487Y006615D01*
X009119Y006559D02*
X009119Y006502D01*
X009062Y006445D01*
X008948Y006445D01*
X008892Y006502D01*
X008892Y006559D01*
X008948Y006615D01*
X009062Y006615D01*
X009119Y006559D01*
X009062Y006615D02*
X009119Y006672D01*
X009119Y006729D01*
X009062Y006785D01*
X008948Y006785D01*
X008892Y006729D01*
X008892Y006672D01*
X008948Y006615D01*
X008750Y006672D02*
X008750Y006729D01*
X008693Y006785D01*
X008580Y006785D01*
X008523Y006729D01*
X008382Y006729D02*
X008382Y006672D01*
X008325Y006615D01*
X008382Y006559D01*
X008382Y006502D01*
X008325Y006445D01*
X008212Y006445D01*
X008155Y006502D01*
X008014Y006445D02*
X008014Y006672D01*
X007900Y006785D01*
X007787Y006672D01*
X007787Y006445D01*
X007645Y006502D02*
X007645Y006615D01*
X007532Y006615D01*
X007645Y006502D02*
X007589Y006445D01*
X007475Y006445D01*
X007418Y006502D01*
X007418Y006729D01*
X007475Y006785D01*
X007589Y006785D01*
X007645Y006729D01*
X007787Y006615D02*
X008014Y006615D01*
X008155Y006729D02*
X008212Y006785D01*
X008325Y006785D01*
X008382Y006729D01*
X008325Y006615D02*
X008268Y006615D01*
X008523Y006445D02*
X008750Y006672D01*
X008750Y006445D02*
X008523Y006445D01*
X007277Y006445D02*
X007050Y006445D01*
X007050Y006785D01*
X007277Y006785D01*
X007164Y006615D02*
X007050Y006615D01*
X006909Y006785D02*
X006909Y006445D01*
X006682Y006445D02*
X006682Y006785D01*
X006795Y006672D01*
X006909Y006785D01*
X006540Y006785D02*
X006314Y006785D01*
X006427Y006785D02*
X006427Y006445D01*
X006172Y006445D02*
X006172Y006672D01*
X006059Y006785D01*
X005945Y006672D01*
X005945Y006445D01*
X005945Y006615D02*
X006172Y006615D01*
X008715Y004065D02*
X008715Y003265D01*
X008717Y003248D01*
X008721Y003231D01*
X008728Y003215D01*
X008738Y003201D01*
X008751Y003188D01*
X008765Y003178D01*
X008781Y003171D01*
X008798Y003167D01*
X008815Y003165D01*
X011515Y003165D01*
X011532Y003167D01*
X011549Y003171D01*
X011565Y003178D01*
X011579Y003188D01*
X011592Y003201D01*
X011602Y003215D01*
X011609Y003231D01*
X011613Y003248D01*
X011615Y003265D01*
X011615Y004065D01*
X011613Y004082D01*
X011609Y004099D01*
X011602Y004115D01*
X011592Y004129D01*
X011579Y004142D01*
X011565Y004152D01*
X011549Y004159D01*
X011532Y004163D01*
X011515Y004165D01*
X008815Y004165D01*
X008798Y004163D01*
X008781Y004159D01*
X008765Y004152D01*
X008751Y004142D01*
X008738Y004129D01*
X008728Y004115D01*
X008721Y004099D01*
X008717Y004082D01*
X008715Y004065D01*
X008902Y004345D02*
X009015Y004345D01*
X009072Y004402D01*
X009214Y004402D02*
X009270Y004345D01*
X009384Y004345D01*
X009440Y004402D01*
X009440Y004459D01*
X009384Y004515D01*
X009327Y004515D01*
X009384Y004515D02*
X009440Y004572D01*
X009440Y004629D01*
X009384Y004685D01*
X009270Y004685D01*
X009214Y004629D01*
X009072Y004629D02*
X009015Y004685D01*
X008902Y004685D01*
X008845Y004629D01*
X008845Y004402D01*
X008902Y004345D01*
X009565Y003665D02*
X010035Y003665D01*
X010285Y003665D02*
X010765Y003665D01*
X010770Y004345D02*
X010714Y004402D01*
X010940Y004629D01*
X010940Y004402D01*
X010884Y004345D01*
X010770Y004345D01*
X010714Y004402D02*
X010714Y004629D01*
X010770Y004685D01*
X010884Y004685D01*
X010940Y004629D01*
X011082Y004629D02*
X011082Y004402D01*
X011309Y004629D01*
X011309Y004402D01*
X011252Y004345D01*
X011139Y004345D01*
X011082Y004402D01*
X011082Y004629D02*
X011139Y004685D01*
X011252Y004685D01*
X011309Y004629D01*
X011450Y004572D02*
X011620Y004572D01*
X011677Y004515D01*
X011677Y004345D01*
X011450Y004345D02*
X011450Y004572D01*
X010572Y004345D02*
X010345Y004345D01*
X010459Y004345D02*
X010459Y004685D01*
X010345Y004572D01*
X012315Y002165D02*
X014015Y002165D01*
X014032Y002163D01*
X014049Y002159D01*
X014065Y002152D01*
X014079Y002142D01*
X014092Y002129D01*
X014102Y002115D01*
X014109Y002099D01*
X014113Y002082D01*
X014115Y002065D01*
X014115Y001265D01*
X014113Y001248D01*
X014109Y001231D01*
X014102Y001215D01*
X014092Y001201D01*
X014079Y001188D01*
X014065Y001178D01*
X014049Y001171D01*
X014032Y001167D01*
X014015Y001165D01*
X012315Y001165D01*
X012298Y001167D01*
X012281Y001171D01*
X012265Y001178D01*
X012251Y001188D01*
X012238Y001201D01*
X012228Y001215D01*
X012221Y001231D01*
X012217Y001248D01*
X012215Y001265D01*
X012215Y002065D01*
X012217Y002082D01*
X012221Y002099D01*
X012228Y002115D01*
X012238Y002129D01*
X012251Y002142D01*
X012265Y002152D01*
X012281Y002159D01*
X012298Y002163D01*
X012315Y002165D01*
X012084Y001635D02*
X011970Y001635D01*
X011914Y001579D01*
X011914Y001522D01*
X011970Y001465D01*
X012084Y001465D01*
X012140Y001409D01*
X012140Y001352D01*
X012084Y001295D01*
X011970Y001295D01*
X011914Y001352D01*
X011914Y001409D01*
X011970Y001465D01*
X012084Y001465D02*
X012140Y001522D01*
X012140Y001579D01*
X012084Y001635D01*
X011772Y001579D02*
X011715Y001635D01*
X011602Y001635D01*
X011545Y001579D01*
X011545Y001352D01*
X011602Y001295D01*
X011715Y001295D01*
X011772Y001352D01*
X011720Y001185D02*
X011664Y001129D01*
X011664Y001072D01*
X011720Y001015D01*
X011834Y001015D01*
X011890Y000959D01*
X011890Y000902D01*
X011834Y000845D01*
X011720Y000845D01*
X011664Y000902D01*
X011664Y000959D01*
X011720Y001015D01*
X011834Y001015D02*
X011890Y001072D01*
X011890Y001129D01*
X011834Y001185D01*
X011720Y001185D01*
X012032Y001072D02*
X012202Y001072D01*
X012259Y001015D01*
X012259Y000902D01*
X012202Y000845D01*
X012032Y000845D01*
X012032Y000732D02*
X012032Y001072D01*
X011522Y000845D02*
X011295Y000845D01*
X011409Y000845D02*
X011409Y001185D01*
X011295Y001072D01*
X013015Y001665D02*
X013065Y001665D01*
X013265Y001665D02*
X013315Y001665D01*
X012965Y002515D02*
X015365Y002515D01*
X015415Y002517D01*
X015464Y002523D01*
X015513Y002532D01*
X015561Y002545D01*
X015608Y002562D01*
X015653Y002582D01*
X015697Y002606D01*
X015739Y002633D01*
X015779Y002664D01*
X015816Y002697D01*
X015850Y002733D01*
X015882Y002771D01*
X015911Y002812D01*
X015936Y002854D01*
X015958Y002899D01*
X015977Y002945D01*
X015992Y002993D01*
X016003Y003041D01*
X016011Y003090D01*
X016015Y003140D01*
X016015Y003190D01*
X016011Y003240D01*
X016003Y003289D01*
X015992Y003337D01*
X015977Y003385D01*
X015958Y003431D01*
X015936Y003476D01*
X015911Y003518D01*
X015882Y003559D01*
X015850Y003597D01*
X015816Y003633D01*
X015779Y003666D01*
X015739Y003697D01*
X015697Y003724D01*
X015653Y003748D01*
X015608Y003768D01*
X015561Y003785D01*
X015513Y003798D01*
X015464Y003807D01*
X015415Y003813D01*
X015365Y003815D01*
X012965Y003815D01*
X012915Y003813D01*
X012866Y003807D01*
X012817Y003798D01*
X012769Y003785D01*
X012722Y003768D01*
X012677Y003748D01*
X012633Y003724D01*
X012591Y003697D01*
X012551Y003666D01*
X012514Y003633D01*
X012480Y003597D01*
X012448Y003559D01*
X012419Y003518D01*
X012394Y003476D01*
X012372Y003431D01*
X012353Y003385D01*
X012338Y003337D01*
X012327Y003289D01*
X012319Y003240D01*
X012315Y003190D01*
X012315Y003140D01*
X012319Y003090D01*
X012327Y003041D01*
X012338Y002993D01*
X012353Y002945D01*
X012372Y002899D01*
X012394Y002854D01*
X012419Y002812D01*
X012448Y002771D01*
X012480Y002733D01*
X012514Y002697D01*
X012551Y002664D01*
X012591Y002633D01*
X012633Y002606D01*
X012677Y002582D01*
X012722Y002562D01*
X012769Y002545D01*
X012817Y002532D01*
X012866Y002523D01*
X012915Y002517D01*
X012965Y002515D01*
X013665Y003165D02*
X013915Y003165D01*
X013915Y002865D01*
X014065Y002865D02*
X014065Y003465D01*
X014265Y003465D01*
X014265Y002865D01*
X014065Y002865D01*
X013915Y003165D02*
X013915Y003465D01*
X014415Y003465D02*
X014415Y003165D01*
X014665Y003165D01*
X014415Y003165D02*
X014415Y002865D01*
X014315Y002165D02*
X016015Y002165D01*
X016032Y002163D01*
X016049Y002159D01*
X016065Y002152D01*
X016079Y002142D01*
X016092Y002129D01*
X016102Y002115D01*
X016109Y002099D01*
X016113Y002082D01*
X016115Y002065D01*
X016115Y001265D01*
X016113Y001248D01*
X016109Y001231D01*
X016102Y001215D01*
X016092Y001201D01*
X016079Y001188D01*
X016065Y001178D01*
X016049Y001171D01*
X016032Y001167D01*
X016015Y001165D01*
X014315Y001165D01*
X014298Y001167D01*
X014281Y001171D01*
X014265Y001178D01*
X014251Y001188D01*
X014238Y001201D01*
X014228Y001215D01*
X014221Y001231D01*
X014217Y001248D01*
X014215Y001265D01*
X014215Y002065D01*
X014217Y002082D01*
X014221Y002099D01*
X014228Y002115D01*
X014238Y002129D01*
X014251Y002142D01*
X014265Y002152D01*
X014281Y002159D01*
X014298Y002163D01*
X014315Y002165D01*
X015015Y001665D02*
X015065Y001665D01*
X015265Y001665D02*
X015315Y001665D01*
X016295Y001602D02*
X016352Y001545D01*
X016465Y001545D01*
X016522Y001602D01*
X016664Y001602D02*
X016720Y001545D01*
X016834Y001545D01*
X016890Y001602D01*
X016890Y001829D01*
X016834Y001885D01*
X016720Y001885D01*
X016664Y001829D01*
X016664Y001772D01*
X016720Y001715D01*
X016890Y001715D01*
X016834Y001435D02*
X016890Y001379D01*
X016890Y001322D01*
X016834Y001265D01*
X016720Y001265D01*
X016664Y001322D01*
X016664Y001379D01*
X016720Y001435D01*
X016834Y001435D01*
X016834Y001265D02*
X016890Y001209D01*
X016890Y001152D01*
X016834Y001095D01*
X016720Y001095D01*
X016664Y001152D01*
X016664Y001209D01*
X016720Y001265D01*
X016522Y001095D02*
X016295Y001095D01*
X016409Y001095D02*
X016409Y001435D01*
X016295Y001322D01*
X016295Y001602D02*
X016295Y001829D01*
X016352Y001885D01*
X016465Y001885D01*
X016522Y001829D01*
X017032Y001322D02*
X017202Y001322D01*
X017259Y001265D01*
X017259Y001152D01*
X017202Y001095D01*
X017032Y001095D01*
X017032Y000982D02*
X017032Y001322D01*
X017065Y002415D02*
X017067Y002488D01*
X017073Y002561D01*
X017083Y002633D01*
X017097Y002705D01*
X017114Y002776D01*
X017136Y002846D01*
X017161Y002915D01*
X017190Y002982D01*
X017222Y003047D01*
X017258Y003111D01*
X017298Y003173D01*
X017340Y003232D01*
X017386Y003289D01*
X017435Y003343D01*
X017487Y003395D01*
X017541Y003444D01*
X017598Y003490D01*
X017657Y003532D01*
X017719Y003572D01*
X017783Y003608D01*
X017848Y003640D01*
X017915Y003669D01*
X017984Y003694D01*
X018054Y003716D01*
X018125Y003733D01*
X018197Y003747D01*
X018269Y003757D01*
X018342Y003763D01*
X018415Y003765D01*
X018488Y003763D01*
X018561Y003757D01*
X018633Y003747D01*
X018705Y003733D01*
X018776Y003716D01*
X018846Y003694D01*
X018915Y003669D01*
X018982Y003640D01*
X019047Y003608D01*
X019111Y003572D01*
X019173Y003532D01*
X019232Y003490D01*
X019289Y003444D01*
X019343Y003395D01*
X019395Y003343D01*
X019444Y003289D01*
X019490Y003232D01*
X019532Y003173D01*
X019572Y003111D01*
X019608Y003047D01*
X019640Y002982D01*
X019669Y002915D01*
X019694Y002846D01*
X019716Y002776D01*
X019733Y002705D01*
X019747Y002633D01*
X019757Y002561D01*
X019763Y002488D01*
X019765Y002415D01*
X019763Y002342D01*
X019757Y002269D01*
X019747Y002197D01*
X019733Y002125D01*
X019716Y002054D01*
X019694Y001984D01*
X019669Y001915D01*
X019640Y001848D01*
X019608Y001783D01*
X019572Y001719D01*
X019532Y001657D01*
X019490Y001598D01*
X019444Y001541D01*
X019395Y001487D01*
X019343Y001435D01*
X019289Y001386D01*
X019232Y001340D01*
X019173Y001298D01*
X019111Y001258D01*
X019047Y001222D01*
X018982Y001190D01*
X018915Y001161D01*
X018846Y001136D01*
X018776Y001114D01*
X018705Y001097D01*
X018633Y001083D01*
X018561Y001073D01*
X018488Y001067D01*
X018415Y001065D01*
X018342Y001067D01*
X018269Y001073D01*
X018197Y001083D01*
X018125Y001097D01*
X018054Y001114D01*
X017984Y001136D01*
X017915Y001161D01*
X017848Y001190D01*
X017783Y001222D01*
X017719Y001258D01*
X017657Y001298D01*
X017598Y001340D01*
X017541Y001386D01*
X017487Y001435D01*
X017435Y001487D01*
X017386Y001541D01*
X017340Y001598D01*
X017298Y001657D01*
X017258Y001719D01*
X017222Y001783D01*
X017190Y001848D01*
X017161Y001915D01*
X017136Y001984D01*
X017114Y002054D01*
X017097Y002125D01*
X017083Y002197D01*
X017073Y002269D01*
X017067Y002342D01*
X017065Y002415D01*
X016790Y003745D02*
X016564Y003745D01*
X016677Y003745D02*
X016677Y004085D01*
X016564Y003972D01*
X016422Y004029D02*
X016422Y003802D01*
X016365Y003745D01*
X016252Y003745D01*
X016195Y003802D01*
X016195Y004029D01*
X016252Y004085D01*
X016365Y004085D01*
X016422Y004029D01*
X016309Y003859D02*
X016422Y003745D01*
X007790Y003729D02*
X007790Y003672D01*
X007734Y003615D01*
X007790Y003559D01*
X007790Y003502D01*
X007734Y003445D01*
X007620Y003445D01*
X007564Y003502D01*
X007422Y003445D02*
X007195Y003785D01*
X007422Y003785D02*
X007195Y003445D01*
X007564Y003729D02*
X007620Y003785D01*
X007734Y003785D01*
X007790Y003729D01*
X007734Y003615D02*
X007677Y003615D01*
X017065Y018415D02*
X017067Y018488D01*
X017073Y018561D01*
X017083Y018633D01*
X017097Y018705D01*
X017114Y018776D01*
X017136Y018846D01*
X017161Y018915D01*
X017190Y018982D01*
X017222Y019047D01*
X017258Y019111D01*
X017298Y019173D01*
X017340Y019232D01*
X017386Y019289D01*
X017435Y019343D01*
X017487Y019395D01*
X017541Y019444D01*
X017598Y019490D01*
X017657Y019532D01*
X017719Y019572D01*
X017783Y019608D01*
X017848Y019640D01*
X017915Y019669D01*
X017984Y019694D01*
X018054Y019716D01*
X018125Y019733D01*
X018197Y019747D01*
X018269Y019757D01*
X018342Y019763D01*
X018415Y019765D01*
X018488Y019763D01*
X018561Y019757D01*
X018633Y019747D01*
X018705Y019733D01*
X018776Y019716D01*
X018846Y019694D01*
X018915Y019669D01*
X018982Y019640D01*
X019047Y019608D01*
X019111Y019572D01*
X019173Y019532D01*
X019232Y019490D01*
X019289Y019444D01*
X019343Y019395D01*
X019395Y019343D01*
X019444Y019289D01*
X019490Y019232D01*
X019532Y019173D01*
X019572Y019111D01*
X019608Y019047D01*
X019640Y018982D01*
X019669Y018915D01*
X019694Y018846D01*
X019716Y018776D01*
X019733Y018705D01*
X019747Y018633D01*
X019757Y018561D01*
X019763Y018488D01*
X019765Y018415D01*
X019763Y018342D01*
X019757Y018269D01*
X019747Y018197D01*
X019733Y018125D01*
X019716Y018054D01*
X019694Y017984D01*
X019669Y017915D01*
X019640Y017848D01*
X019608Y017783D01*
X019572Y017719D01*
X019532Y017657D01*
X019490Y017598D01*
X019444Y017541D01*
X019395Y017487D01*
X019343Y017435D01*
X019289Y017386D01*
X019232Y017340D01*
X019173Y017298D01*
X019111Y017258D01*
X019047Y017222D01*
X018982Y017190D01*
X018915Y017161D01*
X018846Y017136D01*
X018776Y017114D01*
X018705Y017097D01*
X018633Y017083D01*
X018561Y017073D01*
X018488Y017067D01*
X018415Y017065D01*
X018342Y017067D01*
X018269Y017073D01*
X018197Y017083D01*
X018125Y017097D01*
X018054Y017114D01*
X017984Y017136D01*
X017915Y017161D01*
X017848Y017190D01*
X017783Y017222D01*
X017719Y017258D01*
X017657Y017298D01*
X017598Y017340D01*
X017541Y017386D01*
X017487Y017435D01*
X017435Y017487D01*
X017386Y017541D01*
X017340Y017598D01*
X017298Y017657D01*
X017258Y017719D01*
X017222Y017783D01*
X017190Y017848D01*
X017161Y017915D01*
X017136Y017984D01*
X017114Y018054D01*
X017097Y018125D01*
X017083Y018197D01*
X017073Y018269D01*
X017067Y018342D01*
X017065Y018415D01*
D12*
X016665Y019165D02*
X012665Y019165D01*
X012665Y019915D01*
X016665Y019915D01*
X016665Y019165D01*
X016665Y017415D01*
X012665Y017415D01*
X012665Y019165D01*
X011915Y019165D02*
X011915Y019915D01*
X008915Y019915D01*
X008915Y019165D01*
X011915Y019165D01*
X011915Y017415D01*
X008915Y017415D01*
X008915Y019165D01*
X008165Y019165D02*
X008165Y019915D01*
X004165Y019915D01*
X004165Y019165D01*
X008165Y019165D01*
X008165Y017415D01*
X004165Y017415D01*
X004165Y019165D01*
X002665Y016665D02*
X010665Y016665D01*
X010665Y010665D01*
X003665Y010665D01*
X003665Y011665D01*
X002665Y011665D01*
X002665Y016665D01*
X002665Y011665D02*
X002665Y010665D01*
X003665Y010665D01*
X011165Y010665D02*
X012165Y010665D01*
X012165Y011665D01*
X011165Y011665D01*
X011165Y016665D01*
X019165Y016665D01*
X019165Y010665D01*
X012165Y010665D01*
X011165Y010665D02*
X011165Y011665D01*
X010915Y003165D02*
X003915Y003165D01*
X003915Y001165D01*
X010915Y001165D01*
X010915Y003165D01*
X013065Y001965D02*
X013065Y001665D01*
X013065Y001365D01*
X013265Y001365D02*
X013265Y001665D01*
X013265Y001965D01*
X015065Y001965D02*
X015065Y001665D01*
X015065Y001365D01*
X015265Y001365D02*
X015265Y001665D01*
X015265Y001965D01*
D13*
X010285Y003415D02*
X010285Y003665D01*
X010285Y003915D01*
X010035Y003915D02*
X010035Y003665D01*
X010035Y003415D01*
X005295Y003415D02*
X005295Y003665D01*
X005295Y003915D01*
X005045Y003915D02*
X005045Y003665D01*
X005045Y003415D01*
X011535Y009415D02*
X011535Y009665D01*
X011535Y009915D01*
X011785Y009915D02*
X011785Y009665D01*
X011785Y009415D01*
X014545Y009415D02*
X014545Y009665D01*
X014545Y009915D01*
X014795Y009915D02*
X014795Y009665D01*
X014795Y009415D01*
X018415Y013535D02*
X018665Y013535D01*
X018915Y013535D01*
X018915Y013785D02*
X018665Y013785D01*
X018415Y013785D01*
X010415Y013785D02*
X010165Y013785D01*
X009915Y013785D01*
X009915Y013535D02*
X010165Y013535D01*
X010415Y013535D01*
D14*
X003665Y008085D03*
X002165Y008085D03*
X002165Y005245D03*
X003665Y005245D03*
D15*
X012965Y004015D02*
X015365Y004015D01*
X015422Y004013D01*
X015478Y004007D01*
X015534Y003998D01*
X015590Y003985D01*
X015644Y003968D01*
X015697Y003948D01*
X015748Y003924D01*
X015798Y003896D01*
X015846Y003866D01*
X015892Y003832D01*
X015935Y003795D01*
X015976Y003756D01*
X016014Y003714D01*
X016049Y003669D01*
X016081Y003622D01*
X016110Y003573D01*
X016136Y003523D01*
X016158Y003470D01*
X016177Y003417D01*
X016192Y003362D01*
X016203Y003306D01*
X016211Y003250D01*
X016215Y003193D01*
X016215Y003137D01*
X016211Y003080D01*
X016203Y003024D01*
X016192Y002968D01*
X016177Y002913D01*
X016158Y002860D01*
X016136Y002807D01*
X016110Y002757D01*
X016081Y002708D01*
X016049Y002661D01*
X016014Y002616D01*
X015976Y002574D01*
X015935Y002535D01*
X015892Y002498D01*
X015846Y002464D01*
X015798Y002434D01*
X015748Y002406D01*
X015697Y002382D01*
X015644Y002362D01*
X015590Y002345D01*
X015534Y002332D01*
X015478Y002323D01*
X015422Y002317D01*
X015365Y002315D01*
X012965Y002315D01*
X012908Y002317D01*
X012852Y002323D01*
X012796Y002332D01*
X012740Y002345D01*
X012686Y002362D01*
X012633Y002382D01*
X012582Y002406D01*
X012532Y002434D01*
X012484Y002464D01*
X012438Y002498D01*
X012395Y002535D01*
X012354Y002574D01*
X012316Y002616D01*
X012281Y002661D01*
X012249Y002708D01*
X012220Y002757D01*
X012194Y002807D01*
X012172Y002860D01*
X012153Y002913D01*
X012138Y002968D01*
X012127Y003024D01*
X012119Y003080D01*
X012115Y003137D01*
X012115Y003193D01*
X012119Y003250D01*
X012127Y003306D01*
X012138Y003362D01*
X012153Y003417D01*
X012172Y003470D01*
X012194Y003523D01*
X012220Y003573D01*
X012249Y003622D01*
X012281Y003669D01*
X012316Y003714D01*
X012354Y003756D01*
X012395Y003795D01*
X012438Y003832D01*
X012484Y003866D01*
X012532Y003896D01*
X012582Y003924D01*
X012633Y003948D01*
X012686Y003968D01*
X012740Y003985D01*
X012796Y003998D01*
X012852Y004007D01*
X012908Y004013D01*
X012965Y004015D01*
D16*
X017746Y002415D02*
X017748Y002466D01*
X017754Y002517D01*
X017764Y002567D01*
X017777Y002617D01*
X017795Y002665D01*
X017815Y002712D01*
X017840Y002757D01*
X017868Y002800D01*
X017899Y002841D01*
X017933Y002879D01*
X017970Y002914D01*
X018009Y002947D01*
X018051Y002977D01*
X018095Y003003D01*
X018141Y003025D01*
X018189Y003045D01*
X018238Y003060D01*
X018288Y003072D01*
X018338Y003080D01*
X018389Y003084D01*
X018441Y003084D01*
X018492Y003080D01*
X018542Y003072D01*
X018592Y003060D01*
X018641Y003045D01*
X018689Y003025D01*
X018735Y003003D01*
X018779Y002977D01*
X018821Y002947D01*
X018860Y002914D01*
X018897Y002879D01*
X018931Y002841D01*
X018962Y002800D01*
X018990Y002757D01*
X019015Y002712D01*
X019035Y002665D01*
X019053Y002617D01*
X019066Y002567D01*
X019076Y002517D01*
X019082Y002466D01*
X019084Y002415D01*
X019082Y002364D01*
X019076Y002313D01*
X019066Y002263D01*
X019053Y002213D01*
X019035Y002165D01*
X019015Y002118D01*
X018990Y002073D01*
X018962Y002030D01*
X018931Y001989D01*
X018897Y001951D01*
X018860Y001916D01*
X018821Y001883D01*
X018779Y001853D01*
X018735Y001827D01*
X018689Y001805D01*
X018641Y001785D01*
X018592Y001770D01*
X018542Y001758D01*
X018492Y001750D01*
X018441Y001746D01*
X018389Y001746D01*
X018338Y001750D01*
X018288Y001758D01*
X018238Y001770D01*
X018189Y001785D01*
X018141Y001805D01*
X018095Y001827D01*
X018051Y001853D01*
X018009Y001883D01*
X017970Y001916D01*
X017933Y001951D01*
X017899Y001989D01*
X017868Y002030D01*
X017840Y002073D01*
X017815Y002118D01*
X017795Y002165D01*
X017777Y002213D01*
X017764Y002263D01*
X017754Y002313D01*
X017748Y002364D01*
X017746Y002415D01*
X001746Y002415D02*
X001748Y002466D01*
X001754Y002517D01*
X001764Y002567D01*
X001777Y002617D01*
X001795Y002665D01*
X001815Y002712D01*
X001840Y002757D01*
X001868Y002800D01*
X001899Y002841D01*
X001933Y002879D01*
X001970Y002914D01*
X002009Y002947D01*
X002051Y002977D01*
X002095Y003003D01*
X002141Y003025D01*
X002189Y003045D01*
X002238Y003060D01*
X002288Y003072D01*
X002338Y003080D01*
X002389Y003084D01*
X002441Y003084D01*
X002492Y003080D01*
X002542Y003072D01*
X002592Y003060D01*
X002641Y003045D01*
X002689Y003025D01*
X002735Y003003D01*
X002779Y002977D01*
X002821Y002947D01*
X002860Y002914D01*
X002897Y002879D01*
X002931Y002841D01*
X002962Y002800D01*
X002990Y002757D01*
X003015Y002712D01*
X003035Y002665D01*
X003053Y002617D01*
X003066Y002567D01*
X003076Y002517D01*
X003082Y002466D01*
X003084Y002415D01*
X003082Y002364D01*
X003076Y002313D01*
X003066Y002263D01*
X003053Y002213D01*
X003035Y002165D01*
X003015Y002118D01*
X002990Y002073D01*
X002962Y002030D01*
X002931Y001989D01*
X002897Y001951D01*
X002860Y001916D01*
X002821Y001883D01*
X002779Y001853D01*
X002735Y001827D01*
X002689Y001805D01*
X002641Y001785D01*
X002592Y001770D01*
X002542Y001758D01*
X002492Y001750D01*
X002441Y001746D01*
X002389Y001746D01*
X002338Y001750D01*
X002288Y001758D01*
X002238Y001770D01*
X002189Y001785D01*
X002141Y001805D01*
X002095Y001827D01*
X002051Y001853D01*
X002009Y001883D01*
X001970Y001916D01*
X001933Y001951D01*
X001899Y001989D01*
X001868Y002030D01*
X001840Y002073D01*
X001815Y002118D01*
X001795Y002165D01*
X001777Y002213D01*
X001764Y002263D01*
X001754Y002313D01*
X001748Y002364D01*
X001746Y002415D01*
X002165Y012165D02*
X001165Y012165D01*
X001165Y015165D01*
X002165Y015165D01*
X002165Y012165D01*
X001746Y018415D02*
X001748Y018466D01*
X001754Y018517D01*
X001764Y018567D01*
X001777Y018617D01*
X001795Y018665D01*
X001815Y018712D01*
X001840Y018757D01*
X001868Y018800D01*
X001899Y018841D01*
X001933Y018879D01*
X001970Y018914D01*
X002009Y018947D01*
X002051Y018977D01*
X002095Y019003D01*
X002141Y019025D01*
X002189Y019045D01*
X002238Y019060D01*
X002288Y019072D01*
X002338Y019080D01*
X002389Y019084D01*
X002441Y019084D01*
X002492Y019080D01*
X002542Y019072D01*
X002592Y019060D01*
X002641Y019045D01*
X002689Y019025D01*
X002735Y019003D01*
X002779Y018977D01*
X002821Y018947D01*
X002860Y018914D01*
X002897Y018879D01*
X002931Y018841D01*
X002962Y018800D01*
X002990Y018757D01*
X003015Y018712D01*
X003035Y018665D01*
X003053Y018617D01*
X003066Y018567D01*
X003076Y018517D01*
X003082Y018466D01*
X003084Y018415D01*
X003082Y018364D01*
X003076Y018313D01*
X003066Y018263D01*
X003053Y018213D01*
X003035Y018165D01*
X003015Y018118D01*
X002990Y018073D01*
X002962Y018030D01*
X002931Y017989D01*
X002897Y017951D01*
X002860Y017916D01*
X002821Y017883D01*
X002779Y017853D01*
X002735Y017827D01*
X002689Y017805D01*
X002641Y017785D01*
X002592Y017770D01*
X002542Y017758D01*
X002492Y017750D01*
X002441Y017746D01*
X002389Y017746D01*
X002338Y017750D01*
X002288Y017758D01*
X002238Y017770D01*
X002189Y017785D01*
X002141Y017805D01*
X002095Y017827D01*
X002051Y017853D01*
X002009Y017883D01*
X001970Y017916D01*
X001933Y017951D01*
X001899Y017989D01*
X001868Y018030D01*
X001840Y018073D01*
X001815Y018118D01*
X001795Y018165D01*
X001777Y018213D01*
X001764Y018263D01*
X001754Y018313D01*
X001748Y018364D01*
X001746Y018415D01*
X017746Y018415D02*
X017748Y018466D01*
X017754Y018517D01*
X017764Y018567D01*
X017777Y018617D01*
X017795Y018665D01*
X017815Y018712D01*
X017840Y018757D01*
X017868Y018800D01*
X017899Y018841D01*
X017933Y018879D01*
X017970Y018914D01*
X018009Y018947D01*
X018051Y018977D01*
X018095Y019003D01*
X018141Y019025D01*
X018189Y019045D01*
X018238Y019060D01*
X018288Y019072D01*
X018338Y019080D01*
X018389Y019084D01*
X018441Y019084D01*
X018492Y019080D01*
X018542Y019072D01*
X018592Y019060D01*
X018641Y019045D01*
X018689Y019025D01*
X018735Y019003D01*
X018779Y018977D01*
X018821Y018947D01*
X018860Y018914D01*
X018897Y018879D01*
X018931Y018841D01*
X018962Y018800D01*
X018990Y018757D01*
X019015Y018712D01*
X019035Y018665D01*
X019053Y018617D01*
X019066Y018567D01*
X019076Y018517D01*
X019082Y018466D01*
X019084Y018415D01*
X019082Y018364D01*
X019076Y018313D01*
X019066Y018263D01*
X019053Y018213D01*
X019035Y018165D01*
X019015Y018118D01*
X018990Y018073D01*
X018962Y018030D01*
X018931Y017989D01*
X018897Y017951D01*
X018860Y017916D01*
X018821Y017883D01*
X018779Y017853D01*
X018735Y017827D01*
X018689Y017805D01*
X018641Y017785D01*
X018592Y017770D01*
X018542Y017758D01*
X018492Y017750D01*
X018441Y017746D01*
X018389Y017746D01*
X018338Y017750D01*
X018288Y017758D01*
X018238Y017770D01*
X018189Y017785D01*
X018141Y017805D01*
X018095Y017827D01*
X018051Y017853D01*
X018009Y017883D01*
X017970Y017916D01*
X017933Y017951D01*
X017899Y017989D01*
X017868Y018030D01*
X017840Y018073D01*
X017815Y018118D01*
X017795Y018165D01*
X017777Y018213D01*
X017764Y018263D01*
X017754Y018313D01*
X017748Y018364D01*
X017746Y018415D01*
D17*
X011640Y002660D02*
X011465Y002485D01*
X011523Y002427D02*
X011290Y002660D01*
X011290Y002427D02*
X011640Y002427D01*
X011640Y002292D02*
X011640Y002059D01*
X011290Y002059D01*
X011348Y001924D02*
X011407Y001924D01*
X011465Y001865D01*
X011465Y001690D01*
X011640Y001690D02*
X011290Y001690D01*
X011290Y001865D01*
X011348Y001924D01*
X011465Y001865D02*
X011523Y001924D01*
X011582Y001924D01*
X011640Y001865D01*
X011640Y001690D01*
M02*
